<svg width="17" height="19" viewBox="0 0 17 19" xmlns="http://www.w3.org/2000/svg">
<path d="M0.899631 16.4239L1.98757 4.17301C2.01088 3.90102 2.24012 3.69509 2.50822 3.69509H4.74626C4.77734 1.65133 6.4481 0 8.49963 0C10.5512 0 12.2219 1.65133 12.253 3.69509H14.491C14.763 3.69509 14.9884 3.90102 15.0117 4.17301L16.0996 16.4239C16.0996 16.4395 16.1035 16.455 16.1035 16.4706C16.1035 17.8654 14.8252 19 13.2516 19H3.74769C2.17407 19 0.895744 17.8654 0.895744 16.4706C0.895744 16.455 0.895744 16.4395 0.899631 16.4239ZM8.49963 1.04908C7.02703 1.04908 5.82642 2.23027 5.79534 3.69509H11.2039C11.1728 2.23027 9.97223 1.04908 8.49963 1.04908ZM3.74769 17.9509H13.2516C14.2385 17.9509 15.0389 17.2982 15.0544 16.4939L14.0131 4.74806H12.2569V6.3411C12.2569 6.63251 12.0238 6.86564 11.7324 6.86564C11.4409 6.86564 11.2078 6.63251 11.2078 6.3411V4.74806H5.79534V6.3411C5.79534 6.63251 5.56221 6.86564 5.2708 6.86564C4.97938 6.86564 4.74626 6.63251 4.74626 6.3411V4.74806H2.99002L1.94482 16.4939C1.96037 17.2982 2.76466 17.9509 3.74769 17.9509Z"/>
</svg>
