<svg width="16" height="14" viewBox="0 0 16 14" xmlns="http://www.w3.org/2000/svg">
<path d="M11.6611 0.104492C10.8134 0.104492 10.0362 0.373111 9.3512 0.902904C8.69445 1.41082 8.2572 2.05774 7.99978 2.52816C7.74235 2.05771 7.3051 1.41082 6.64835 0.902904C5.96332 0.373111 5.18614 0.104492 4.33846 0.104492C1.97288 0.104492 0.188965 2.03941 0.188965 4.60529C0.188965 7.37733 2.41453 9.27393 5.78373 12.1451C6.35588 12.6327 7.00439 13.1854 7.67843 13.7748C7.76728 13.8526 7.88139 13.8955 7.99978 13.8955C8.11816 13.8955 8.23227 13.8526 8.32112 13.7748C8.99523 13.1853 9.64371 12.6327 10.2162 12.1448C13.585 9.27393 15.8106 7.37733 15.8106 4.60529C15.8106 2.03941 14.0267 0.104492 11.6611 0.104492Z"/>
</svg>
