<svg width="28" height="28" viewBox="0 0 28 28" xmlns="http://www.w3.org/2000/svg">
<path d="M23.8984 0H4.10156C1.84015 0 0 1.84015 0 4.10156V23.8984C0 26.1599 1.84015 28 4.10156 28H23.8984C26.1599 28 28 26.1599 28 23.8984V4.10156C28 1.84015 26.1599 0 23.8984 0ZM14.0547 21.3281C9.98367 21.3281 6.67188 18.0163 6.67188 13.9453C6.67188 9.8743 9.98367 6.5625 14.0547 6.5625C18.1257 6.5625 21.4375 9.8743 21.4375 13.9453C21.4375 18.0163 18.1257 21.3281 14.0547 21.3281ZM22.2578 8.20312C20.9009 8.20312 19.7969 7.09912 19.7969 5.74219C19.7969 4.38525 20.9009 3.28125 22.2578 3.28125C23.6147 3.28125 24.7188 4.38525 24.7188 5.74219C24.7188 7.09912 23.6147 8.20312 22.2578 8.20312Z"/>
<path d="M22.2578 4.922C21.8051 4.922 21.4375 5.28964 21.4375 5.74231C21.4375 6.19498 21.8051 6.56262 22.2578 6.56262C22.7105 6.56262 23.0781 6.19498 23.0781 5.74231C23.0781 5.28964 22.7105 4.922 22.2578 4.922Z"/>
<path d="M14 9.05872C11.1055 9.05872 8.75 11.2756 8.75 13.9999C8.75 16.7242 11.1055 18.9411 14 18.9411C16.8945 18.9411 19.25 16.7242 19.25 13.9999C19.25 11.2756 16.8945 9.05872 14 9.05872Z"/>
</svg>
