<svg width="19" height="19" viewBox="0 0 19 19" xmlns="http://www.w3.org/2000/svg">
<path d="M18.3691 16.8922L13.9977 12.5207C15.0813 11.1996 15.7344 9.50742 15.7344 7.66309C15.7344 3.43262 12.3018 0 8.07129 0C3.83711 0 0.408203 3.43262 0.408203 7.66309C0.408203 11.8936 3.83711 15.3262 8.07129 15.3262C9.91562 15.3262 11.6041 14.6768 12.9252 13.5932L17.2967 17.9609C17.5936 18.2578 18.0723 18.2578 18.3691 17.9609C18.666 17.6678 18.666 17.1854 18.3691 16.8922ZM8.07129 13.801C4.6832 13.801 1.92969 11.0475 1.92969 7.66309C1.92969 4.27871 4.6832 1.52148 8.07129 1.52148C11.4557 1.52148 14.2129 4.27871 14.2129 7.66309C14.2129 11.0475 11.4557 13.801 8.07129 13.801Z"/>
</svg>
