<svg width="28" height="28" viewBox="0 0 28 28" xmlns="http://www.w3.org/2000/svg">
<path d="M15.5091 15.4315C15.0602 15.1702 14.4363 15.1702 13.9294 15.1702H12.2649V18.6002H13.7926C14.3582 18.6002 15.0795 18.6407 15.5671 18.2983C16.0148 17.997 16.2683 17.4055 16.2683 16.8423C16.2683 16.319 15.9568 15.6931 15.5091 15.4315ZM14.8811 12.5023C15.2515 12.2203 15.4458 11.7174 15.4458 11.2542C15.4458 10.7511 15.2122 10.2681 14.7837 10.0068C14.3354 9.74546 13.5161 9.80583 12.99 9.80583H12.2649V12.8246H13.2242C13.7699 12.8243 14.4136 12.8645 14.8811 12.5023ZM23.0781 0H4.92129C2.20354 0 0 2.20354 0 4.92188V23.0781C0 25.7959 2.20354 28 4.92129 28H23.0781C25.7959 28 28 25.7959 28 23.0781V4.92188C28 2.20354 25.7959 0 23.0781 0ZM14.7595 21.156H9.03933V7.35029H15.2892C17.0995 7.35029 18.7699 8.50267 18.7699 10.5353C18.7699 12.1047 17.8937 13.1795 16.7761 13.5135V13.554C18.4333 13.8965 19.6169 14.7965 19.6169 16.968C19.6169 18.9776 18.2484 21.156 14.7595 21.156Z"/>
</svg>
