<svg width="183" height="183" viewBox="0 0 183 183" fill="none" xmlns="http://www.w3.org/2000/svg">
<path d="M166.579 91.1482L178.474 91.6075L178.365 94.4534C178.337 95.1569 178.153 95.6408 177.812 95.9052C177.471 96.1802 176.985 96.3056 176.356 96.2813L174.534 96.2109C173.66 96.1772 173.122 95.8575 172.922 95.252C172.628 95.9345 172.034 96.2585 171.139 96.2239L168.565 96.1245C167.893 96.0986 167.366 95.9182 166.984 95.5832C166.613 95.2593 166.439 94.7722 166.464 94.122L166.579 91.1482ZM171.908 93.7078L171.929 93.1642L168.188 93.0197L168.167 93.5633C168.157 93.8404 168.213 94.0294 168.338 94.1303C168.462 94.2312 168.662 94.2869 168.939 94.2976L171.114 94.3816C171.38 94.3919 171.574 94.3513 171.695 94.2599C171.827 94.1689 171.898 93.9849 171.908 93.7078ZM176.769 93.8954L176.79 93.3518L173.704 93.2327L173.683 93.7763C173.667 94.192 173.936 94.4105 174.49 94.4319L175.993 94.4899C176.26 94.5002 176.454 94.4597 176.574 94.3683C176.695 94.2875 176.76 94.1299 176.769 93.8954Z" fill="#E6FF0D"/>
<path d="M174.943 103.59L168.353 102.774C166.501 102.544 165.669 101.667 165.858 100.143L165.896 99.8412C166.087 98.2957 167.109 97.6377 168.962 97.8673L175.535 98.6821C177.345 98.9064 178.155 99.786 177.965 101.321L177.928 101.623C177.825 102.448 177.52 103.007 177.011 103.299C176.5 103.601 175.811 103.698 174.943 103.59ZM168.453 100.932L175.249 101.774C175.852 101.849 176.179 101.68 176.231 101.267C176.283 100.844 176.008 100.595 175.404 100.52L168.608 99.6776C168.005 99.6028 167.676 99.7824 167.622 100.216C167.573 100.619 167.849 100.857 168.453 100.932Z" fill="#E6FF0D"/>
<path d="M165.492 104.121L177.131 106.619L176.551 109.325C176.396 110.045 176.094 110.514 175.643 110.734C175.202 110.956 174.617 110.988 173.887 110.832L166.8 109.311C165.257 108.98 164.627 108.152 164.911 106.827L165.492 104.121ZM175.172 108.047L166.802 106.251L166.712 106.674C166.656 106.935 166.686 107.126 166.801 107.249C166.925 107.385 167.148 107.487 167.471 107.557L174.026 108.963C174.36 109.035 174.605 109.038 174.76 108.974C174.916 108.909 175.018 108.767 175.065 108.548L175.172 108.047Z" fill="#E6FF0D"/>
<path d="M174.207 118.193L167.995 114.678L163.259 113.259L163.778 111.527L168.529 112.95L175.65 113.38L175.144 115.066L170.645 114.587L174.676 116.63L174.207 118.193Z" fill="#E6FF0D"/>
<path d="M163.728 119.295L166.309 120.296L165.666 121.952L163.1 120.956C161.499 120.335 160.959 119.353 161.48 118.011L161.625 117.638C162.162 116.255 163.21 115.867 164.772 116.473L171.544 119.101C172.18 119.348 172.645 119.712 172.939 120.192C173.244 120.676 173.259 121.272 172.985 121.978L172.834 122.365C172.664 122.803 172.459 123.141 172.217 123.379C171.972 123.627 171.7 123.768 171.402 123.8C171.103 123.833 170.827 123.823 170.572 123.77C170.324 123.731 170.041 123.65 169.723 123.527L167.739 122.757L168.382 121.101L170.336 121.859C170.823 122.048 171.14 121.954 171.287 121.576C171.364 121.377 171.358 121.215 171.27 121.089C171.187 120.977 171.017 120.871 170.758 120.77L164.166 118.212C163.658 118.015 163.335 118.095 163.196 118.453C163.054 118.821 163.231 119.102 163.728 119.295Z" fill="#E6FF0D"/>
<path d="M158.876 124.358L160.993 125.129L161.578 123.937L159.665 122.749L160.377 121.298L170.424 127.847L169.48 129.772L158.108 125.924L158.876 124.358ZM166.834 127.245L163.088 124.891L162.672 125.739L166.834 127.245Z" fill="#E6FF0D"/>
<path d="M154.505 132.186L164.233 139.047L162.592 141.374C162.186 141.949 161.768 142.255 161.338 142.291C160.902 142.336 160.426 142.177 159.912 141.814L158.421 140.763C157.707 140.259 157.43 139.698 157.591 139.081C156.974 139.494 156.299 139.442 155.567 138.926L153.461 137.441C152.912 137.054 152.569 136.615 152.431 136.126C152.295 135.652 152.415 135.149 152.79 134.618L154.505 132.186ZM157.582 137.234L157.896 136.789L154.836 134.632L154.522 135.076C154.363 135.303 154.307 135.492 154.357 135.644C154.406 135.797 154.544 135.953 154.77 136.112L156.549 137.367C156.767 137.52 156.951 137.592 157.102 137.581C157.262 137.576 157.422 137.461 157.582 137.234ZM161.557 140.037L161.87 139.593L159.347 137.813L159.033 138.258C158.794 138.597 158.9 138.927 159.354 139.247L160.583 140.114C160.801 140.267 160.985 140.339 161.136 140.328C161.281 140.326 161.422 140.229 161.557 140.037Z" fill="#E6FF0D"/>
<path d="M154.685 147.217L149.614 142.931C148.189 141.726 147.972 140.537 148.963 139.364L149.16 139.131C150.165 137.942 151.381 137.95 152.806 139.155L157.865 143.431C159.258 144.609 159.455 145.788 158.457 146.969L158.26 147.202C157.723 147.837 157.162 148.138 156.576 148.103C155.984 148.077 155.353 147.782 154.685 147.217ZM150.705 141.443L155.934 145.864C156.399 146.256 156.765 146.294 157.034 145.976C157.309 145.65 157.215 145.291 156.75 144.899L151.521 140.478C151.056 140.085 150.683 140.056 150.401 140.39C150.139 140.699 150.24 141.05 150.705 141.443Z" fill="#E6FF0D"/>
<path d="M146.608 142.353L155.026 150.77L153.068 152.727C152.548 153.247 152.039 153.478 151.541 153.417C151.051 153.364 150.541 153.074 150.013 152.546L144.888 147.421C143.772 146.305 143.693 145.268 144.651 144.31L146.608 142.353ZM152.604 150.906L146.551 144.853L146.246 145.158C146.057 145.347 145.978 145.524 146.008 145.69C146.039 145.871 146.171 146.079 146.404 146.312L151.145 151.053C151.386 151.294 151.59 151.43 151.756 151.46C151.922 151.49 152.084 151.426 152.242 151.268L152.604 150.906Z" fill="#E6FF0D"/>
<path d="M146.24 158.938L142.933 152.612L139.727 148.848L141.104 147.676L144.32 151.452L150.065 155.68L148.725 156.821L145.207 153.975L147.482 157.88L146.24 158.938Z" fill="#E6FF0D"/>
<path d="M136.782 154.213L138.402 156.457L136.962 157.496L135.351 155.265C134.346 153.873 134.427 152.755 135.595 151.912L135.919 151.678C137.121 150.81 138.213 151.055 139.193 152.413L143.444 158.303C143.844 158.856 144.037 159.415 144.022 159.978C144.014 160.549 143.702 161.057 143.088 161.5L142.751 161.743C142.371 162.018 142.014 162.19 141.682 162.258C141.342 162.333 141.037 162.303 140.769 162.168C140.5 162.033 140.274 161.874 140.089 161.692C139.902 161.524 139.709 161.302 139.509 161.025L138.264 159.3L139.704 158.26L140.931 159.96C141.236 160.383 141.554 160.477 141.882 160.239C142.055 160.115 142.139 159.975 142.133 159.822C142.125 159.683 142.04 159.501 141.878 159.276L137.738 153.542C137.42 153.101 137.105 152.993 136.794 153.217C136.474 153.448 136.47 153.78 136.782 154.213Z" fill="#E6FF0D"/>
<path d="M129.976 155.816L131.335 157.613L132.474 156.929L131.512 154.893L132.898 154.061L137.78 165.015L135.942 166.119L128.481 156.714L129.976 155.816ZM135.092 162.561L133.224 158.55L132.415 159.036L135.092 162.561Z" fill="#E6FF0D"/>
<path d="M122.041 160.03L126.472 171.078L123.829 172.138C123.175 172.4 122.659 172.429 122.278 172.226C121.888 172.026 121.575 171.634 121.341 171.05L120.662 169.357C120.336 168.545 120.409 167.924 120.88 167.494C120.137 167.505 119.599 167.094 119.266 166.262L118.307 163.872C118.056 163.248 118.006 162.693 118.156 162.208C118.301 161.736 118.675 161.38 119.278 161.137L122.041 160.03ZM121.877 165.939L122.382 165.737L120.988 162.262L120.483 162.464C120.226 162.568 120.076 162.696 120.035 162.851C119.993 163.005 120.024 163.211 120.127 163.469L120.938 165.488C121.037 165.736 121.153 165.896 121.286 165.969C121.422 166.052 121.619 166.042 121.877 165.939ZM123.688 170.454L124.193 170.251L123.043 167.385L122.538 167.588C122.152 167.742 122.062 168.077 122.269 168.592L122.829 169.988C122.928 170.235 123.044 170.396 123.177 170.469C123.299 170.546 123.47 170.541 123.688 170.454Z" fill="#E6FF0D"/>
<path d="M114.109 172.715L112.179 166.361C111.636 164.575 112.1 163.459 113.569 163.012L113.86 162.924C115.35 162.471 116.367 163.138 116.909 164.924L118.835 171.262C119.365 173.007 118.89 174.105 117.41 174.554L117.119 174.643C116.323 174.885 115.689 174.832 115.215 174.485C114.732 174.142 114.363 173.551 114.109 172.715ZM113.902 165.704L115.893 172.256C116.069 172.838 116.357 173.068 116.755 172.948C117.163 172.824 117.279 172.471 117.102 171.889L115.111 165.337C114.935 164.755 114.637 164.528 114.219 164.655C113.831 164.772 113.725 165.122 113.902 165.704Z" fill="#E6FF0D"/>
<path d="M109.948 164.239L112.446 175.878L109.74 176.459C109.02 176.613 108.468 176.53 108.082 176.209C107.699 175.898 107.429 175.378 107.273 174.648L105.752 167.561C105.421 166.018 105.917 165.104 107.242 164.82L109.948 164.239ZM110.339 174.677L108.543 166.308L108.121 166.398C107.86 166.454 107.697 166.56 107.633 166.716C107.56 166.884 107.558 167.13 107.627 167.453L109.034 174.008C109.105 174.342 109.203 174.567 109.326 174.682C109.449 174.797 109.62 174.832 109.839 174.785L110.339 174.677Z" fill="#E6FF0D"/>
<path d="M100.646 177.949L101.307 170.842L100.661 165.94L102.454 165.704L103.102 170.621L105.627 177.293L103.882 177.522L102.476 173.221L102.264 177.736L100.646 177.949Z" fill="#E6FF0D"/>
<path d="M95.2892 168.83L95.428 171.595L93.6542 171.684L93.5162 168.935C93.4301 167.22 94.1062 166.327 95.5443 166.254L95.9438 166.234C97.4246 166.16 98.207 166.959 98.291 168.632L98.6553 175.887C98.6895 176.568 98.5474 177.142 98.229 177.606C97.9111 178.081 97.3739 178.338 96.6175 178.376L96.2021 178.397C95.7333 178.42 95.341 178.371 95.0251 178.248C94.6985 178.125 94.4593 177.934 94.3075 177.675C94.1556 177.415 94.0519 177.159 93.9965 176.905C93.9309 176.663 93.8896 176.371 93.8725 176.031L93.7658 173.905L95.5395 173.816L95.6446 175.91C95.6708 176.432 95.8864 176.682 96.2912 176.662C96.5042 176.651 96.6502 176.58 96.729 176.448C96.7977 176.327 96.8251 176.128 96.8112 175.851L96.4565 168.788C96.4293 168.245 96.2239 167.982 95.8403 168.002C95.4462 168.022 95.2625 168.298 95.2892 168.83Z" fill="#E6FF0D"/>
<path d="M88.4051 166.461L88.5585 168.709L89.8855 168.76L90.1958 166.53L91.8106 166.593L89.8964 178.432L87.754 178.349L86.6624 166.394L88.4051 166.461ZM88.9917 174.906L89.6252 170.527L88.6819 170.491L88.9917 174.906Z" fill="#E6FF0D"/>
<path d="M79.4498 165.649L77.1301 177.325L74.3367 176.77C73.6462 176.633 73.1971 176.375 72.9896 175.997C72.7715 175.616 72.7238 175.117 72.8464 174.5L73.2019 172.711C73.3723 171.853 73.7723 171.372 74.4019 171.269C73.7738 170.872 73.547 170.235 73.7216 169.356L74.2236 166.829C74.3546 166.17 74.6154 165.678 75.0062 165.353C75.3844 165.037 75.8927 164.942 76.5308 165.069L79.4498 165.649ZM76.0859 170.511L76.6195 170.617L77.3491 166.944L76.8155 166.838C76.5435 166.784 76.3479 166.811 76.2288 166.918C76.1097 167.025 76.0232 167.214 75.9691 167.486L75.5451 169.62C75.4931 169.882 75.5028 170.079 75.5741 170.213C75.6433 170.358 75.8139 170.457 76.0859 170.511ZM75.1381 175.281L75.6717 175.387L76.2734 172.359L75.7398 172.253C75.3318 172.172 75.0738 172.403 74.9657 172.947L74.6726 174.422C74.6206 174.684 74.6303 174.881 74.7016 175.015C74.7624 175.147 74.9079 175.236 75.1381 175.281Z" fill="#E6FF0D"/>
<path d="M65.8991 171.96L67.7329 165.578C68.2484 163.784 69.2443 163.099 70.7206 163.524L71.0127 163.607C72.5095 164.038 73.0001 165.15 72.4846 166.944L70.6553 173.31C70.1515 175.063 69.1564 175.726 67.6699 175.299L67.3777 175.215C66.578 174.985 66.0739 174.596 65.8652 174.048C65.6462 173.497 65.6575 172.801 65.8991 171.96ZM69.5367 165.963L67.6454 172.545C67.4775 173.129 67.5935 173.479 67.9933 173.594C68.4034 173.712 68.6924 173.479 68.8603 172.894L70.7515 166.313C70.9194 165.728 70.7932 165.376 70.3729 165.255C69.9833 165.143 69.7046 165.379 69.5367 165.963Z" fill="#E6FF0D"/>
<path d="M67.0362 162.585L62.7706 173.699L60.1864 172.707C59.4993 172.443 59.0821 172.072 58.9347 171.592C58.7835 171.123 58.8417 170.54 59.1092 169.843L61.7064 163.076C62.2721 161.602 63.1873 161.108 64.452 161.593L67.0362 162.585ZM61.6618 171.542L64.7291 163.551L64.3258 163.396C64.0768 163.3 63.8827 163.3 63.7434 163.395C63.5903 163.496 63.4545 163.701 63.336 164.01L60.9337 170.269C60.8114 170.587 60.7702 170.829 60.8102 170.993C60.8501 171.156 60.9746 171.278 61.1838 171.359L61.6618 171.542Z" fill="#E6FF0D"/>
<path d="M51.7455 168.979L56.1912 163.394L58.3353 158.939L59.9645 159.723L57.8134 164.193L56.2725 171.157L54.6866 170.394L55.8659 166.025L53.216 169.686L51.7455 168.979Z" fill="#E6FF0D"/>
<path d="M52.268 158.435L50.8777 160.828L49.3419 159.936L50.7242 157.556C51.5868 156.072 52.6407 155.691 53.8859 156.414L54.2318 156.615C55.5139 157.359 55.7343 158.456 54.8932 159.904L51.2446 166.185C50.9017 166.775 50.4702 167.179 49.95 167.395C49.4244 167.62 48.8342 167.542 48.1793 167.162L47.8196 166.953C47.4138 166.717 47.1119 166.462 46.9141 166.186C46.707 165.906 46.6105 165.615 46.6246 165.315C46.6386 165.015 46.6915 164.743 46.7831 164.5C46.8603 164.262 46.9845 163.995 47.156 163.699L48.2248 161.859L49.7606 162.751L48.7078 164.564C48.4453 165.016 48.4893 165.343 48.8398 165.547C49.0242 165.654 49.1855 165.674 49.3236 165.606C49.4471 165.542 49.5785 165.39 49.7178 165.15L53.2699 159.035C53.5432 158.565 53.5138 158.233 53.1817 158.04C52.8404 157.842 52.5359 157.973 52.268 158.435Z" fill="#E6FF0D"/>
<path d="M48.0288 152.848L46.9338 154.816L48.019 155.582L49.4932 153.881L50.8138 154.812L42.7627 163.7L41.0106 162.465L46.6036 151.843L48.0288 152.848ZM43.9232 160.251L46.8385 156.923L46.0671 156.378L43.9232 160.251Z" fill="#E6FF0D"/>
<path d="M40.994 147.319L32.6996 155.858L30.6567 153.873C30.1517 153.383 29.9149 152.922 29.9464 152.492C29.9702 152.054 30.2013 151.61 30.6398 151.158L31.9108 149.85C32.5202 149.222 33.1172 149.036 33.7018 149.292C33.3902 148.618 33.5466 147.959 34.1709 147.316L35.9658 145.469C36.434 144.987 36.9204 144.715 37.4249 144.655C37.9144 144.595 38.3925 144.792 38.8592 145.246L40.994 147.319ZM35.5275 149.571L35.9178 149.95L38.5265 147.264L38.1363 146.885C37.9373 146.692 37.7588 146.608 37.6008 146.633C37.4427 146.658 37.2671 146.77 37.0738 146.969L35.5577 148.529C35.3719 148.721 35.2725 148.892 35.2596 149.043C35.2393 149.202 35.3286 149.378 35.5275 149.571ZM32.1385 153.06L32.5287 153.439L34.6803 151.224L34.2901 150.845C33.9917 150.555 33.6492 150.609 33.2628 151.007L32.2148 152.086C32.029 152.277 31.9297 152.448 31.9168 152.599C31.8962 152.743 31.9701 152.896 32.1385 153.06Z" fill="#E6FF0D"/>
<path d="M26.2094 145.271L31.2174 140.911C32.6253 139.686 33.8335 139.652 34.8422 140.81L35.0418 141.04C36.0644 142.214 35.8718 143.414 34.4639 144.64L29.4679 148.99C28.0922 150.187 26.8965 150.203 25.8809 149.036L25.6813 148.807C25.135 148.179 24.9232 147.579 25.0461 147.005C25.1619 146.424 25.5497 145.846 26.2094 145.271ZM32.5222 142.215L27.3573 146.712C26.8987 147.111 26.806 147.467 27.0791 147.781C27.3593 148.103 27.7287 148.064 28.1872 147.665L33.3522 143.168C33.8108 142.769 33.8964 142.405 33.6093 142.075C33.3431 141.769 32.9808 141.816 32.5222 142.215Z" fill="#E6FF0D"/>
<path d="M32.2062 137.972L22.5796 144.974L20.9512 142.736C20.5183 142.14 20.3704 141.602 20.5076 141.119C20.6362 140.643 21.0023 140.186 21.6062 139.747L27.4676 135.483C28.7442 134.554 29.781 134.638 30.5779 135.733L32.2062 137.972ZM22.8228 142.561L29.7452 137.526L29.4911 137.177C29.3342 136.961 29.1715 136.855 29.0029 136.859C28.8193 136.861 28.5939 136.959 28.3265 137.153L22.905 141.097C22.629 141.298 22.4631 141.478 22.4075 141.637C22.3518 141.796 22.3899 141.966 22.5216 142.147L22.8228 142.561Z" fill="#E6FF0D"/>
<path d="M15.9513 135.156L22.7083 132.855L26.9182 130.262L27.8662 131.802L23.6428 134.403L18.5858 139.433L17.6628 137.935L21.014 134.894L16.8071 136.545L15.9513 135.156Z" fill="#E6FF0D"/>
<path d="M22.0655 126.515L19.5986 127.77L18.793 126.188L21.2456 124.939C22.7761 124.16 23.868 124.413 24.5212 125.696L24.7026 126.052C25.3752 127.374 24.9652 128.414 23.4728 129.174L16.999 132.469C16.3906 132.778 15.8094 132.883 15.2553 132.782C14.6917 132.686 14.2381 132.3 13.8946 131.625L13.7059 131.254C13.493 130.836 13.3781 130.458 13.3614 130.119C13.3398 129.771 13.4164 129.475 13.5912 129.23C13.7659 128.986 13.9577 128.786 14.1665 128.632C14.3609 128.473 14.6103 128.317 14.9145 128.162L16.8109 127.197L17.6166 128.779L15.7486 129.73C15.2828 129.967 15.1418 130.266 15.3257 130.627C15.4225 130.818 15.5473 130.922 15.7 130.94C15.8385 130.953 16.0313 130.897 16.2784 130.771L22.5811 127.563C23.0659 127.316 23.2212 127.022 23.047 126.68C22.868 126.328 22.5408 126.273 22.0655 126.515Z" fill="#E6FF0D"/>
<path d="M21.5378 119.549L19.5521 120.613L20.0511 121.844L22.2111 121.209L22.8183 122.707L11.2394 125.83L10.4338 123.844L20.8824 117.933L21.5378 119.549ZM14.0811 123.556L18.333 122.333L17.9783 121.458L14.0811 123.556Z" fill="#E6FF0D"/>
<path d="M18.5923 111.005L6.98252 113.636L6.35314 110.858C6.19757 110.171 6.25038 109.656 6.51159 109.313C6.77043 108.959 7.20675 108.712 7.82052 108.573L9.59943 108.17C10.4525 107.977 11.0542 108.147 11.4047 108.68C11.5116 107.945 12.0019 107.478 12.8758 107.28L15.3881 106.711C16.0435 106.563 16.599 106.601 17.0546 106.826C17.4975 107.043 17.7908 107.468 17.9346 108.103L18.5923 111.005ZM12.7826 109.91L12.9028 110.44L16.5542 109.613L16.434 109.083C16.3727 108.812 16.2691 108.644 16.123 108.579C15.977 108.514 15.7687 108.511 15.4982 108.573L13.376 109.054C13.1159 109.113 12.9393 109.202 12.8461 109.321C12.7424 109.443 12.7213 109.639 12.7826 109.91ZM8.03881 110.985L8.15902 111.515L11.1707 110.833L11.0505 110.302C10.9585 109.897 10.6421 109.755 10.1011 109.878L8.63432 110.21C8.37424 110.269 8.1976 110.358 8.10438 110.478C8.0088 110.587 7.98695 110.756 8.03881 110.985Z" fill="#E6FF0D"/>
<path d="M7.31845 101.279L13.8947 100.361C15.7435 100.103 16.774 100.735 16.9863 102.256L17.0284 102.557C17.2436 104.099 16.4269 105 14.5782 105.258L8.01775 106.173C6.21126 106.425 5.20111 105.786 4.9873 104.254L4.94528 103.953C4.83026 103.129 4.98084 102.51 5.39701 102.096C5.8117 101.672 6.45218 101.4 7.31845 101.279ZM14.2758 102.166L7.49358 103.112C6.89142 103.196 6.61909 103.444 6.67659 103.856C6.73558 104.279 7.06615 104.448 7.66831 104.364L14.4506 103.418C15.0527 103.334 15.3236 103.075 15.2631 102.642C15.2071 102.24 14.878 102.082 14.2758 102.166Z" fill="#E6FF0D"/>
<path d="M16.3274 98.5129L4.44076 99.1556L4.2913 96.3917C4.25156 95.6568 4.42038 95.1242 4.79777 94.794C5.1645 94.4644 5.72066 94.2794 6.46624 94.2391L13.7037 93.8478C15.28 93.7625 16.1048 94.3963 16.1779 95.749L16.3274 98.5129ZM5.95678 97.263L14.5043 96.8009L14.481 96.3695C14.4666 96.1032 14.3875 95.9259 14.2439 95.8375C14.089 95.7391 13.8465 95.6988 13.5163 95.7166L6.82208 96.0786C6.48125 96.097 6.24419 96.1579 6.11091 96.2612C5.97763 96.3646 5.91704 96.5281 5.92913 96.7518L5.95678 97.263Z" fill="#E6FF0D"/>
<path d="M4.2285 86.9775L11.1432 88.749L16.0854 88.8825L16.0365 90.6899L11.0783 90.5559L4.09278 91.9997L4.14032 90.2403L8.60918 89.5288L4.18441 88.6089L4.2285 86.9775Z" fill="#E6FF0D"/>
<path d="M14.0713 82.9778L11.3194 82.6797L11.5107 80.914L14.2467 81.2105C15.954 81.3955 16.7301 82.2038 16.575 83.6354L16.5319 84.0331C16.3722 85.5071 15.4598 86.1539 13.7949 85.9735L6.57318 85.191C5.89449 85.1174 5.35083 84.8869 4.94221 84.4993C4.52299 84.1105 4.35417 83.5397 4.43576 82.7867L4.48058 82.3732C4.53114 81.9066 4.64202 81.527 4.8132 81.2344C4.98554 80.9312 5.21173 80.725 5.49179 80.6159C5.77184 80.5067 6.04142 80.4447 6.30053 80.4299C6.55018 80.4033 6.84468 80.4084 7.18403 80.4452L9.29964 80.6744L9.1083 82.4401L7.0245 82.2143C6.50488 82.158 6.22323 82.3313 6.17956 82.7343C6.15658 82.9464 6.20412 83.1017 6.32218 83.2004C6.43079 83.2872 6.62295 83.3456 6.89867 83.3755L13.9295 84.1373C14.4703 84.1959 14.7614 84.0343 14.8028 83.6526C14.8453 83.2602 14.6015 83.0353 14.0713 82.9778Z" fill="#E6FF0D"/>
<path d="M17.4147 76.9321L15.1701 76.7396L14.9163 78.0431L17.0722 78.691L16.7633 80.2772L5.357 76.5732L5.76676 74.4687L17.748 75.2202L17.4147 76.9321ZM8.97948 76.2189L13.2097 77.5152L13.3901 76.5886L8.97948 76.2189Z" fill="#E6FF0D"/>
<path d="M19.6397 68.0369L8.4788 63.897L9.46934 61.2268C9.7142 60.5667 10.0399 60.1642 10.4463 60.0192C10.8565 59.8642 11.3567 59.8961 11.9467 60.115L13.6568 60.7493C14.4769 61.0535 14.8881 61.5246 14.8903 62.1625C15.3815 61.6052 16.0471 61.4823 16.8872 61.794L19.3024 62.6898C19.9324 62.9235 20.3768 63.259 20.6356 63.6963C20.888 64.1199 20.9011 64.6367 20.6748 65.2467L19.6397 68.0369ZM15.3723 63.9454L15.1831 64.4555L18.6934 65.7575L18.8826 65.2475C18.9791 64.9875 18.984 64.7902 18.8974 64.6557C18.8108 64.5212 18.6374 64.4057 18.3774 64.3092L16.3372 63.5525C16.0872 63.4597 15.8905 63.438 15.7471 63.4872C15.5937 63.5326 15.4688 63.6854 15.3723 63.9454ZM10.812 62.2538L10.6228 62.7639L13.518 63.8378L13.7072 63.3278C13.8519 62.9377 13.6642 62.6463 13.1442 62.4534L11.734 61.9303C11.484 61.8376 11.2873 61.8158 11.1439 61.865C11.0042 61.9042 10.8936 62.0338 10.812 62.2538Z" fill="#E6FF0D"/>
<path d="M15.377 54.0098L21.3919 56.8224C23.0828 57.613 23.6029 58.7041 22.9523 60.0955L22.8235 60.3708C22.1638 61.7815 20.9885 62.0915 19.2975 61.3009L13.2971 58.4951C11.6449 57.7225 11.1463 56.6356 11.8015 55.2346L11.9303 54.9592C12.2827 54.2055 12.7461 53.7687 13.3203 53.6486C13.8991 53.5189 14.5846 53.6393 15.377 54.0098ZM20.7284 58.5433L14.5251 55.6427C13.9743 55.3851 13.6108 55.4448 13.4346 55.8216C13.2538 56.2081 13.4389 56.5301 13.9896 56.7876L20.1929 59.6883C20.7437 59.9459 21.1117 59.8766 21.297 59.4804C21.4687 59.1132 21.2791 58.8009 20.7284 58.5433Z" fill="#E6FF0D"/>
<path d="M24.6151 56.2449L14.3215 50.2661L15.7118 47.8726C16.0815 47.2362 16.5146 46.8834 17.0113 46.8141C17.4987 46.7395 18.0652 46.8897 18.7109 47.2647L24.9784 50.905C26.3435 51.6979 26.6858 52.6801 26.0054 53.8514L24.6151 56.2449ZM16.627 49.5144L24.029 53.8137L24.246 53.4401C24.3799 53.2095 24.411 53.0179 24.3393 52.8652C24.2638 52.698 24.0831 52.5314 23.7971 52.3653L18 48.9982C17.7049 48.8267 17.4732 48.7477 17.3051 48.7611C17.137 48.7744 16.9967 48.878 16.8841 49.0716L16.627 49.5144Z" fill="#E6FF0D"/>
<path d="M20.4975 40.4259L25.3301 45.679L29.4014 48.484L28.3756 49.9728L24.2911 47.1588L17.6469 44.563L18.6455 43.1137L22.7804 44.9521L19.5715 41.7698L20.4975 40.4259Z" fill="#E6FF0D"/>
<path d="M30.8922 42.469L28.7461 40.7208L29.8678 39.3439L32.0015 41.0819C33.333 42.1666 33.544 43.2671 32.6345 44.3835L32.3819 44.6936C31.4454 45.8431 30.328 45.8891 29.0296 44.8314L23.3977 40.2437C22.8684 39.8125 22.5379 39.3232 22.4061 38.7756C22.2661 38.2213 22.4352 37.6506 22.9135 37.0634L23.1763 36.7409C23.4727 36.377 23.7724 36.1189 24.0753 35.9667C24.3849 35.8062 24.6869 35.7564 24.9812 35.8173C25.2755 35.8782 25.5354 35.9729 25.7608 36.1015C25.9847 36.2151 26.229 36.3797 26.4936 36.5953L28.1435 37.9393L27.0218 39.3162L25.3967 37.9924C24.9915 37.6623 24.6609 37.6544 24.4049 37.9687C24.2701 38.1341 24.2254 38.2903 24.2708 38.4373C24.3146 38.5693 24.444 38.7228 24.659 38.898L30.1421 43.3644C30.5639 43.708 30.896 43.7309 31.1386 43.4332C31.3878 43.1272 31.3057 42.8058 30.8922 42.469Z" fill="#E6FF0D"/>
<path d="M36.9491 39.2465L35.17 37.8644L34.2482 38.8203L35.7051 40.5364L34.5834 41.6996L27.025 32.3886L28.5133 30.8454L38.1597 37.9911L36.9491 39.2465ZM30.2578 34.0612L33.103 37.4493L33.7583 36.7698L30.2578 34.0612Z" fill="#E6FF0D"/>
<path d="M43.6255 32.98L36.483 23.4569L38.7614 21.7481C39.3247 21.3257 39.8164 21.1636 40.2367 21.2617C40.6655 21.3535 41.0687 21.6511 41.4463 22.1545L42.5407 23.6137C43.0655 24.3134 43.1562 24.9321 42.8127 25.4697C43.5274 25.267 44.1535 25.5241 44.6912 26.2409L46.2368 28.3017C46.64 28.8393 46.832 29.3619 46.8128 29.8697C46.7957 30.3624 46.5269 30.804 46.0064 31.1944L43.6255 32.98ZM42.2527 27.2297L41.8175 27.556L44.0639 30.5512L44.4991 30.2248C44.721 30.0584 44.832 29.8952 44.832 29.7352C44.832 29.5752 44.7488 29.3843 44.5823 29.1624L43.2767 27.4217C43.1167 27.2083 42.9631 27.0835 42.8159 27.0473C42.6623 27.0025 42.4746 27.0633 42.2527 27.2297ZM39.3343 23.3385L38.899 23.6649L40.7519 26.1353L41.1871 25.8089C41.5199 25.5593 41.5199 25.2126 41.1871 24.7689L40.2847 23.5657C40.1247 23.3524 39.9711 23.2276 39.8239 23.1913C39.6852 23.1486 39.522 23.1977 39.3343 23.3385Z" fill="#E6FF0D"/>
<path d="M47.8749 18.721L51.3983 24.3491C52.3888 25.9313 52.233 27.1299 50.9311 27.9449L50.6734 28.1062C49.3534 28.9325 48.1981 28.5545 47.2076 26.9723L43.6927 21.3578C42.7249 19.8118 42.8965 18.6284 44.2075 17.8078L44.4651 17.6465C45.1704 17.205 45.7967 17.0898 46.3441 17.3008C46.9005 17.5062 47.4108 17.9796 47.8749 18.721ZM49.9066 25.4339L46.2728 19.6295C45.9502 19.1141 45.6126 18.9668 45.26 19.1875C44.8983 19.4139 44.8788 19.7848 45.2014 20.3001L48.8352 26.1045C49.1578 26.6199 49.5044 26.7615 49.8751 26.5295C50.2187 26.3144 50.2292 25.9492 49.9066 25.4339Z" fill="#E6FF0D"/>
<path d="M54.0226 25.8278L48.5834 15.2391L51.0456 13.9744C51.7003 13.6381 52.2554 13.5748 52.7109 13.7846C53.1615 13.9848 53.5574 14.417 53.8986 15.0812L57.2103 21.5283C57.9317 22.9325 57.6898 23.9441 56.4848 24.5631L54.0226 25.8278ZM50.9301 15.8505L54.8413 23.4646L55.2256 23.2672C55.4628 23.1454 55.5924 23.0009 55.6145 22.8337C55.6411 22.6521 55.5789 22.4143 55.4278 22.1201L52.3646 16.1569C52.2086 15.8533 52.0563 15.6617 51.9075 15.5822C51.7588 15.5027 51.5847 15.5142 51.3855 15.6165L50.9301 15.8505Z" fill="#E6FF0D"/>
<path d="M59.6624 10.0435L60.8623 17.0799L62.7543 21.6476L61.0839 22.3394L59.1858 17.7569L55.0207 11.9659L56.6468 11.2925L59.1176 15.0836L58.1546 10.668L59.6624 10.0435Z" fill="#E6FF0D"/>
<path d="M66.9634 17.5205L66.1089 14.8876L67.7982 14.3394L68.6477 16.957C69.1779 18.5905 68.7581 19.6295 67.3884 20.074L67.0079 20.1974C65.5977 20.6551 64.6341 20.0875 64.1171 18.4946L61.8747 11.5854C61.6639 10.9361 61.6517 10.3457 61.8381 9.81419C62.0212 9.27256 62.4729 8.88486 63.1933 8.65109L63.5889 8.52268C64.0354 8.3778 64.4271 8.32357 64.7641 8.35998C65.1113 8.3931 65.392 8.51507 65.6062 8.72591C65.8204 8.93675 65.9873 9.15734 66.1069 9.38766C66.2334 9.60455 66.3493 9.87532 66.4547 10.2L67.1116 12.2241L65.4223 12.7723L64.7753 10.7786C64.614 10.2815 64.3405 10.0955 63.955 10.2206C63.7521 10.2865 63.6298 10.3934 63.5881 10.5415C63.5533 10.6762 63.5787 10.8754 63.6643 11.1392L65.8475 17.8658C66.0154 18.3832 66.282 18.5827 66.6472 18.4641C67.0226 18.3423 67.128 18.0277 66.9634 17.5205Z" fill="#E6FF0D"/>
<path d="M74.1371 18.0158L73.3999 15.8871L72.1058 16.1854L72.3909 18.4185L70.8162 18.7816L69.5601 6.85484L71.6493 6.37312L75.8365 17.624L74.1371 18.0158ZM71.3573 10.02L71.8939 14.4117L72.8137 14.1996L71.3573 10.02Z" fill="#E6FF0D"/>
<path d="M82.5869 16.4746L81.7609 4.59929L84.6021 4.40169C85.3044 4.35285 85.8053 4.48374 86.1049 4.79437C86.4152 5.10425 86.5922 5.57311 86.6358 6.20092L86.7624 8.02053C86.8231 8.89309 86.5632 9.46182 85.9829 9.72672C86.6931 9.94464 87.0792 10.5005 87.1414 11.3944L87.3201 13.9642C87.3668 14.6345 87.2442 15.1777 86.9523 15.5936C86.6704 15.9981 86.2049 16.223 85.5558 16.2681L82.5869 16.4746ZM84.5569 10.9005L84.0142 10.9382L84.274 14.6732L84.8167 14.6355C85.0934 14.6162 85.2751 14.5394 85.362 14.4051C85.4489 14.2707 85.4827 14.0652 85.4635 13.7885L85.3125 11.6178C85.294 11.3518 85.2328 11.1636 85.1289 11.0532C85.0242 10.9321 84.8336 10.8812 84.5569 10.9005ZM84.2194 6.04821L83.6767 6.08595L83.891 9.16651L84.4337 9.12877C84.8487 9.09991 85.0369 8.80881 84.9984 8.25548L84.8941 6.7551C84.8756 6.48908 84.8144 6.30087 84.7105 6.19048C84.6172 6.07935 84.4535 6.03193 84.2194 6.04821Z" fill="#E6FF0D"/>
<path d="M94.5287 6.80433L94.4005 13.4431C94.3645 15.3094 93.5786 16.2278 92.0429 16.1981L91.739 16.1922C90.1819 16.1622 89.4214 15.214 89.4574 13.3477L89.5853 6.72492C89.6205 4.90126 90.4113 4.00436 91.9576 4.0342L92.2616 4.04007C93.0934 4.05613 93.6808 4.30217 94.0237 4.77821C94.3772 5.25446 94.5455 5.92983 94.5287 6.80433ZM92.5584 13.5356L92.6905 6.68884C92.7023 6.08095 92.5002 5.773 92.0843 5.76497C91.6577 5.75674 91.4385 6.05656 91.4268 6.66445L91.2946 13.5112C91.2829 14.1191 91.4956 14.4272 91.9329 14.4357C92.3382 14.4435 92.5466 14.1435 92.5584 13.5356Z" fill="#E6FF0D"/>
<path d="M95.9491 16.1261L97.186 4.2865L99.939 4.5741C100.671 4.65057 101.17 4.90115 101.437 5.32582C101.705 5.73988 101.8 6.31822 101.722 7.06085L100.969 14.2696C100.805 15.8397 100.049 16.5544 98.7021 16.4137L95.9491 16.1261ZM98.8163 6.08161L97.9268 14.5953L98.3565 14.6402C98.6217 14.6679 98.8093 14.6177 98.9192 14.4898C99.0408 14.3524 99.1187 14.1192 99.1531 13.7903L99.8497 7.12262C99.8852 6.78313 99.8624 6.53944 99.7813 6.39155C99.7002 6.24366 99.5483 6.15808 99.3255 6.13481L98.8163 6.08161Z" fill="#E6FF0D"/>
<path d="M109.16 5.96544L106.325 12.5163L105.417 17.3763L103.639 17.0443L104.55 12.1686L104.221 5.04306L105.951 5.36619L105.952 9.89132L107.555 5.66581L109.16 5.96544Z" fill="#E6FF0D"/>
<path d="M111.382 16.2624L112.106 13.5908L113.82 14.0553L113.101 16.7115C112.651 18.369 111.732 19.0095 110.342 18.6328L109.956 18.5282C108.525 18.1404 108.028 17.1383 108.466 15.522L110.366 8.51088C110.545 7.85198 110.857 7.35096 111.304 7.00784C111.754 6.65441 112.344 6.57674 113.075 6.77482L113.476 6.88363C113.929 7.00638 114.287 7.17513 114.549 7.38988C114.822 7.60741 114.99 7.86301 115.054 8.15666C115.118 8.45031 115.137 8.72626 115.112 8.9845C115.099 9.23524 115.048 9.52534 114.959 9.85479L114.402 11.9087L112.688 11.4442L113.236 9.42116C113.373 8.91669 113.246 8.61145 112.854 8.50544C112.648 8.44964 112.488 8.47235 112.372 8.57358C112.269 8.6673 112.181 8.84799 112.109 9.11567L110.259 15.9415C110.117 16.4665 110.231 16.7793 110.601 16.8797C110.982 16.9829 111.243 16.7772 111.382 16.2624Z" fill="#E6FF0D"/>
<path d="M117.065 20.5844L117.611 18.3987L116.364 17.9415L115.383 19.9675L113.865 19.4111L119.331 8.7361L121.344 9.47419L118.703 21.1847L117.065 20.5844ZM119.106 12.3689L117.156 16.3402L118.042 16.6652L119.106 12.3689Z" fill="#E6FF0D"/>
<path d="M125.283 24.0799L131.11 13.6994L133.594 15.0934C134.208 15.4379 134.555 15.8223 134.635 16.2463C134.724 16.6757 134.614 17.1647 134.306 17.7135L133.414 19.304C132.986 20.0668 132.456 20.3996 131.826 20.3026C132.3 20.8745 132.317 21.5511 131.879 22.3324L130.618 24.5787C130.289 25.1647 129.888 25.5515 129.416 25.739C128.959 25.9225 128.446 25.8549 127.879 25.5365L125.283 24.0799ZM129.989 20.5012L129.515 20.235L127.682 23.4998L128.157 23.7661C128.399 23.9018 128.593 23.9374 128.739 23.8727C128.885 23.8081 129.027 23.6549 129.162 23.413L130.227 21.5155C130.358 21.283 130.41 21.0921 130.384 20.9428C130.363 20.7842 130.231 20.637 129.989 20.5012ZM132.37 16.2598L131.896 15.9935L130.384 18.6863L130.859 18.9525C131.221 19.1562 131.539 19.0161 131.81 18.5324L132.546 17.2209C132.677 16.9884 132.729 16.7975 132.703 16.6482C132.686 16.5041 132.575 16.3746 132.37 16.2598Z" fill="#E6FF0D"/>
<path d="M140.072 22.2285L136.345 27.7236C135.297 29.2685 134.138 29.6098 132.866 28.7476L132.615 28.577C131.326 27.7028 131.206 26.4934 132.253 24.9485L135.972 19.4666C136.996 17.9571 138.147 17.6364 139.428 18.5045L139.679 18.6752C140.368 19.1422 140.726 19.6687 140.754 20.2547C140.79 20.8467 140.563 21.5046 140.072 22.2285ZM134.75 26.7968L138.594 21.1294C138.936 20.6263 138.934 20.2579 138.59 20.0244C138.237 19.7849 137.89 19.9168 137.548 20.4199L133.704 26.0873C133.363 26.5904 133.373 26.9648 133.735 27.2102C134.071 27.4378 134.409 27.2999 134.75 26.7968Z" fill="#E6FF0D"/>
<path d="M136.019 30.7039L143.503 21.4474L145.656 23.1877C146.228 23.6505 146.511 24.1326 146.503 24.6339C146.502 25.127 146.267 25.6639 145.797 26.2445L141.24 31.8805C140.247 33.108 139.224 33.2959 138.171 32.4442L136.019 30.7039ZM143.893 23.8408L138.511 30.4969L138.847 30.7686C139.054 30.9362 139.239 30.9963 139.401 30.9489C139.578 30.8998 139.77 30.7467 139.978 30.4896L144.193 25.2766C144.408 25.0112 144.521 24.7944 144.534 24.6262C144.546 24.458 144.466 24.3035 144.291 24.1627L143.893 23.8408Z" fill="#E6FF0D"/>
<path d="M152.623 29.3719L146.68 33.3257L143.274 36.9093L141.964 35.6638L145.381 32.0686L148.982 25.911L150.257 27.1234L147.796 30.9207L151.44 28.2477L152.623 29.3719Z" fill="#E6FF0D"/>
<path d="M148.984 39.3227L151.045 37.475L152.231 38.7974L150.181 40.6344C148.903 41.7807 147.783 41.8178 146.821 40.7456L146.554 40.4478C145.565 39.3438 145.693 38.2329 146.94 37.1151L152.349 32.2662C152.857 31.8105 153.392 31.5602 153.954 31.5153C154.523 31.4633 155.06 31.7193 155.566 32.2831L155.844 32.5929C156.157 32.9423 156.365 33.2785 156.469 33.6014C156.579 33.9322 156.581 34.2382 156.475 34.5195C156.369 34.8007 156.235 35.0427 156.073 35.2453C155.926 35.4488 155.725 35.6645 155.471 35.8923L153.887 37.3128L152.701 35.9905L154.262 34.5913C154.651 34.2424 154.71 33.9171 154.44 33.6153C154.297 33.4565 154.15 33.388 153.998 33.4099C153.86 33.4326 153.688 33.5366 153.482 33.7217L148.216 38.4424C147.811 38.8055 147.737 39.13 147.993 39.4159C148.257 39.7098 148.587 39.6787 148.984 39.3227Z" fill="#E6FF0D"/>
<path d="M151.239 45.8321L152.881 44.2901L152.08 43.2306L150.158 44.4024L149.184 43.1132L159.559 37.0979L160.852 38.8084L152.29 47.2234L151.239 45.8321ZM157.403 40.0305L153.613 42.3131L154.182 43.0662L157.403 40.0305Z" fill="#E6FF0D"/>
<path d="M156.212 53.1147L166.719 47.5197L168.057 50.0335C168.388 50.6549 168.473 51.1657 168.311 51.5659C168.155 51.9755 167.799 52.3282 167.244 52.624L165.634 53.4813C164.862 53.8924 164.236 53.887 163.758 53.465C163.848 54.2023 163.498 54.7816 162.707 55.2027L160.433 56.4134C159.84 56.7293 159.294 56.8387 158.796 56.7418C158.311 56.6492 157.916 56.3158 157.61 55.7415L156.212 53.1147ZM162.105 52.6414L161.849 52.1612L158.544 53.9209L158.8 54.4011C158.93 54.6459 159.075 54.7806 159.233 54.8051C159.391 54.8297 159.592 54.7768 159.837 54.6465L161.758 53.6237C161.993 53.4984 162.14 53.3658 162.198 53.2259C162.266 53.081 162.235 52.8862 162.105 52.6414ZM166.398 50.3553L166.142 49.8751L163.417 51.3265L163.672 51.8067C163.868 52.1738 164.21 52.2271 164.7 51.9664L166.027 51.2595C166.263 51.1341 166.41 51.0015 166.468 50.8617C166.532 50.7312 166.508 50.5624 166.398 50.3553Z" fill="#E6FF0D"/>
<path d="M169.704 59.6314L163.598 62.2408C161.882 62.9744 160.722 62.6349 160.118 61.2225L159.998 60.943C159.386 59.5109 159.939 58.4282 161.655 57.6946L167.746 55.0915C169.423 54.3748 170.566 54.7275 171.174 56.1497L171.293 56.4292C171.62 57.1943 171.637 57.8309 171.344 58.339C171.055 58.8569 170.508 59.2877 169.704 59.6314ZM162.757 60.5992L169.054 57.9081C169.613 57.6691 169.811 57.3584 169.648 56.9759C169.48 56.5835 169.117 56.5068 168.558 56.7458L162.261 59.4369C161.701 59.6758 161.508 59.9963 161.68 60.3985C161.839 60.7712 162.198 60.8381 162.757 60.5992Z" fill="#E6FF0D"/>
<path d="M161.777 64.7462L173.086 61.029L173.95 63.6586C174.18 64.3578 174.156 64.9159 173.877 65.333C173.609 65.7468 173.12 66.0703 172.411 66.3034L165.525 68.5667C164.026 69.0597 163.064 68.6627 162.641 67.3758L161.777 64.7462ZM172.115 63.2512L163.983 65.9242L164.118 66.3346C164.201 66.5879 164.324 66.7385 164.485 66.7864C164.661 66.8411 164.905 66.8169 165.219 66.7136L171.588 64.6202C171.912 64.5136 172.125 64.3931 172.227 64.2586C172.329 64.1241 172.345 63.9504 172.275 63.7376L172.115 63.2512Z" fill="#E6FF0D"/>
<path d="M176.488 72.8536L169.351 72.9282L164.542 74.0757L164.122 72.3171L168.947 71.1659L175.322 67.9668L175.731 69.6787L171.597 71.5204L176.11 71.2661L176.488 72.8536Z" fill="#E6FF0D"/>
<path d="M167.987 79.126L170.722 78.7014L170.995 80.4564L168.275 80.8785C166.578 81.142 165.619 80.5622 165.398 79.1393L165.337 78.744C165.11 77.2789 165.823 76.4179 167.478 76.161L174.656 75.0466C175.331 74.9419 175.916 75.0238 176.411 75.2924C176.916 75.5593 177.227 76.067 177.343 76.8154L177.407 77.2264C177.479 77.6902 177.47 78.0856 177.381 78.4125C177.293 78.75 177.128 79.0077 176.886 79.1856C176.643 79.3636 176.399 79.4933 176.153 79.5747C175.918 79.665 175.633 79.7364 175.295 79.7887L173.192 80.1152L172.92 78.3602L174.991 78.0387C175.508 77.9585 175.735 77.7181 175.673 77.3176C175.64 77.1068 175.554 76.969 175.414 76.9044C175.287 76.8486 175.086 76.842 174.812 76.8845L167.824 77.9694C167.286 78.0528 167.047 78.2843 167.106 78.6637C167.166 79.0537 167.46 79.2078 167.987 79.126Z" fill="#E6FF0D"/>
<path d="M166.327 85.8955L168.545 85.5007L168.453 84.1759L166.203 84.1079L166.091 82.4958L178.067 83.1223L178.216 85.2612L166.448 87.6353L166.327 85.8955ZM174.66 84.4018L170.238 84.2442L170.303 85.1859L174.66 84.4018Z" fill="#E6FF0D"/>
</svg>
