<svg width="165" height="165" viewBox="0 0 165 165" fill="none" xmlns="http://www.w3.org/2000/svg">
<path d="M149.579 82.1762L161.474 82.6355L161.364 85.4814C161.337 86.1849 161.153 86.6688 160.812 86.9332C160.47 87.2082 159.985 87.3336 159.356 87.3093L157.534 87.2389C156.66 87.2052 156.122 86.8855 155.921 86.28C155.628 86.9625 155.034 87.2865 154.139 87.2519L151.564 87.1525C150.893 87.1266 150.366 86.9461 149.984 86.6112C149.612 86.2872 149.439 85.8002 149.464 85.15L149.579 82.1762ZM154.908 84.7357L154.929 84.1921L151.188 84.0477L151.167 84.5913C151.156 84.8684 151.213 85.0574 151.337 85.1583C151.461 85.2591 151.662 85.3149 151.939 85.3256L154.114 85.4096C154.38 85.4199 154.574 85.3793 154.695 85.2879C154.826 85.1969 154.898 85.0129 154.908 84.7357ZM159.769 84.9234L159.79 84.3798L156.704 84.2607L156.683 84.8043C156.667 85.22 156.936 85.4385 157.49 85.4599L158.993 85.5179C159.26 85.5282 159.453 85.4877 159.574 85.3963C159.695 85.3155 159.76 85.1579 159.769 84.9234Z" fill="black"/>
<path d="M157.969 93.9359L151.38 93.1192C149.527 92.8896 148.695 92.0126 148.884 90.4883L148.922 90.1866C149.113 88.6411 150.135 87.9831 151.988 88.2127L158.561 89.0275C160.372 89.2518 161.182 90.1315 160.991 91.6664L160.954 91.9681C160.852 92.7938 160.546 93.3524 160.037 93.644C159.526 93.9462 158.837 94.0435 157.969 93.9359ZM151.479 91.2774L158.275 92.1197C158.878 92.1945 159.206 92.0255 159.257 91.6126C159.309 91.1892 159.034 90.9401 158.43 90.8653L151.634 90.023C151.031 89.9482 150.702 90.1279 150.649 90.5619C150.599 90.9641 150.875 91.2026 151.479 91.2774Z" fill="black"/>
<path d="M148.604 93.771L160.243 96.2685L159.663 98.9749C159.508 99.6945 159.206 100.164 158.755 100.384C158.314 100.606 157.729 100.638 156.999 100.482L149.912 98.961C148.369 98.6298 147.739 97.8019 148.024 96.4774L148.604 93.771ZM158.284 97.6972L149.914 95.9013L149.824 96.3237C149.768 96.5844 149.798 96.7763 149.913 96.8992C150.037 97.0348 150.26 97.1373 150.583 97.2067L157.138 98.6132C157.472 98.6849 157.717 98.6883 157.872 98.6235C158.028 98.5587 158.13 98.4168 158.177 98.1978L158.284 97.6972Z" fill="black"/>
<path d="M157.463 107.181L151.251 103.666L146.515 102.247L147.034 100.515L151.785 101.939L158.905 102.369L158.4 104.055L153.9 103.575L157.931 105.618L157.463 107.181Z" fill="black"/>
<path d="M147.151 107.717L149.732 108.719L149.089 110.375L146.524 109.379C144.923 108.758 144.383 107.776 144.904 106.433L145.048 106.06C145.585 104.678 146.634 104.29 148.195 104.896L154.967 107.524C155.603 107.771 156.068 108.135 156.363 108.615C156.667 109.099 156.682 109.694 156.408 110.4L156.257 110.788C156.087 111.226 155.882 111.563 155.641 111.802C155.396 112.05 155.124 112.19 154.825 112.223C154.526 112.256 154.25 112.246 153.996 112.193C153.748 112.154 153.465 112.073 153.146 111.949L151.162 111.179L151.805 109.524L153.759 110.282C154.246 110.471 154.563 110.377 154.71 109.999C154.787 109.8 154.782 109.638 154.693 109.512C154.611 109.4 154.44 109.293 154.182 109.193L147.589 106.634C147.082 106.438 146.759 106.518 146.62 106.876C146.477 107.244 146.654 107.524 147.151 107.717Z" fill="black"/>
<path d="M142.548 112.143L144.664 112.914L145.249 111.722L143.337 110.534L144.048 109.083L154.095 115.632L153.151 117.557L141.78 113.709L142.548 112.143ZM150.505 115.03L146.759 112.676L146.344 113.524L150.505 115.03Z" fill="black"/>
<path d="M138.779 118.85L148.507 125.711L146.865 128.039C146.46 128.614 146.042 128.92 145.612 128.956C145.175 129 144.7 128.841 144.186 128.479L142.695 127.427C141.98 126.923 141.704 126.363 141.865 125.745C141.247 126.158 140.572 126.106 139.84 125.59L137.735 124.105C137.186 123.718 136.842 123.28 136.704 122.791C136.569 122.317 136.689 121.814 137.064 121.282L138.779 118.85ZM141.856 123.898L142.169 123.454L139.11 121.296L138.796 121.741C138.636 121.967 138.581 122.157 138.63 122.309C138.68 122.461 138.817 122.617 139.044 122.777L140.822 124.031C141.04 124.185 141.225 124.256 141.376 124.245C141.536 124.241 141.696 124.125 141.856 123.898ZM145.831 126.702L146.144 126.257L143.621 124.478L143.307 124.922C143.067 125.262 143.174 125.592 143.627 125.912L144.856 126.778C145.074 126.932 145.259 127.003 145.41 126.993C145.555 126.991 145.695 126.894 145.831 126.702Z" fill="black"/>
<path d="M139.359 133.318L134.288 129.031C132.862 127.826 132.645 126.637 133.637 125.464L133.833 125.232C134.839 124.043 136.054 124.051 137.48 125.256L142.538 129.532C143.931 130.709 144.129 131.889 143.13 133.07L142.934 133.302C142.397 133.938 141.835 134.238 141.25 134.204C140.657 134.178 140.027 133.883 139.359 133.318ZM135.378 127.544L140.608 131.964C141.072 132.357 141.438 132.394 141.707 132.077C141.983 131.751 141.888 131.392 141.424 130.999L136.194 126.578C135.73 126.186 135.356 126.156 135.074 126.49C134.812 126.8 134.914 127.151 135.378 127.544Z" fill="black"/>
<path d="M131.721 127.936L140.138 136.353L138.181 138.31C137.661 138.83 137.152 139.06 136.654 139C136.163 138.947 135.654 138.657 135.126 138.129L130.001 133.004C128.885 131.888 128.806 130.851 129.764 129.893L131.721 127.936ZM137.717 136.489L131.664 130.436L131.359 130.741C131.17 130.93 131.091 131.107 131.121 131.273C131.151 131.454 131.283 131.661 131.517 131.895L136.258 136.636C136.499 136.877 136.703 137.013 136.869 137.043C137.035 137.073 137.197 137.009 137.355 136.851L137.717 136.489Z" fill="black"/>
<path d="M131.837 144.038L128.531 137.713L125.325 133.949L126.702 132.776L129.918 136.553L135.662 140.781L134.322 141.922L130.805 139.075L133.08 142.98L131.837 144.038Z" fill="black"/>
<path d="M122.834 138.927L124.455 141.171L123.015 142.211L121.404 139.979C120.399 138.587 120.48 137.469 121.647 136.627L121.972 136.392C123.174 135.525 124.265 135.77 125.245 137.128L129.497 143.017C129.897 143.571 130.089 144.129 130.075 144.692C130.066 145.264 129.755 145.771 129.141 146.214L128.804 146.458C128.423 146.733 128.067 146.904 127.735 146.973C127.394 147.048 127.09 147.018 126.821 146.883C126.553 146.748 126.326 146.589 126.142 146.406C125.955 146.238 125.762 146.016 125.562 145.739L124.316 144.014L125.756 142.975L126.983 144.674C127.289 145.098 127.606 145.191 127.935 144.954C128.108 144.829 128.192 144.69 128.186 144.536C128.178 144.397 128.093 144.215 127.93 143.99L123.791 138.256C123.472 137.815 123.158 137.707 122.846 137.932C122.526 138.163 122.522 138.495 122.834 138.927Z" fill="black"/>
<path d="M116.577 140.132L117.936 141.928L119.075 141.244L118.113 139.209L119.498 138.377L124.38 149.331L122.542 150.435L115.082 141.03L116.577 140.132ZM121.693 146.876L119.824 142.866L119.015 143.352L121.693 146.876Z" fill="black"/>
<path d="M109.761 143.731L114.192 154.779L111.549 155.839C110.896 156.101 110.379 156.13 109.998 155.927C109.608 155.727 109.295 155.335 109.061 154.751L108.382 153.058C108.057 152.246 108.129 151.625 108.6 151.195C107.857 151.206 107.319 150.795 106.986 149.964L106.027 147.573C105.777 146.949 105.726 146.394 105.877 145.909C106.021 145.438 106.395 145.081 106.999 144.838L109.761 143.731ZM109.597 149.64L110.102 149.438L108.708 145.963L108.203 146.165C107.946 146.269 107.796 146.397 107.755 146.552C107.713 146.707 107.744 146.913 107.848 147.17L108.658 149.19C108.757 149.437 108.873 149.597 109.006 149.671C109.143 149.754 109.34 149.743 109.597 149.64ZM111.408 154.155L111.913 153.952L110.763 151.086L110.258 151.289C109.872 151.443 109.782 151.778 109.989 152.293L110.549 153.689C110.648 153.936 110.764 154.097 110.897 154.17C111.02 154.247 111.19 154.242 111.408 154.155Z" fill="black"/>
<path d="M102.461 156.161L100.531 149.808C99.9887 148.022 100.452 146.906 101.922 146.459L102.213 146.371C103.703 145.918 104.719 146.585 105.262 148.371L107.187 154.709C107.718 156.454 107.243 157.552 105.763 158.001L105.472 158.089C104.676 158.331 104.041 158.279 103.568 157.932C103.085 157.588 102.716 156.998 102.461 156.161ZM102.255 149.151L104.245 155.703C104.422 156.285 104.709 156.515 105.107 156.394C105.516 156.27 105.631 155.917 105.455 155.336L103.464 148.783C103.287 148.202 102.99 147.974 102.571 148.101C102.183 148.219 102.078 148.569 102.255 149.151Z" fill="black"/>
<path d="M98.9519 147.49L101.45 159.129L98.7432 159.71C98.0236 159.864 97.4711 159.781 97.0859 159.46C96.7028 159.15 96.433 158.629 96.2763 157.899L94.7556 150.813C94.4243 149.269 94.921 148.355 96.2455 148.071L98.9519 147.49ZM99.3427 157.929L97.5467 149.559L97.1243 149.65C96.8636 149.706 96.7008 149.812 96.636 149.967C96.5631 150.136 96.5613 150.382 96.6307 150.705L98.0373 157.26C98.1089 157.593 98.2062 157.818 98.3292 157.933C98.4521 158.049 98.6231 158.083 98.8421 158.036L99.3427 157.929Z" fill="black"/>
<path d="M90.3167 161.06L90.978 153.953L90.3322 149.051L92.1247 148.815L92.7726 153.733L95.2977 160.404L93.5528 160.634L92.1469 156.333L91.9348 160.847L90.3167 161.06Z" fill="black"/>
<path d="M85.5491 151.864L85.6879 154.629L83.9141 154.718L83.7761 151.969C83.69 150.254 84.366 149.36 85.8042 149.288L86.2037 149.268C87.6845 149.194 88.4669 149.993 88.5509 151.665L88.9151 158.92C88.9494 159.602 88.8073 160.175 88.4888 160.64C88.1709 161.115 87.6338 161.372 86.8774 161.41L86.4619 161.43C85.9932 161.454 85.6009 161.404 85.285 161.281C84.9584 161.159 84.7192 160.968 84.5673 160.709C84.4155 160.449 84.3118 160.193 84.2564 159.939C84.1908 159.697 84.1494 159.405 84.1323 159.064L84.0256 156.939L85.7994 156.85L85.9045 158.943C85.9307 159.465 86.1462 159.716 86.551 159.696C86.7641 159.685 86.91 159.614 86.9888 159.482C87.0575 159.361 87.0849 159.162 87.071 158.885L86.7164 151.822C86.6891 151.278 86.4837 151.016 86.1002 151.035C85.706 151.055 85.5223 151.332 85.5491 151.864Z" fill="black"/>
<path d="M79.3768 149.46L79.5302 151.708L80.8572 151.759L81.1675 149.53L82.7823 149.592L80.868 161.431L78.7256 161.348L77.6341 149.393L79.3768 149.46ZM79.9634 157.905L80.5968 153.526L79.6535 153.49L79.9634 157.905Z" fill="black"/>
<path d="M71.6939 148.745L69.3742 160.421L66.5808 159.866C65.8903 159.729 65.4412 159.471 65.2337 159.093C65.0156 158.712 64.9679 158.213 65.0905 157.596L65.446 155.807C65.6164 154.949 66.0164 154.469 66.646 154.365C66.0179 153.969 65.7911 153.331 65.9657 152.452L66.4677 149.925C66.5987 149.266 66.8595 148.774 67.2503 148.45C67.6285 148.133 68.1368 148.038 68.7749 148.165L71.6939 148.745ZM68.33 153.607L68.8636 153.713L69.5932 150.041L69.0596 149.935C68.7876 149.881 68.592 149.907 68.4729 150.014C68.3538 150.121 68.2673 150.31 68.2132 150.582L67.7892 152.716C67.7372 152.978 67.7469 153.176 67.8182 153.309C67.8874 153.454 68.058 153.553 68.33 153.607ZM67.3822 158.378L67.9158 158.484L68.5175 155.455L67.9839 155.349C67.5759 155.268 67.3179 155.499 67.2098 156.043L66.9167 157.518C66.8647 157.78 66.8744 157.978 66.9457 158.111C67.0065 158.243 67.152 158.332 67.3822 158.378Z" fill="black"/>
<path d="M58.8099 155.189L60.6437 148.808C61.1592 147.014 62.1551 146.329 63.6314 146.753L63.9236 146.837C65.4203 147.267 65.911 148.379 65.3955 150.173L63.5661 156.539C63.0624 158.292 62.0672 158.955 60.5807 158.528L60.2885 158.444C59.4889 158.215 58.9847 157.826 58.776 157.277C58.5571 156.726 58.5684 156.03 58.8099 155.189ZM62.4475 149.193L60.5563 155.774C60.3884 156.359 60.5043 156.708 60.9041 156.823C61.3142 156.941 61.6032 156.708 61.7711 156.123L63.6624 149.542C63.8303 148.957 63.7041 148.605 63.2837 148.484C62.8942 148.372 62.6154 148.608 62.4475 149.193Z" fill="black"/>
<path d="M60.6008 146.004L56.3352 157.117L53.751 156.125C53.0638 155.862 52.6466 155.49 52.4992 155.011C52.348 154.542 52.4062 153.958 52.6737 153.261L55.2709 146.495C55.8366 145.021 56.7518 144.527 58.0165 145.012L60.6008 146.004ZM55.2263 154.961L58.2936 146.969L57.8903 146.814C57.6413 146.719 57.4472 146.719 57.3079 146.814C57.1548 146.915 57.019 147.12 56.9005 147.428L54.4982 153.687C54.3759 154.006 54.3347 154.247 54.3747 154.411C54.4146 154.575 54.5391 154.697 54.7483 154.777L55.2263 154.961Z" fill="black"/>
<path d="M45.9446 152.644L50.3903 147.06L52.5344 142.605L54.1636 143.389L52.0125 147.858L50.4716 154.823L48.8857 154.06L50.065 149.691L47.4152 153.352L45.9446 152.644Z" fill="black"/>
<path d="M47.0025 142.356L45.6122 144.75L44.0764 143.858L45.4587 141.478C46.3213 139.993 47.3752 139.612 48.6204 140.335L48.9663 140.536C50.2484 141.281 50.4689 142.377 49.6277 143.826L45.9791 150.107C45.6362 150.697 45.2047 151.1 44.6845 151.316C44.159 151.541 43.5688 151.464 42.9139 151.083L42.5542 150.874C42.1483 150.639 41.8465 150.383 41.6486 150.108C41.4416 149.827 41.3451 149.537 41.3591 149.237C41.3731 148.936 41.426 148.665 41.5177 148.422C41.5948 148.183 41.7191 147.916 41.8905 147.621L42.9594 145.781L44.4951 146.673L43.4423 148.485C43.1798 148.937 43.2238 149.265 43.5743 149.469C43.7588 149.576 43.92 149.595 44.0581 149.528C44.1816 149.464 44.313 149.312 44.4523 149.072L48.0045 142.957C48.2777 142.486 48.2483 142.155 47.9163 141.962C47.575 141.764 47.2704 141.895 47.0025 142.356Z" fill="black"/>
<path d="M43.3533 137.114L42.2583 139.082L43.3435 139.848L44.8177 138.146L46.1383 139.078L38.0872 147.966L36.3351 146.731L41.9281 136.108L43.3533 137.114ZM39.2477 144.517L42.163 141.188L41.3916 140.644L39.2477 144.517Z" fill="black"/>
<path d="M37.3302 132.355L29.0358 140.894L26.9929 138.91C26.4879 138.419 26.2511 137.959 26.2826 137.528C26.3064 137.09 26.5375 136.646 26.976 136.194L28.2469 134.886C28.8564 134.259 29.4534 134.073 30.0379 134.328C29.7264 133.654 29.8828 132.995 30.5071 132.353L32.302 130.505C32.7702 130.023 33.2566 129.752 33.7611 129.692C34.2506 129.632 34.7287 129.828 35.1954 130.282L37.3302 132.355ZM31.8637 134.607L32.254 134.986L34.8627 132.301L34.4724 131.922C34.2735 131.728 34.095 131.644 33.937 131.669C33.7789 131.694 33.6033 131.806 33.41 132.005L31.8939 133.566C31.7081 133.757 31.6087 133.928 31.5958 134.079C31.5755 134.238 31.6648 134.414 31.8637 134.607ZM28.4746 138.096L28.8649 138.475L31.0165 136.26L30.6263 135.881C30.3279 135.591 29.9854 135.645 29.5989 136.043L28.551 137.122C28.3652 137.313 28.2659 137.484 28.253 137.635C28.2324 137.779 28.3063 137.933 28.4746 138.096Z" fill="black"/>
<path d="M23.0291 130.781L28.0372 126.422C29.445 125.196 30.6533 125.162 31.6619 126.321L31.8615 126.55C32.8841 127.725 32.6915 128.925 31.2836 130.15L26.2876 134.5C24.9119 135.697 23.7163 135.713 22.7007 134.546L22.501 134.317C21.9547 133.69 21.743 133.089 21.8658 132.515C21.9816 131.934 22.3694 131.356 23.0291 130.781ZM29.3419 127.725L24.177 132.222C23.7184 132.621 23.6257 132.977 23.8989 133.291C24.1791 133.613 24.5484 133.574 25.007 133.175L30.1719 128.679C30.6305 128.279 30.7162 127.915 30.429 127.585C30.1629 127.279 29.8005 127.326 29.3419 127.725Z" fill="black"/>
<path d="M29.4764 124L19.8497 131.002L18.2214 128.764C17.7884 128.169 17.6406 127.63 17.7778 127.148C17.9063 126.672 18.2725 126.214 18.8763 125.775L24.7377 121.511C26.0144 120.583 27.0512 120.666 27.8481 121.762L29.4764 124ZM20.093 128.59L27.0154 123.555L26.7612 123.205C26.6044 122.99 26.4416 122.884 26.273 122.888C26.0895 122.889 25.8641 122.987 25.5966 123.182L20.1752 127.125C19.8991 127.326 19.7333 127.506 19.6776 127.665C19.622 127.824 19.66 127.995 19.7918 128.176L20.093 128.59Z" fill="black"/>
<path d="M13.6144 121.727L20.3715 119.426L24.5813 116.833L25.5294 118.373L21.3059 120.974L16.2489 126.004L15.326 124.506L18.6772 121.465L14.4702 123.116L13.6144 121.727Z" fill="black"/>
<path d="M20.0422 113.596L17.5753 114.852L16.7697 113.269L19.2223 112.021C20.7528 111.242 21.8447 111.494 22.4979 112.777L22.6793 113.134C23.3519 114.455 22.942 115.496 21.4495 116.255L14.9758 119.55C14.3674 119.86 13.7861 119.964 13.232 119.863C12.6684 119.767 12.2148 119.382 11.8713 118.707L11.6826 118.336C11.4697 117.918 11.3549 117.539 11.3381 117.201C11.3165 116.853 11.3931 116.556 11.5679 116.312C11.7426 116.067 11.9344 115.868 12.1432 115.714C12.3376 115.555 12.587 115.398 12.8912 115.243L14.7877 114.278L15.5933 115.861L13.7253 116.812C13.2595 117.049 13.1186 117.348 13.3024 117.709C13.3992 117.899 13.524 118.003 13.6768 118.021C13.8152 118.035 14.008 117.978 14.2552 117.852L20.5578 114.645C21.0426 114.398 21.1979 114.103 21.0237 113.761C20.8447 113.409 20.5175 113.355 20.0422 113.596Z" fill="black"/>
<path d="M19.8247 107.237L17.839 108.301L18.338 109.531L20.498 108.897L21.1052 110.395L9.52632 113.518L8.72071 111.531L19.1693 105.62L19.8247 107.237ZM12.368 111.244L16.6199 110.021L16.2652 109.146L12.368 111.244Z" fill="black"/>
<path d="M17.3145 99.8991L5.70475 102.53L5.07537 99.752C4.9198 99.0654 4.97261 98.5503 5.23382 98.2068C5.49266 97.8528 5.92898 97.6063 6.54275 97.4673L8.32166 97.0642C9.17471 96.8709 9.77646 97.0408 10.1269 97.5739C10.2338 96.8388 10.7241 96.3722 11.598 96.1742L14.1103 95.605C14.7657 95.4565 15.3212 95.4947 15.7768 95.7196C16.2197 95.9364 16.513 96.3621 16.6568 96.9967L17.3145 99.8991ZM11.5048 98.8038L11.625 99.3344L15.2765 98.5071L15.1562 97.9765C15.095 97.706 14.9913 97.5381 14.8452 97.4728C14.6992 97.4074 14.4909 97.4054 14.2204 97.4667L12.0982 97.9475C11.8382 98.0064 11.6615 98.0957 11.5683 98.2152C11.4647 98.3372 11.4435 98.5333 11.5048 98.8038ZM6.76103 99.8786L6.88125 100.409L9.89292 99.7268L9.7727 99.1963C9.68077 98.7906 9.36433 98.649 8.82337 98.7715L7.35655 99.1039C7.09647 99.1628 6.91983 99.2521 6.82661 99.3716C6.73103 99.4808 6.70918 99.6498 6.76103 99.8786Z" fill="black"/>
<path d="M6.18816 90.828L12.7644 89.9102C14.6132 89.6522 15.6437 90.2838 15.856 91.805L15.8981 92.1061C16.1133 93.6485 15.2966 94.5487 13.4479 94.8067L6.88746 95.7224C5.08097 95.9745 4.07082 95.3346 3.85701 93.8028L3.81498 93.5017C3.69997 92.6777 3.85055 92.059 4.26671 91.6455C4.68141 91.2214 5.32189 90.9489 6.18816 90.828ZM13.1455 91.7148L6.36329 92.6614C5.76112 92.7455 5.48879 92.9935 5.5463 93.4055C5.60528 93.8281 5.93586 93.9973 6.53802 93.9133L13.3203 92.9667C13.9224 92.8827 14.1933 92.6241 14.1328 92.1909C14.0768 91.7895 13.7477 91.6308 13.1455 91.7148Z" fill="black"/>
<path d="M15.2932 88.7332L3.40657 89.376L3.25711 86.612C3.21737 85.8771 3.38619 85.3445 3.76358 85.0143C4.13032 84.6847 4.68647 84.4997 5.43205 84.4594L12.6695 84.0681C14.2458 83.9829 15.0706 84.6166 15.1437 85.9693L15.2932 88.7332ZM4.92259 87.4834L13.4701 87.0212L13.4468 86.5898C13.4324 86.3235 13.3534 86.1462 13.2097 86.0578C13.0548 85.9594 12.8123 85.9191 12.4821 85.9369L5.7879 86.2989C5.44706 86.3173 5.21 86.3782 5.07672 86.4816C4.94344 86.5849 4.88285 86.7484 4.89494 86.9721L4.92259 87.4834Z" fill="black"/>
<path d="M3.22887 77.8986L10.1435 79.67L15.0857 79.8036L15.0369 81.6109L10.0787 81.4769L3.09314 82.9207L3.14069 81.1614L7.60954 80.4498L3.18478 79.53L3.22887 77.8986Z" fill="black"/>
<path d="M13.0568 74.5079L10.3049 74.2097L10.4963 72.444L13.2322 72.7405C14.9396 72.9255 15.7157 73.7338 15.5605 75.1654L15.5174 75.5631C15.3577 77.0371 14.4454 77.6839 12.7805 77.5035L5.55874 76.721C4.88004 76.6475 4.33639 76.4169 3.92777 76.0293C3.50854 75.6405 3.33973 75.0697 3.42132 74.3168L3.46613 73.9032C3.5167 73.4366 3.62757 73.057 3.79876 72.7644C3.97109 72.4612 4.19729 72.255 4.47734 72.1459C4.7574 72.0368 5.02698 71.9748 5.28608 71.9599C5.53574 71.9333 5.83023 71.9384 6.16958 71.9752L8.2852 72.2044L8.09386 73.9701L6.01006 73.7443C5.49043 73.688 5.20879 73.8613 5.16512 74.2643C5.14213 74.4764 5.18967 74.6318 5.30773 74.7304C5.41634 74.8173 5.6085 74.8756 5.88422 74.9055L12.9151 75.6673C13.4559 75.726 13.747 75.5644 13.7884 75.1826C13.8309 74.7902 13.587 74.5653 13.0568 74.5079Z" fill="black"/>
<path d="M16.3289 69.1292L14.0843 68.9367L13.8305 70.2402L15.9864 70.8882L15.6775 72.4744L4.27118 68.7703L4.68094 66.6658L16.6622 67.4174L16.3289 69.1292ZM7.89366 68.4161L12.1239 69.7124L12.3043 68.7858L7.89366 68.4161Z" fill="black"/>
<path d="M18.259 61.4963L7.09811 57.3564L8.08865 54.6862C8.3335 54.0262 8.65917 53.6236 9.06565 53.4786C9.47585 53.3236 9.97597 53.3555 10.566 53.5744L12.2762 54.2087C13.0962 54.5129 13.5074 54.984 13.5097 55.6219C14.0008 55.0646 14.6664 54.9418 15.5065 55.2534L17.9217 56.1492C18.5517 56.383 18.9961 56.7184 19.2549 57.1557C19.5073 57.5793 19.5204 58.0961 19.2941 58.7061L18.259 61.4963ZM13.9916 57.4048L13.8024 57.9149L17.3127 59.217L17.5019 58.7069C17.5984 58.4469 17.6033 58.2496 17.5167 58.1151C17.4301 57.9806 17.2567 57.8651 16.9967 57.7686L14.9566 57.0119C14.7065 56.9191 14.5098 56.8974 14.3664 56.9466C14.213 56.9921 14.0881 57.1448 13.9916 57.4048ZM9.43127 55.7132L9.24206 56.2233L12.1373 57.2972L12.3265 56.7872C12.4712 56.3972 12.2835 56.1057 11.7635 55.9128L10.3534 55.3897C10.1033 55.297 9.90662 55.2752 9.76322 55.3244C9.62354 55.3636 9.51288 55.4932 9.43127 55.7132Z" fill="black"/>
<path d="M13.7738 48.0715L19.7887 50.8841C21.4797 51.6747 21.9998 52.7658 21.3492 54.1572L21.2204 54.4325C20.5607 55.8432 19.3854 56.1532 17.6944 55.3626L11.694 52.5568C10.0417 51.7842 9.54318 50.6973 10.1984 49.2963L10.3271 49.0209C10.6796 48.2672 11.1429 47.8304 11.7172 47.7103C12.296 47.5806 12.9815 47.701 13.7738 48.0715ZM19.1253 52.605L12.9219 49.7044C12.3712 49.4468 12.0077 49.5065 11.8315 49.8833C11.6507 50.2698 11.8357 50.5918 12.3865 50.8493L18.5898 53.75C19.1406 54.0076 19.5086 53.9382 19.6938 53.5421C19.8655 53.1749 19.676 52.8626 19.1253 52.605Z" fill="black"/>
<path d="M22.7064 50.9591L12.4128 44.9803L13.8031 42.5868C14.1728 41.9503 14.606 41.5975 15.1026 41.5282C15.59 41.4536 16.1566 41.6038 16.8022 41.9788L23.0697 45.6192C24.4348 46.4121 24.7772 47.3942 24.0967 48.5656L22.7064 50.9591ZM14.7183 44.2285L22.1203 48.5278L22.3373 48.1543C22.4712 47.9237 22.5024 47.7321 22.4307 47.5794C22.3551 47.4122 22.1744 47.2455 21.8885 47.0794L16.0914 43.7123C15.7962 43.5409 15.5646 43.4618 15.3964 43.4752C15.2283 43.4886 15.088 43.5921 14.9755 43.7858L14.7183 44.2285Z" fill="black"/>
<path d="M18.2641 35.7L23.0967 40.9532L27.168 43.7581L26.1422 45.2469L22.0577 42.4329L15.4136 39.8371L16.4122 38.3878L20.547 40.2263L17.3381 37.0439L18.2641 35.7Z" fill="black"/>
<path d="M28.3176 38.2406L26.1715 36.4924L27.2932 35.1155L29.4269 36.8536C30.7584 37.9382 30.9694 39.0387 30.0599 40.1551L29.8072 40.4652C28.8708 41.6148 27.7534 41.6607 26.455 40.603L20.823 36.0153C20.2937 35.5842 19.9632 35.0948 19.8315 34.5472C19.6914 33.9929 19.8606 33.4222 20.3389 32.835L20.6016 32.5125C20.8981 32.1486 21.1977 31.8906 21.5006 31.7383C21.8102 31.5778 22.1122 31.528 22.4066 31.5889C22.7009 31.6498 22.9608 31.7446 23.1862 31.8732C23.4101 31.9868 23.6544 32.1513 23.919 32.3669L25.5689 33.7109L24.4472 35.0878L22.8221 33.7641C22.4169 33.434 22.0862 33.426 21.8302 33.7403C21.6955 33.9057 21.6508 34.0619 21.6961 34.2089C21.74 34.3409 21.8694 34.4945 22.0844 34.6696L27.5675 39.136C27.9893 39.4796 28.3214 39.5025 28.5639 39.2048C28.8132 38.8988 28.7311 38.5774 28.3176 38.2406Z" fill="black"/>
<path d="M33.9541 35.5377L32.175 34.1556L31.2532 35.1115L32.7101 36.8276L31.5884 37.9909L24.03 28.6799L25.5183 27.1366L35.1647 34.2823L33.9541 35.5377ZM27.2628 30.3524L30.108 33.7406L30.7633 33.061L27.2628 30.3524Z" fill="black"/>
<path d="M39.7008 30.1682L32.5583 20.6451L34.8367 18.9363C35.3999 18.514 35.8917 18.3518 36.312 18.45C36.7408 18.5417 37.144 18.8393 37.5216 19.3428L38.616 20.8019C39.1408 21.5017 39.2315 22.1203 38.888 22.6579C39.6027 22.4553 40.2288 22.7123 40.7664 23.4291L42.3121 25.4899C42.7153 26.0275 42.9073 26.5502 42.8881 27.0579C42.871 27.5507 42.6022 27.9923 42.0817 28.3826L39.7008 30.1682ZM38.328 24.4179L37.8928 24.7443L40.1392 27.7394L40.5744 27.4131C40.7963 27.2467 40.9072 27.0835 40.9072 26.9235C40.9072 26.7635 40.824 26.5725 40.6576 26.3507L39.352 24.6099C39.192 24.3966 39.0384 24.2718 38.8912 24.2355C38.7376 24.1907 38.5499 24.2515 38.328 24.4179ZM35.4095 20.5267L34.9743 20.8531L36.8272 23.3235L37.2624 22.9971C37.5952 22.7475 37.5952 22.4008 37.2624 21.9571L36.36 20.7539C36.2 20.5406 36.0463 20.4158 35.8991 20.3795C35.7605 20.3369 35.5973 20.3859 35.4095 20.5267Z" fill="black"/>
<path d="M43.4144 16.3137L46.9377 21.9418C47.9282 23.524 47.7725 24.7226 46.4705 25.5376L46.2128 25.6989C44.8928 26.5252 43.7375 26.1473 42.747 24.5651L39.2322 18.9505C38.2643 17.4045 38.4359 16.2212 39.7469 15.4005L40.0046 15.2392C40.7098 14.7977 41.3361 14.6825 41.8835 14.8936C42.44 15.099 42.9502 15.5723 43.4144 16.3137ZM45.446 23.0266L41.8123 17.2222C41.4897 16.7069 41.152 16.5595 40.7994 16.7803C40.4378 17.0067 40.4183 17.3775 40.7409 17.8929L44.3746 23.6973C44.6972 24.2126 45.0439 24.3543 45.4146 24.1222C45.7581 23.9072 45.7686 23.542 45.446 23.0266Z" fill="black"/>
<path d="M48.9937 23.779L43.5545 13.1903L46.0167 11.9256C46.6714 11.5893 47.2264 11.5261 47.6819 11.7358C48.1326 11.936 48.5284 12.3682 48.8696 13.0324L52.1814 19.4795C52.9027 20.8838 52.6609 21.8954 51.4559 22.5143L48.9937 23.779ZM45.9011 13.8017L49.8124 21.4158L50.1966 21.2185C50.4339 21.0966 50.5635 20.9521 50.5855 20.7849C50.6122 20.6033 50.5499 20.3655 50.3988 20.0714L47.3356 14.1081C47.1797 13.8045 47.0273 13.6129 46.8786 13.5335C46.7298 13.454 46.5558 13.4654 46.3566 13.5677L45.9011 13.8017Z" fill="black"/>
<path d="M54.0036 8.31506L55.2035 15.3514L57.0955 19.9191L55.4251 20.6109L53.527 16.0284L49.362 10.2375L50.988 9.56402L53.4588 13.3551L52.4958 8.93954L54.0036 8.31506Z" fill="black"/>
<path d="M60.7787 16.015L59.9242 13.3822L61.6135 12.834L62.463 15.4516C62.9932 17.0851 62.5734 18.124 61.2037 18.5685L60.8233 18.692C59.413 19.1497 58.4494 18.5821 57.9324 16.9892L55.69 10.08C55.4793 9.43066 55.4671 8.84026 55.6534 8.30878C55.8365 7.76715 56.2882 7.37945 57.0086 7.14568L57.4043 7.01727C57.8507 6.87239 58.2424 6.81816 58.5794 6.85457C58.9266 6.88769 59.2073 7.00966 59.4215 7.2205C59.6357 7.43134 59.8027 7.65192 59.9223 7.88225C60.0487 8.09914 60.1646 8.36991 60.27 8.69458L60.9269 10.7186L59.2377 11.2669L58.5906 9.27323C58.4293 8.77609 58.1558 8.59008 57.7703 8.7152C57.5674 8.78105 57.4451 8.88802 57.4034 9.03611C57.3686 9.17076 57.394 9.36998 57.4797 9.63377L59.6628 16.3604C59.8307 16.8778 60.0973 17.0772 60.4626 16.9587C60.838 16.8369 60.9433 16.5223 60.7787 16.015Z" fill="black"/>
<path d="M67.2832 16.7277L66.546 14.5989L65.252 14.8973L65.537 17.1304L63.9624 17.4935L62.7063 5.56672L64.7955 5.085L68.9826 16.3359L67.2832 16.7277ZM64.5034 8.73186L65.04 13.1236L65.9599 12.9115L64.5034 8.73186Z" fill="black"/>
<path d="M74.5212 15.4236L73.6952 3.54833L76.5364 3.35073C77.2387 3.30188 77.7396 3.43277 78.0392 3.7434C78.3495 4.05329 78.5264 4.52214 78.5701 5.14996L78.6967 6.96956C78.7574 7.84212 78.4975 8.41085 77.9172 8.67576C78.6273 8.89368 79.0135 9.44956 79.0757 10.3434L79.2544 12.9132C79.301 13.5836 79.1784 14.1267 78.8866 14.5426C78.6047 14.9472 78.1391 15.172 77.49 15.2172L74.5212 15.4236ZM76.4912 9.84952L75.9485 9.88727L76.2083 13.6222L76.751 13.5845C77.0276 13.5653 77.2094 13.4885 77.2963 13.3541C77.3832 13.2198 77.417 13.0142 77.3978 12.7376L77.2468 10.5668C77.2283 10.3008 77.1671 10.1126 77.0632 10.0022C76.9585 9.88118 76.7678 9.83028 76.4912 9.84952ZM76.1537 4.99725L75.611 5.03499L75.8253 8.11555L76.3679 8.0778C76.7829 8.04894 76.9712 7.75784 76.9327 7.20451L76.8284 5.70414C76.8099 5.43811 76.7486 5.24991 76.6447 5.13952C76.5515 5.02839 76.3878 4.98096 76.1537 4.99725Z" fill="black"/>
<path d="M85.735 5.80452L85.6068 12.4433C85.5708 14.3096 84.7849 15.2279 83.2492 15.1983L82.9453 15.1924C81.3882 15.1624 80.6277 14.2142 80.6637 12.3479L80.7916 5.72511C80.8268 3.90145 81.6176 3.00454 83.164 3.03439L83.4679 3.04026C84.2997 3.05631 84.8871 3.30236 85.23 3.7784C85.5835 4.25464 85.7518 4.93002 85.735 5.80452ZM83.7647 12.5358L83.8969 5.68903C83.9086 5.08114 83.7065 4.77318 83.2906 4.76516C82.864 4.75692 82.6448 5.05675 82.6331 5.66464L82.5009 12.5114C82.4892 13.1192 82.702 13.4274 83.1392 13.4358C83.5445 13.4437 83.753 13.1436 83.7647 12.5358Z" fill="black"/>
<path d="M86.4665 15.1159L87.7035 3.27629L90.4565 3.56389C91.1885 3.64036 91.6879 3.89093 91.9545 4.3156C92.2223 4.72967 92.3173 5.30801 92.2398 6.05063L91.4866 13.2594C91.3226 14.8295 90.5669 15.5442 89.2196 15.4035L86.4665 15.1159ZM89.3338 5.0714L88.4443 13.5851L88.874 13.6299C89.1392 13.6577 89.3268 13.6075 89.4366 13.4796C89.5582 13.3422 89.6362 13.109 89.6706 12.7801L90.3672 6.11241C90.4027 5.77292 90.3799 5.52923 90.2988 5.38134C90.2177 5.23345 90.0658 5.14787 89.843 5.12459L89.3338 5.0714Z" fill="black"/>
<path d="M98.9879 4.8816L96.1529 11.4325L95.2451 16.2924L93.4679 15.9605L94.3786 11.0848L94.0493 3.95922L95.7794 4.28235L95.7805 8.80748L97.3836 4.58198L98.9879 4.8816Z" fill="black"/>
<path d="M100.629 15.0734L101.353 12.4017L103.067 12.8663L102.347 15.5224C101.898 17.18 100.978 17.8204 99.5883 17.4438L99.2022 17.3392C97.7712 16.9514 97.2747 15.9493 97.7127 14.333L99.6128 7.32185C99.7913 6.66295 100.104 6.16194 100.551 5.81881C101 5.46539 101.59 5.38772 102.321 5.5858L102.723 5.69461C103.176 5.81736 103.533 5.98611 103.796 6.20085C104.068 6.41839 104.237 6.67398 104.301 6.96763C104.365 7.26128 104.384 7.53723 104.358 7.79548C104.345 8.04622 104.294 8.33632 104.205 8.66577L103.649 10.7197L101.934 10.2552L102.483 8.23214C102.619 7.72767 102.492 7.42243 102.101 7.31641C101.895 7.26061 101.734 7.28333 101.618 7.38455C101.515 7.47827 101.428 7.65897 101.355 7.92665L99.5054 14.7524C99.3631 15.2775 99.4773 15.5902 99.8479 15.6907C100.229 15.7939 100.489 15.5881 100.629 15.0734Z" fill="black"/>
<path d="M105.64 19.212L106.185 17.0263L104.939 16.5692L103.957 18.5951L102.44 18.0388L107.905 7.36376L109.918 8.10184L107.277 19.8124L105.64 19.212ZM107.681 10.9966L105.73 14.9678L106.617 15.2928L107.681 10.9966Z" fill="black"/>
<path d="M112.681 22.2277L118.508 11.8473L120.991 13.2412C121.605 13.5858 121.952 13.9701 122.032 14.3942C122.121 14.8235 122.012 15.3126 121.704 15.8614L120.811 17.4519C120.383 18.2146 119.854 18.5475 119.223 18.4505C119.697 19.0223 119.715 19.699 119.276 20.4803L118.015 22.7266C117.687 23.3126 117.286 23.6993 116.814 23.8869C116.356 24.0703 115.843 24.0028 115.276 23.6843L112.681 22.2277ZM117.387 18.6491L116.912 18.3829L115.08 21.6477L115.554 21.9139C115.796 22.0497 115.99 22.0852 116.137 22.0206C116.283 21.956 116.424 21.8027 116.56 21.5609L117.625 19.6634C117.755 19.4309 117.807 19.2399 117.781 19.0906C117.76 18.932 117.629 18.7849 117.387 18.6491ZM119.768 14.4076L119.293 14.1414L117.782 16.8342L118.256 17.1004C118.619 17.304 118.936 17.164 119.208 16.6803L119.944 15.3688C120.074 15.1363 120.126 14.9454 120.1 14.796C120.083 14.652 119.972 14.5225 119.768 14.4076Z" fill="black"/>
<path d="M126.883 20.0489L123.156 25.5441C122.108 27.0889 120.949 27.4303 119.677 26.5681L119.426 26.3975C118.137 25.5233 118.016 24.3138 119.064 22.769L122.782 17.2871C123.806 15.7775 124.958 15.4569 126.238 16.325L126.49 16.4957C127.179 16.9627 127.537 17.4892 127.565 18.0752C127.601 18.6671 127.374 19.3251 126.883 20.0489ZM121.561 24.6172L125.405 18.9499C125.747 18.4467 125.745 18.0784 125.401 17.8449C125.048 17.6054 124.7 17.7372 124.359 18.2404L120.515 23.9077C120.174 24.4109 120.184 24.7852 120.546 25.0307C120.882 25.2582 121.22 25.1204 121.561 24.6172Z" fill="black"/>
<path d="M122.276 28.1486L129.76 18.8921L131.913 20.6325C132.485 21.0952 132.768 21.5773 132.76 22.0787C132.759 22.5718 132.524 23.1086 132.054 23.6892L127.497 29.3252C126.504 30.5528 125.481 30.7407 124.428 29.8889L122.276 28.1486ZM130.15 21.2855L124.768 27.9417L125.104 28.2133C125.311 28.3809 125.496 28.441 125.658 28.3936C125.835 28.3445 126.027 28.1914 126.235 27.9343L130.45 22.7213C130.665 22.4559 130.778 22.2391 130.791 22.0709C130.803 21.9027 130.723 21.7482 130.548 21.6074L130.15 21.2855Z" fill="black"/>
<path d="M138.341 26.3803L132.398 30.334L128.992 33.9177L127.682 32.6722L131.099 29.0769L134.7 22.9193L135.975 24.1317L133.514 27.929L137.158 25.256L138.341 26.3803Z" fill="black"/>
<path d="M134.262 35.9176L136.323 34.0699L137.508 35.3923L135.459 37.2293C134.181 38.3756 133.061 38.4127 132.099 37.3405L131.832 37.0427C130.843 35.9388 130.971 34.8279 132.218 33.71L137.627 28.8612C138.135 28.4055 138.67 28.1552 139.231 28.1103C139.801 28.0582 140.338 28.3142 140.844 28.8781L141.121 29.1878C141.435 29.5373 141.643 29.8734 141.746 30.1963C141.857 30.5271 141.859 30.8332 141.753 31.1144C141.647 31.3957 141.513 31.6376 141.351 31.8403C141.204 32.0437 141.003 32.2594 140.749 32.4873L139.164 33.9077L137.979 32.5854L139.539 31.1863C139.929 30.8374 139.988 30.512 139.717 30.2102C139.575 30.0514 139.428 29.9829 139.275 30.0048C139.138 30.0276 138.966 30.1315 138.76 30.3166L133.494 35.0373C133.089 35.4004 133.015 35.7249 133.271 36.0108C133.534 36.3047 133.865 36.2736 134.262 35.9176Z" fill="black"/>
<path d="M136.071 41.9291L137.713 40.3872L136.913 39.3277L134.991 40.4995L134.016 39.2102L144.391 33.195L145.684 34.9055L137.122 43.3205L136.071 41.9291ZM142.236 36.1276L138.445 38.4101L139.015 39.1633L142.236 36.1276Z" fill="black"/>
<path d="M140.32 48.1812L150.827 42.5862L152.166 45.1C152.497 45.7213 152.581 46.2321 152.42 46.6323C152.263 47.042 151.907 47.3947 151.352 47.6905L149.742 48.5478C148.97 48.9589 148.344 48.9534 147.866 48.5315C147.957 49.2688 147.606 49.848 146.815 50.2691L144.542 51.4799C143.949 51.7957 143.403 51.9052 142.904 51.8082C142.42 51.7157 142.024 51.3822 141.719 50.8079L140.32 48.1812ZM146.213 47.7078L145.957 47.2277L142.652 48.9874L142.908 49.4675C143.039 49.7123 143.183 49.847 143.341 49.8716C143.499 49.8962 143.7 49.8433 143.945 49.7129L145.866 48.6902C146.101 48.5648 146.248 48.4322 146.307 48.2924C146.374 48.1475 146.343 47.9526 146.213 47.7078ZM150.506 45.4217L150.25 44.9415L147.525 46.3929L147.78 46.8731C147.976 47.2403 148.319 47.2935 148.808 47.0328L150.136 46.3259C150.371 46.2006 150.518 46.068 150.576 45.9281C150.64 45.7976 150.616 45.6288 150.506 45.4217Z" fill="black"/>
<path d="M153.489 54.0966L147.383 56.706C145.666 57.4395 144.506 57.1001 143.903 55.6877L143.783 55.4081C143.171 53.9761 143.723 52.8933 145.44 52.1598L151.531 49.5567C153.208 48.8399 154.351 49.1926 154.959 50.6148L155.078 50.8944C155.405 51.6594 155.422 52.296 155.129 52.8041C154.84 53.3221 154.293 53.7529 153.489 54.0966ZM146.542 55.0643L152.839 52.3732C153.398 52.1343 153.596 51.8236 153.433 51.441C153.265 51.0487 152.901 50.972 152.342 51.2109L146.045 53.902C145.486 54.1409 145.293 54.4615 145.464 54.8636C145.624 55.2363 145.983 55.3032 146.542 55.0643Z" fill="black"/>
<path d="M145.291 58.5785L156.6 54.8613L157.464 57.4909C157.694 58.1901 157.67 58.7482 157.391 59.1653C157.123 59.5791 156.634 59.9026 155.925 60.1357L149.039 62.399C147.54 62.892 146.578 62.495 146.155 61.2081L145.291 58.5785ZM155.629 57.0835L147.497 59.7565L147.632 60.1669C147.715 60.4202 147.838 60.5709 147.999 60.6188C148.175 60.6735 148.419 60.6492 148.733 60.5459L155.102 58.4525C155.426 58.3459 155.639 58.2254 155.741 58.0909C155.843 57.9564 155.859 57.7827 155.789 57.5699L155.629 57.0835Z" fill="black"/>
<path d="M159.782 66.0074L152.645 66.0821L147.836 67.2296L147.416 65.471L152.241 64.3198L158.616 61.1207L159.025 62.8326L154.891 64.6742L159.404 64.42L159.782 66.0074Z" fill="black"/>
<path d="M151.141 71.7019L153.876 71.2772L154.149 73.0322L151.429 73.4544C149.732 73.7178 148.773 73.1381 148.552 71.7151L148.491 71.3199C148.264 69.8548 148.977 68.9937 150.632 68.7368L157.81 67.6225C158.485 67.5178 159.069 67.5997 159.565 67.8683C160.07 68.1352 160.381 68.6428 160.497 69.3912L160.561 69.8023C160.633 70.2661 160.624 70.6614 160.535 70.9884C160.447 71.3258 160.282 71.5836 160.039 71.7615C159.797 71.9394 159.553 72.0691 159.306 72.1505C159.072 72.2409 158.786 72.3122 158.449 72.3646L156.346 72.691L156.074 70.9361L158.145 70.6145C158.662 70.5343 158.889 70.294 158.827 69.8935C158.794 69.6826 158.708 69.5449 158.568 69.4802C158.441 69.4244 158.24 69.4178 157.966 69.4604L150.978 70.5452C150.44 70.6287 150.201 70.8601 150.26 71.2396C150.32 71.6296 150.614 71.7837 151.141 71.7019Z" fill="black"/>
<path d="M149.377 77.7999L151.595 77.4051L151.503 76.0803L149.253 76.0122L149.141 74.4001L161.117 75.0267L161.266 77.1655L149.498 79.5397L149.377 77.7999ZM157.709 76.3062L153.288 76.1486L153.353 77.0903L157.709 76.3062Z" fill="black"/>
</svg>
