<svg width="38" height="25" viewBox="0 0 38 25" fill="none" xmlns="http://www.w3.org/2000/svg">
<path d="M1 4.57847C1 4.57847 5.01143 8.18734 11.08 8.18734C17.5286 8.18734 21.16 1.00019 27.1257 1C32.68 0.999824 37 4.57847 37 4.57847" stroke="black" stroke-width="1.7" stroke-linecap="round"/>
<path d="M1 12.3258C1 12.3258 5.01143 15.9347 11.08 15.9347C17.5286 15.9347 21.16 8.7475 27.1257 8.74731C32.68 8.74714 37 12.3258 37 12.3258" stroke="black" stroke-width="1.7" stroke-linecap="round"/>
<path d="M1 20.0863C1 20.0863 5.01143 23.6952 11.08 23.6952C17.5286 23.6952 21.16 16.508 27.1257 16.5078C32.68 16.5076 37 20.0863 37 20.0863" stroke="black" stroke-width="1.7" stroke-linecap="round"/>
</svg>
