<svg width="32" height="36" viewBox="0 0 32 36" fill="none" xmlns="http://www.w3.org/2000/svg">
<path d="M0.999902 36.0002H27.3999C27.7313 36.0002 27.9999 35.7315 27.9999 35.4002C27.9999 35.0688 27.7313 34.8002 27.3999 34.8002H17.4045C18.1413 32.1602 19.5999 25.7546 19.5999 24.6002C19.5999 23.3894 19.5999 21.7316 16.7463 21.0182C16.2663 20.8982 14.7111 20.6786 13.0197 20.4596C14.9457 18.9392 16.5999 17.003 16.5999 15.6002C16.6593 14.777 16.4142 13.9607 15.9111 13.3064L23.9511 5.26936C25.3546 3.86253 25.3546 1.58518 23.9511 0.178357C23.7168 -0.0558717 23.337 -0.0558717 23.1027 0.178357L15.9999 7.27816V6.30016C15.9979 4.47844 14.5216 3.00214 12.6999 3.00016C12.3902 3.00058 12.0821 3.04502 11.7849 3.13216C11.0956 2.42942 10.0518 2.20924 9.13741 2.57368C8.22301 2.93813 7.61683 3.81595 7.5999 4.80016C7.61215 5.88694 8.34887 6.83165 9.3999 7.10836V7.20016C9.39027 8.30516 9.8396 9.36461 10.6407 10.1258C10.6903 10.1745 10.7373 10.2258 10.7817 10.2794C10.816 10.3338 10.8587 10.3824 10.9083 10.4234L10.9215 10.433C10.5525 11.6798 9.9381 13.3202 7.2669 15.101C5.4543 16.3094 3.3999 17.6792 3.3999 21.2282C3.3999 24.2282 6.1161 25.8002 8.7999 25.8002H14.0607C13.9221 26.5388 13.7667 27.527 13.6029 28.5734C13.4259 29.7038 13.2429 30.8732 13.0761 31.7384C13.0337 31.9627 13.0122 32.1905 13.0119 32.4188C13.0126 33.2984 13.3387 34.1467 13.9275 34.8002H0.999902C0.668531 34.8002 0.399902 35.0688 0.399902 35.4002C0.399902 35.7315 0.668531 36.0002 0.999902 36.0002ZM14.2551 31.9622C14.3931 31.2422 14.5413 30.3296 14.6877 29.4002H17.4921C17.0337 31.4486 16.5057 33.6128 16.1721 34.7618C15.0391 34.5554 14.2147 33.5698 14.2119 32.4182C14.212 32.2651 14.2265 32.1125 14.2551 31.9622ZM9.4353 5.84176C9.04898 5.63686 8.80532 5.23742 8.7999 4.80016C8.81076 4.12787 9.36359 3.59114 10.0359 3.60016C10.2388 3.60005 10.4388 3.64861 10.6191 3.74176C9.97379 4.26742 9.55096 5.01752 9.4353 5.84176ZM10.5999 7.20016V6.30016C10.5999 5.14036 11.5401 4.20016 12.6999 4.20016C13.8597 4.20016 14.7999 5.14036 14.7999 6.30016V8.47816L13.1235 10.1546C13.0671 10.1456 13.0125 10.145 12.9543 10.13C12.5061 10.0319 12.0867 9.83123 11.7291 9.54376C11.6691 9.46396 11.5929 9.38596 11.5107 9.29956C10.9203 8.76261 10.5886 7.99814 10.5999 7.20016ZM8.7999 24.6002C7.3473 24.6002 4.5999 23.8952 4.5999 21.2282C4.5999 18.3212 6.1443 17.2916 7.9329 16.0994C10.7439 14.225 11.5581 12.4112 11.9823 11.069C12.0351 11.0912 12.0879 11.1164 12.1419 11.1362V11.1392C11.9145 11.3746 11.9178 11.7488 12.1492 11.9802C12.3807 12.2117 12.7549 12.2149 12.9903 11.9876L23.4705 1.50496C24.0243 2.44821 23.8719 3.64632 23.0997 4.42096L13.3599 14.1602C13.2039 14.3108 13.1414 14.5339 13.1963 14.7437C13.2512 14.9534 13.415 15.1173 13.6248 15.1722C13.8346 15.2271 14.0577 15.1645 14.2083 15.0086L15.0639 14.1542C15.3317 14.5861 15.4498 15.0943 15.3999 15.6002C15.3999 16.5164 13.7541 18.5744 11.2881 20.24C9.4407 20.0102 7.8147 19.82 7.6689 19.8044C7.3451 19.7757 7.05734 20.0101 7.01995 20.333C6.98255 20.6559 7.20911 20.9499 7.5309 20.996C9.7041 21.2486 15.5445 21.956 16.4541 22.1822C18.3999 22.6688 18.3999 23.4374 18.3999 24.6002C18.2567 25.8119 18.0415 27.014 17.7555 28.2002H14.8755C15.0051 27.3752 15.1281 26.6102 15.2391 26.0216C15.3049 25.6709 15.2113 25.3092 14.9837 25.0345C14.7561 24.7598 14.418 24.6006 14.0613 24.6002H8.7999Z" fill="black"/>
<path d="M29.7997 36.0001H30.9997C31.3311 36.0001 31.5997 35.7314 31.5997 35.4001C31.5997 35.0687 31.3311 34.8 30.9997 34.8H29.7997C29.4683 34.8 29.1997 35.0687 29.1997 35.4001C29.1997 35.7314 29.4683 36.0001 29.7997 36.0001Z" fill="black"/>
</svg>
