<svg width="36" height="28" viewBox="0 0 36 28" fill="none" xmlns="http://www.w3.org/2000/svg">
<path d="M34.8453 22.5245L18.6792 11.9962V9.55092C20.717 9.2113 22.2792 7.44526 22.2792 5.27168C22.2792 2.89432 20.3774 0.992432 18 0.992432C15.6226 0.992432 13.7208 2.89432 13.7208 5.27168C13.7208 5.67922 13.9925 5.95092 14.4 5.95092C14.8075 5.95092 15.0792 5.67922 15.0792 5.27168C15.0792 3.64149 16.3698 2.35092 18 2.35092C19.6302 2.35092 20.9208 3.64149 20.9208 5.27168C20.9208 6.90186 19.6302 8.19243 18 8.19243C17.5925 8.19243 17.3208 8.46413 17.3208 8.87168V11.9962L1.08679 22.5924C0.407547 23.0679 0 23.8151 0 24.6302C0 25.9207 0.950943 26.9396 2.17358 27.0075H33.7585C34.9811 26.9396 36 25.9207 36 24.6302C36 23.7471 35.5245 23 34.8453 22.5245ZM33.5547 25.717H2.44528C1.83396 25.717 1.35849 25.2415 1.35849 24.6302C1.35849 24.2905 1.56226 23.9509 1.83396 23.7471L18 13.1509L34.0981 23.6113C34.4377 23.8151 34.7094 24.1547 34.7094 24.5622C34.6415 25.2415 34.166 25.717 33.5547 25.717Z" fill="black"/>
</svg>
