<svg width="40" height="20" viewBox="0 0 40 20" fill="none" xmlns="http://www.w3.org/2000/svg">
<path d="M38.9768 10.4127C38.3808 9.81704 37.1329 9.41879 35.1609 9.1954C34.0089 9.06478 32.9737 9.03762 32.6353 9.03213C32.0826 8.81027 31.3025 8.46664 30.3458 8.00613C30.517 7.77358 30.4981 7.44521 30.2878 7.23464C30.0556 7.00271 29.6796 7.00271 29.4477 7.23464L29.2277 7.45467C28.938 7.30849 28.6374 7.15408 28.3259 6.99142L28.3359 6.98135C28.5679 6.74941 28.5679 6.37344 28.3359 6.1412C28.104 5.90926 27.7277 5.90926 27.4958 6.1412L27.2291 6.40792C26.9422 6.25228 26.6486 6.09084 26.3483 5.92361L26.384 5.8879C26.616 5.65597 26.616 5.27999 26.384 5.04775C26.1521 4.81582 25.7758 4.81582 25.5439 5.04775L25.2762 5.31539C24.9933 5.15243 24.7059 4.98488 24.4144 4.81215L24.4321 4.79445C24.6641 4.56252 24.6641 4.18654 24.4321 3.9543C24.2002 3.72237 23.8242 3.72237 23.592 3.9543L23.3649 4.18166C22.1351 3.43062 20.846 2.60298 19.5283 1.70058C19.2911 1.52205 17.4366 0.169511 16.0566 0.421587C15.5927 0.506426 15.2164 0.759722 14.968 1.15431C14.0574 2.60024 14.0558 3.73916 15.0071 4.94552C14.1154 5.493 13.2014 5.88088 12.4082 5.88088C11.0108 5.88088 10.2759 4.5436 9.62774 3.36409C9.09247 2.39028 8.5871 1.47048 7.68255 1.47048C7.53393 1.47048 7.38074 1.47963 7.22754 1.49764C5.65191 1.68074 4.25055 2.71132 3.57 4.18746C3.00238 5.42006 2.21655 7.24654 1.69714 8.94912C1.09564 10.9196 0.98303 12.2478 1.35321 13.0754L0.04553 16.223C-0.0524314 16.4589 0.0110451 16.7308 0.203611 16.8987C0.328123 17.0076 3.33624 19.5653 10.0452 19.5653H31.363C35.7001 19.5653 39.0089 17.6707 39.2417 15.1125C39.6454 14.72 39.9103 14.1139 39.9808 13.3977C40.0919 12.2691 39.7166 11.1531 38.9768 10.4127ZM37.1085 10.7616C36.2693 11.085 35.1371 11.512 34.163 11.8462C33.5355 12.0613 31.626 12.7159 30.7554 12.2185C30.6949 12.184 30.6254 12.137 30.5567 12.0659C32.2162 11.8303 33.1507 11.3728 33.404 10.6755C33.4476 10.5553 33.4772 10.4106 33.4708 10.2467C34.7098 10.3093 36.1329 10.4781 37.1085 10.7616ZM22.0692 6.31728C22.1851 6.43325 22.3371 6.49123 22.4894 6.49123C22.6414 6.49123 22.7933 6.43325 22.9093 6.31728L23.5468 5.68008C23.8383 5.85372 24.1248 6.02248 24.4062 6.18575L24.0211 6.57058C23.7891 6.80251 23.7891 7.17879 24.0211 7.41073C24.137 7.5267 24.2893 7.58468 24.4413 7.58468C24.5933 7.58468 24.7452 7.5267 24.8615 7.41073L25.4758 6.79641C25.7764 6.96487 26.0694 7.12691 26.3544 7.28255L25.973 7.66402C25.741 7.89596 25.741 8.27224 25.973 8.50417C26.0892 8.62014 26.2412 8.67812 26.3932 8.67812C26.5452 8.67812 26.6971 8.62014 26.8134 8.50417L27.4488 7.8688C27.761 8.03298 28.061 8.18832 28.3481 8.3345L27.9252 8.75747C27.6932 8.9894 27.6932 9.36569 27.9252 9.59762C28.0411 9.71359 28.1934 9.77157 28.3454 9.77157C28.4974 9.77157 28.6494 9.71359 28.7653 9.59762L29.4694 8.89358C30.8878 9.5848 31.8436 9.98977 32.1729 10.1259C32.2373 10.201 32.2672 10.255 32.2785 10.283C32.1732 10.4268 31.5211 10.8079 29.6302 10.9761C27.3481 11.179 24.4312 13.5524 23.7571 15.2208C21.988 15.0383 20.0077 14.8103 17.9825 14.5641C17.7677 13.5857 16.9584 12.632 15.5363 11.6878L21.861 4.6495C22.0762 4.78438 22.2892 4.91683 22.5001 5.04622L22.0695 5.47713C21.8372 5.70907 21.8372 6.08535 22.0692 6.31728ZM15.9733 1.78725C16.0441 1.67464 16.1329 1.61574 16.2696 1.59072C16.7747 1.49764 17.6142 1.88246 18.2667 2.28133C17.7015 2.85689 16.8876 3.60885 15.9897 4.27657C15.297 3.44954 15.3177 2.82851 15.9733 1.78725ZM4.64911 4.68459C5.15722 3.58229 6.19757 2.81325 7.36487 2.67775C7.4729 2.66524 7.57971 2.65853 7.68255 2.65853C7.88428 2.65853 8.34112 3.48983 8.58648 3.9363C8.99298 4.67635 9.48401 5.5693 10.2057 6.2123C9.46173 6.61605 8.58496 6.69753 7.77563 6.43325L4.36194 5.31905C4.4544 5.11184 4.54931 4.90157 4.64911 4.68459ZM3.1748 8.26003C4.1773 8.50814 6.53143 9.12155 9.00732 9.98703C9.07232 10.0096 9.13824 10.0203 9.20325 10.0203C9.44891 10.0203 9.67871 9.86709 9.76416 9.62203C9.87219 9.31259 9.70923 8.97354 9.39947 8.8652C6.98736 8.0223 4.68725 7.41348 3.59442 7.14004C3.68689 6.90627 3.78485 6.66427 3.88891 6.41463L7.40668 7.56271C7.84094 7.70461 8.28894 7.7745 8.7348 7.7745C9.51269 7.7745 10.2842 7.56179 10.9638 7.14645L11.3645 6.90169C11.6791 7.0082 12.0252 7.06893 12.4082 7.06893C15.0614 7.06893 18.2111 4.04952 19.2637 2.9576C19.7999 3.32076 20.3275 3.66866 20.8448 4.00283L14.5014 11.0619C13.6875 10.6099 12.7323 10.1594 11.6321 9.7087C11.3285 9.5845 10.9815 9.72976 10.8573 10.0334C10.7328 10.3371 10.878 10.6837 11.1817 10.8083C14.8813 12.3241 16.2214 13.5655 16.6605 14.4014C10.2994 13.6113 3.85382 12.7003 2.39905 12.4931C2.21197 11.9075 2.36548 10.5501 3.1748 8.26003ZM36.2205 17.2835C34.9482 17.9887 33.2233 18.3772 31.363 18.3772H10.0452C5.03576 18.3772 2.23639 16.8529 1.32208 16.2474L2.38379 13.6913C5.66717 14.1594 24.6464 16.8352 29.5255 16.8352C29.6415 16.8352 29.7568 16.8343 29.8713 16.8327C30.1993 16.8279 30.4615 16.5581 30.4569 16.2303C30.452 15.905 30.1871 15.6447 29.863 15.6447C29.86 15.6447 29.8572 15.6447 29.8545 15.6447C29.7455 15.6462 29.636 15.6468 29.5255 15.6468C28.5456 15.6468 26.9532 15.5324 25.0153 15.3465C25.2637 14.944 25.7313 14.3852 26.4393 13.7947C27.3893 13.0022 28.4131 12.4449 29.2722 12.2386C29.4626 12.6796 29.7614 13.0186 30.1661 13.25C30.5906 13.4926 31.0911 13.5878 31.6242 13.5878C32.5794 13.5878 33.6384 13.282 34.5484 12.9698C35.929 12.4965 37.6185 11.8407 38.3759 11.5431C38.7534 12.0918 38.8483 12.7742 38.7986 13.2814C38.754 13.7328 38.5959 14.1115 38.3808 14.2918C37.9291 14.4463 35.5277 15.2242 32.1818 15.5257C31.8549 15.5553 31.6138 15.844 31.6434 16.1708C31.673 16.4977 31.9633 16.7384 32.2886 16.7091C34.7846 16.4842 36.7573 16.0112 37.869 15.6944C37.5086 16.4653 36.7347 16.9984 36.2205 17.2835Z" fill="black"/>
</svg>
