<svg width="29" height="36" viewBox="0 0 29 36" fill="none" xmlns="http://www.w3.org/2000/svg">
<path d="M28.632 7.28901L15.1017 0.0793261C14.9009 -0.0278043 14.6604 -0.0263008 14.4611 0.083085L1.30515 7.29277C1.08939 7.41118 0.955566 7.63747 0.955566 7.88368V17.3014C0.96346 25.0429 5.55014 32.0466 12.6433 35.1482L14.4694 35.9439C14.6401 36.0184 14.8344 36.0187 15.0054 35.9447L17.0631 35.0561C24.2878 32.0218 28.988 24.9505 28.9888 17.1146V7.88368C28.9888 7.63483 28.8516 7.40591 28.632 7.28901ZM27.6415 17.1146C27.64 24.4103 23.2627 30.9934 16.5357 33.8167L16.5312 33.819L14.7393 34.5926L13.1823 33.9133C6.57972 31.0265 2.30992 24.5077 2.3024 17.3014V8.2825L14.7893 1.43894L27.6415 8.28739V17.1146Z" fill="black"/>
<path d="M9.81995 16.8645C9.57825 16.5815 9.15311 16.548 8.87006 16.7897C8.58701 17.0311 8.55356 17.4566 8.79526 17.7393L12.3535 21.9061C12.5911 22.1842 13.0072 22.2222 13.2906 21.9914L21.5776 15.2493C21.8663 15.0148 21.9099 14.5904 21.6749 14.3017C21.4404 14.0134 21.016 13.9694 20.7273 14.2043L12.9508 20.5307L9.81995 16.8645Z" fill="black"/>
</svg>
