<svg width="36" height="36" viewBox="0 0 36 36" fill="none" xmlns="http://www.w3.org/2000/svg">
<path d="M6.35795 22.0435C6.32884 22.0435 6.38763 22.0472 6.35795 22.0435V22.0435Z" fill="black"/>
<path d="M34.6339 31.7838C32.1954 31.7838 29.7909 31.513 27.4578 30.993C27.771 30.1215 27.9392 29.1919 27.9487 28.236C27.9702 26.053 27.1594 24.0157 25.6656 22.4995C24.6744 21.4935 23.4361 20.7611 22.0846 20.3817C22.0729 20.3784 22.0612 20.3755 22.0494 20.3728C18.6374 19.4181 15.5531 17.7466 12.8822 15.4042C12.5902 15.1481 12.146 15.1772 11.8899 15.4692C11.6338 15.7611 11.6629 16.2055 11.9549 16.4615C12.9282 17.315 13.9533 18.0845 15.0265 18.7679C15.6621 19.9964 15.9758 21.3723 15.934 22.7626C15.9223 23.1508 16.2276 23.4749 16.6157 23.4866C16.6229 23.4868 16.6301 23.4869 16.6372 23.4869C17.0158 23.4869 17.3282 23.1858 17.3397 22.8048C17.3695 21.8144 17.2446 20.8301 16.9754 19.8867C18.1349 20.4838 19.3428 20.989 20.5953 21.3999C21.3182 22.5723 21.7341 23.9077 21.8 25.278C21.8181 25.6544 22.129 25.9473 22.5018 25.9473C22.5132 25.9473 22.5247 25.947 22.5362 25.9465C22.9241 25.9278 23.2234 25.5982 23.2047 25.2103C23.1516 24.1069 22.9044 23.0235 22.4814 22.0078C23.2944 22.3498 24.0384 22.8519 24.6637 23.4865C26.5563 25.4074 27.0264 28.2426 26.0875 30.6568C18.6348 28.658 12.0094 24.0827 7.49421 17.5996C7.27221 17.2809 6.83406 17.2026 6.51531 17.4244C6.19663 17.6463 6.11822 18.0846 6.34015 18.4033C9.45242 22.8721 13.6318 26.5875 18.4265 29.1478C20.6469 30.3334 22.9986 31.2676 25.4266 31.9384C25.1878 32.3012 24.9118 32.6464 24.5973 32.9675C23.1266 34.372 20.9193 34.932 18.9705 34.394C16.6798 33.7619 14.5012 32.772 12.5158 31.4731C13.1648 31.4083 13.8081 31.2771 14.4416 31.0764C14.8118 30.9592 15.0168 30.5639 14.8996 30.1937C14.7823 29.8235 14.3873 29.6185 14.0169 29.7356C12.8943 30.0912 11.7359 30.1966 10.5706 30.0503C9.96349 29.5558 9.37985 29.03 8.82357 28.4737C6.76782 26.4179 5.16837 24.0327 4.04441 21.4666C4.7691 21.7495 5.5715 21.9447 6.35773 22.0432C6.70707 22.0432 7.05416 21.7857 7.09867 21.4301C7.14698 21.0447 6.87372 20.6932 6.48831 20.645C5.34838 20.5022 4.27702 20.1288 3.29925 19.5349C1.50797 14.1925 1.67835 8.26079 3.9852 2.95614C4.66074 6.05815 5.92696 9.02803 7.70164 11.6475C7.91949 11.9689 8.35659 12.0531 8.67822 11.8353C8.99971 11.6174 9.08381 11.1802 8.86597 10.8587C6.80551 7.81743 5.47151 4.27509 5.0084 0.614971C4.97021 0.312955 4.74196 0.0697957 4.4429 0.0126271C4.14398 -0.0447523 3.84203 0.097079 3.695 0.363725C2.42857 2.65996 1.54516 5.13684 1.06918 7.72539C0.60016 10.2762 0.537577 12.8736 0.88312 15.4455C1.6017 20.7938 4.00362 25.6428 7.82913 29.4684C10.8198 32.4591 14.5431 34.6312 18.5964 35.7499C19.2066 35.9183 19.8371 36 20.4682 36C22.3328 36 24.2017 35.2866 25.5623 33.9905C25.5702 33.9832 25.5784 33.9768 25.5861 33.9692C25.5929 33.9625 25.5986 33.9554 25.605 33.9486C26.0936 33.4493 26.5111 32.8955 26.8527 32.3007C29.3961 32.8884 32.01 33.1903 34.634 33.1903C35.0224 33.1903 35.3372 32.8755 35.3372 32.4871C35.3372 32.0987 35.0223 31.7838 34.6339 31.7838Z" fill="black"/>
<path d="M10.2256 14.4545C10.4106 14.4545 10.592 14.3792 10.7228 14.2484C10.8536 14.1176 10.9288 13.9362 10.9288 13.7513C10.9288 13.5663 10.8536 13.3849 10.7228 13.2541C10.592 13.1233 10.4106 13.0481 10.2256 13.0481C10.0407 13.0481 9.85928 13.1233 9.72849 13.2541C9.5977 13.3849 9.52246 13.5663 9.52246 13.7513C9.52246 13.9369 9.5977 14.1176 9.72849 14.2484C9.85928 14.3792 10.0407 14.4545 10.2256 14.4545Z" fill="black"/>
</svg>
