<svg width="36" height="36" viewBox="0 0 36 36" fill="none" xmlns="http://www.w3.org/2000/svg">
<g clip-path="url(#clip0)">
<path d="M31.939 16.3704H33.6447C34.9434 16.3704 36 15.3139 36 14.0151C36 12.7164 34.9434 11.6598 33.6447 11.6598H33.0708C32.9901 10.0519 32.5375 9.14041 32.1562 8.40059H33.6447C34.9434 8.40059 36 7.344 36 6.04526C36 4.74652 34.9434 3.68993 33.6447 3.68993H32.4614C32.8937 2.74423 32.9938 1.87467 32.3835 1.00624C31.9409 0.376172 31.2169 0 30.4459 0C29.4339 0 28.5317 0.649687 28.2011 1.61655C27.9754 2.27672 27.5648 2.80216 27.2431 3.68993H24.4915C24.5651 3.52877 24.6372 3.35679 24.704 3.1713C24.9653 2.44617 24.8568 1.6368 24.4138 1.00624C23.9711 0.376172 23.2471 0 22.4762 0C21.4641 0 20.5619 0.649617 20.2313 1.61655C20.1244 1.92902 19.9723 2.21815 19.8113 2.52422C19.6346 2.85996 19.4392 3.23121 19.2722 3.69H16.5217C16.5954 3.52884 16.6674 3.35686 16.7343 3.17138C16.9956 2.44624 16.887 1.6368 16.444 1.00624C16.0012 0.376172 15.2772 0 14.5063 0C13.4942 0 12.5921 0.649617 12.2614 1.61655C12.1546 1.92902 12.0024 2.21815 11.8413 2.52422C11.6648 2.85954 11.4705 3.22882 11.3034 3.68993H8.55197C8.98425 2.7443 9.08445 1.87481 8.47413 1.00624C8.03145 0.376172 7.30744 0 6.53646 0C5.52438 0 4.62227 0.649687 4.29166 1.61655C4.06582 2.27707 3.65442 2.80547 3.33253 3.68993H2.35533C1.05659 3.68993 0 4.74659 0 6.04533C0 7.34407 1.05659 8.40066 2.35533 8.40066H7.06521C7.13595 8.54761 7.2097 8.69055 7.28198 8.83076C7.69359 9.62859 8.11927 10.4536 8.11927 12.1756V12.1829C8.11927 12.1844 8.11919 12.1858 8.11919 12.1873C8.11919 12.1883 8.11919 12.1894 8.11927 12.1905C8.11498 15.318 6.57253 15.6641 6.57253 17.9996C6.57253 18.6578 6.69312 19.1592 6.88029 19.6297H4.13395C4.02469 19.1419 3.97132 18.6048 3.97132 17.9996C3.97132 14.7341 5.51805 14.6013 5.51805 12.1756C5.51805 11.1817 5.22928 10.5261 4.93355 9.93973C4.80234 9.67964 4.48523 9.57523 4.22522 9.70643C3.9652 9.83763 3.86072 10.1547 3.99192 10.4148C4.18669 10.8009 4.35614 11.1723 4.42744 11.6599H2.35533C1.05659 11.6598 0 12.7164 0 14.0151C0 15.3139 1.05659 16.3704 2.35533 16.3704H3.05473C2.87332 17.3468 2.86559 18.614 3.05719 19.6296H2.35533C1.05659 19.6296 0 20.6862 0 21.9849C0 23.2836 1.05659 24.3402 2.35533 24.3402H4.42884C4.26832 25.4774 3.53426 26.0582 3.14613 27.5994H2.35533C1.05659 27.5994 0 28.656 0 29.9547C0 31.2533 1.05659 32.31 2.35533 32.31H3.33963C3.65351 33.1763 4.06413 33.7396 4.28667 34.3839C4.62073 35.3505 5.52291 36 6.53161 36C7.30153 36 8.02575 35.6238 8.46886 34.9938C8.91127 34.3646 9.02032 33.5573 8.76045 32.8341C8.69337 32.6474 8.62109 32.4734 8.54719 32.31H11.3084C11.6194 33.1647 12.0364 33.7468 12.2565 34.3839C12.5905 35.3505 13.4927 36 14.5014 36C15.2714 36 15.9956 35.6238 16.4387 34.9938C16.8811 34.3647 16.9901 33.5573 16.7302 32.8342C16.6631 32.6474 16.5909 32.4735 16.517 32.3101H19.2792C19.5934 33.177 20.0035 33.7391 20.2262 34.3839C20.5602 35.3505 21.4624 36 22.4711 36C23.2411 36 23.9653 35.6238 24.4084 34.9938C24.8508 34.3647 24.9599 33.5573 24.7 32.8342C24.6329 32.6474 24.5606 32.4735 24.4868 32.3101H27.2479C27.5636 33.1779 27.973 33.7385 28.1959 34.3839C28.5299 35.3505 29.4321 36 30.4409 36C31.2109 36 31.935 35.6238 32.3781 34.9938C33.0097 34.0959 32.8681 33.2207 32.4565 32.31H33.6445C34.9433 32.31 35.9999 31.2534 35.9999 29.9547C35.9999 28.6559 34.9433 27.5993 33.6445 27.5993H32.1557C32.5377 26.8725 32.9913 25.9755 33.071 24.3401H33.6445C34.9433 24.3401 35.9999 23.2836 35.9999 21.9848C35.9999 20.6861 34.9433 19.6295 33.6445 19.6295H31.9432C31.3818 18.4792 31.4085 17.4452 31.939 16.3704ZM2.35533 15.3158C1.63814 15.3158 1.05469 14.7323 1.05469 14.0151C1.05469 13.2979 1.63814 12.7145 2.35533 12.7145H4.42561C4.28309 13.6747 3.74583 14.2137 3.34181 15.3158H2.35533ZM34.9453 14.0151C34.9453 14.7323 34.3619 15.3158 33.6447 15.3158C31.5091 15.3158 26.2752 15.3158 24.5014 15.3158C24.7834 14.6917 25.0399 13.8972 25.1002 12.7145H33.6447C34.3619 12.7145 34.9453 13.2979 34.9453 14.0151ZM17.13 23.2855C17.0686 22.1168 16.8102 21.3177 16.5271 20.6842C16.7638 20.6842 27.0131 20.6844 27.2574 20.6842C27.6551 21.7692 28.1898 22.3533 28.3334 23.2855H17.13ZM19.0858 27.5994H16.2162C16.5982 26.8725 17.0518 25.9756 17.1315 24.3402H20.3685C20.208 25.4774 19.4739 26.0582 19.0858 27.5994ZM12.2092 27.5994C12.6366 26.2075 13.4878 25.5928 13.4878 23.8237C13.4878 22.0947 12.6329 21.4237 12.2073 20.0248C12.2039 20.0116 12.2 19.9986 12.1956 19.9859C11.8702 18.8866 11.875 17.39 12.0991 16.3704H14.8454C14.2396 17.9044 14.6042 19.2237 15.2518 20.4789C15.6623 21.2746 16.0867 22.0973 16.089 23.8096C16.089 23.8107 16.089 23.8118 16.089 23.8129C16.089 23.8144 16.089 23.8158 16.089 23.8174V23.8238C16.089 25.5759 15.6653 26.3814 15.2554 27.1604C15.1803 27.3032 15.1037 27.4489 15.0304 27.5995H12.2092V27.5994ZM8.24632 27.5994C8.62833 26.8725 9.08191 25.9756 9.16165 24.3402H12.3986C12.2379 25.4793 11.5005 26.0653 11.1143 27.5994H8.24632ZM11.841 10.1796C12.099 10.6796 12.3147 11.0976 12.3971 11.6598H9.1613C9.08065 10.0519 8.62812 9.14041 8.24681 8.40059H11.1208C11.314 9.15806 11.595 9.70263 11.841 10.1796ZM9.16059 12.7145H20.3652C20.14 14.232 18.8563 14.8252 18.8563 17.9995C18.8563 18.5909 18.9025 19.1297 18.9969 19.6296H16.0037C15.4418 18.4785 15.4692 17.4445 15.9994 16.3704H17.1798C17.471 16.3704 17.7071 16.1343 17.7071 15.843C17.7071 15.5518 17.471 15.3157 17.1798 15.3157C16.3325 15.3157 9.51553 15.3157 8.56181 15.3157C8.84377 14.6917 9.10019 13.8972 9.16059 12.7145ZM28.3363 11.6598H25.1009C25.0203 10.0519 24.5677 9.14041 24.1864 8.40059H27.0605C27.4539 9.94394 28.1704 10.5308 28.3363 11.6598ZM23.0049 8.40059C23.0756 8.54754 23.1493 8.69049 23.2217 8.83069C23.8643 10.0762 24.0425 10.768 24.0589 12.1927C24.0562 13.933 23.6338 14.7354 23.2253 15.5115C22.5072 16.8761 22.2453 18.1856 22.8199 19.6296H20.0736C19.9643 19.1418 19.911 18.6047 19.911 17.9996C19.911 16.2475 20.3347 15.4423 20.7445 14.6636C22.4131 11.4931 20.7353 10.1794 20.1851 8.40066H23.0049V8.40059ZM19.0894 8.40059C19.4772 9.92208 20.2028 10.5405 20.367 11.6598H17.1311C17.0504 10.0519 16.5978 9.14041 16.2165 8.40059H19.0894ZM26.9677 19.6296H23.9739C23.4162 18.4829 23.4352 17.4484 23.9689 16.3704H26.9629C26.7872 17.3199 26.7709 18.5899 26.9677 19.6296ZM34.9453 6.04533C34.9453 6.76252 34.3619 7.34597 33.6447 7.34597H31.6822C31.5913 7.05558 31.5367 6.73924 31.5367 6.35147C31.5367 5.66571 31.6981 5.21241 31.9277 4.74469H33.6447C34.3619 4.74462 34.9453 5.32814 34.9453 6.04533ZM29.199 1.95785C29.3837 1.41764 29.8849 1.05469 30.4469 1.05469C30.8801 1.05469 31.2715 1.25803 31.5206 1.61262C32.4319 2.90946 30.482 3.96956 30.482 6.3514C30.482 8.57208 31.8676 8.9801 32.015 11.6598H29.3996C29.1803 9.68562 27.8807 9.33715 27.8807 6.3514C27.8807 3.84413 28.7509 3.26827 29.199 1.95785ZM26.8753 7.3459H23.3559C23.3482 7.34576 23.3405 7.34576 23.3329 7.3459H19.5239C19.5176 7.34576 19.5112 7.34583 19.5049 7.3459H15.7425C15.6516 7.05551 15.597 6.73917 15.597 6.3514C15.597 5.66564 15.7584 5.21234 15.988 4.74462H19.6429C19.6466 4.74469 19.6504 4.74476 19.6542 4.74476C19.658 4.74476 19.662 4.74469 19.6658 4.74462H23.627C23.6325 4.74469 23.6379 4.74469 23.6434 4.74462H26.9601C26.8068 5.58408 26.7938 6.5643 26.8753 7.3459ZM20.7445 3.01542C20.9173 2.6872 21.0959 2.34773 21.2292 1.95785C21.414 1.41764 21.9151 1.05469 22.4771 1.05469C22.9103 1.05469 23.3017 1.25803 23.5508 1.61262C23.8003 1.9677 23.859 2.40546 23.7118 2.81384C23.5944 3.13988 23.4556 3.42183 23.3163 3.68993H20.4093C20.5162 3.44918 20.6314 3.2303 20.7445 3.01542ZM13.2594 1.95785C13.4441 1.41764 13.9452 1.05469 14.5073 1.05469C14.9405 1.05469 15.3319 1.25803 15.5809 1.61255C16.4943 2.91241 14.5423 3.96063 14.5423 6.3514C14.5423 8.56842 15.9277 8.97581 16.0753 11.6598H13.4599C13.2439 9.7148 11.941 9.29841 11.941 6.3514C11.9411 3.84413 12.8113 3.26827 13.2594 1.95785ZM5.28961 1.95778C5.47432 1.41764 5.97537 1.05469 6.53752 1.05469C6.97071 1.05469 7.36207 1.25803 7.61119 1.61262C8.09346 2.29894 7.76461 2.94356 7.37663 3.69H4.46962C4.74145 3.07779 5.0696 2.60114 5.28961 1.95778ZM1.05469 6.04533C1.05469 5.32814 1.63814 4.74469 2.35533 4.74469H11.0204C10.8671 5.58408 10.8542 6.5643 10.9356 7.34597H2.35533C1.63814 7.3459 1.05469 6.76244 1.05469 6.04533ZM8.0292 16.3704H11.0232C10.8475 17.32 10.8311 18.5899 11.028 19.6296H8.03426C7.47668 18.4828 7.49552 17.4485 8.0292 16.3704ZM1.05469 21.9849C1.05469 21.2677 1.63814 20.6842 2.35533 20.6842H11.3178C11.7155 21.7692 12.2501 22.3533 12.3938 23.2855H2.35533C1.63814 23.2855 1.05469 22.7021 1.05469 21.9849ZM2.35533 31.2554C1.63814 31.2554 1.05469 30.6719 1.05469 29.9547C1.05469 29.2376 1.63814 28.6541 2.35533 28.6541H2.96438C2.93372 28.956 2.91656 29.2858 2.91656 29.6482C2.91656 30.2703 2.96895 30.7982 3.05395 31.2553H2.35533V31.2554ZM7.6062 34.387C7.35673 34.7418 6.96502 34.9453 6.53161 34.9453C5.97234 34.9453 5.47087 34.5812 5.28356 34.0394C4.83384 32.7378 3.97125 32.0959 3.97125 29.6482C3.97125 26.627 5.27709 26.3339 5.49113 24.3402H8.10598C7.9605 27.0728 6.57246 27.3708 6.57246 29.6482C6.57246 31.2597 7.3343 31.9842 7.76784 33.1908C7.91395 33.5972 7.85503 34.0332 7.6062 34.387ZM15.7378 33.1908C15.8838 33.5972 15.8249 34.0332 15.576 34.387C15.3266 34.7418 14.9349 34.9453 14.5015 34.9453C13.9422 34.9453 13.4407 34.5812 13.2534 34.0394C13.0361 33.4107 12.7116 32.9177 12.4447 32.3101H15.3455C15.4834 32.581 15.6208 32.8655 15.7378 33.1908ZM8.02266 31.2554C7.57069 30.3221 7.533 29.4179 7.76805 28.6541H18.9041C18.8734 28.956 18.8563 29.2858 18.8563 29.6482C18.8563 30.2703 18.9086 30.7982 18.9937 31.2553C17.4047 31.2554 9.56074 31.2554 8.02266 31.2554ZM23.5458 34.387C23.2964 34.7418 22.9046 34.9453 22.4712 34.9453C21.912 34.9453 21.4104 34.5812 21.2232 34.0394C20.7738 32.7389 19.9109 32.0959 19.9109 29.6482C19.9109 26.619 21.2164 26.3361 21.4308 24.3402H24.0456C23.9709 25.7429 23.5924 26.4622 23.2252 27.1602C21.6162 30.2185 23.1295 31.5825 23.7075 33.1908C23.8536 33.5972 23.7947 34.0332 23.5458 34.387ZM31.5156 34.3871C31.2661 34.7418 30.8744 34.9453 30.441 34.9453C29.8818 34.9453 29.3802 34.5812 29.193 34.0394C28.9759 33.411 28.651 32.9174 28.3842 32.3101H31.2851C31.6677 33.0609 31.9975 33.7018 31.5156 34.3871ZM34.9453 29.9547C34.9453 30.6719 34.3619 31.2553 33.6447 31.2553H23.9623C23.7303 30.7763 23.5669 30.3192 23.5669 29.6482C23.5669 29.2563 23.6196 28.9403 23.7077 28.6541H31.2976C31.3014 28.6542 31.3052 28.6542 31.309 28.6542C31.3128 28.6542 31.3166 28.6542 31.3204 28.6541H33.6447C34.3619 28.6541 34.9453 29.2376 34.9453 29.9547ZM24.186 27.5994C24.568 26.8725 25.0215 25.9756 25.1013 24.3402H28.338C28.2686 24.8314 28.104 25.1918 27.9257 25.5427C27.7936 25.8023 27.897 26.1198 28.1567 26.2517C28.4165 26.3839 28.734 26.2801 28.8657 26.0207C29.1375 25.4864 29.4273 24.8319 29.4273 23.8237C29.4273 22.0947 28.5725 21.4237 28.1469 20.0248C27.8009 18.6829 27.8163 17.3822 28.0386 16.3704H30.7849C30.2128 17.8192 30.4852 19.11 31.1913 20.4789C31.6017 21.2746 32.0262 22.0973 32.0285 23.8096C32.0285 23.8107 32.0285 23.8118 32.0285 23.8129C32.0285 23.8144 32.0285 23.8158 32.0285 23.8174V23.8238C32.0285 25.5759 31.6048 26.3814 31.1949 27.1604C31.1198 27.3032 31.0432 27.4489 30.9698 27.5995H24.186V27.5994ZM34.9453 21.9849C34.9453 22.7021 34.3619 23.2855 33.6447 23.2855H33.0697C33.0083 22.1168 32.7499 21.3177 32.4668 20.6842H33.6447C34.3619 20.6842 34.9453 21.2678 34.9453 21.9849Z" fill="black"/>
</g>
<defs>
<clipPath id="clip0">
<rect width="36" height="36" fill="white"/>
</clipPath>
</defs>
</svg>
