<svg width="36" height="36" viewBox="0 0 36 36" fill="none" xmlns="http://www.w3.org/2000/svg">
<path d="M22.072 14.656L16.663 19.7649L14.0671 17.0943C13.7793 16.798 13.3054 16.7912 13.0094 17.079C12.7132 17.3671 12.7064 17.8407 12.9942 18.137L16.1077 21.3331C16.3969 21.6241 16.8643 21.6341 17.1656 21.3554L23.115 15.7438C23.2595 15.6076 23.3439 15.4194 23.3495 15.221C23.355 15.0226 23.2815 14.8301 23.1449 14.6859C22.8554 14.3849 22.378 14.3717 22.072 14.656Z" fill="black"/>
<path d="M18.058 6.79346C11.8762 6.79346 6.84961 11.82 6.84961 18.0018C6.84961 24.184 11.8762 29.2105 18.058 29.2105C24.2401 29.2105 29.2667 24.184 29.2667 18.0018C29.2667 11.82 24.2401 6.79346 18.058 6.79346ZM18.058 27.7101C12.7014 27.7101 8.35008 23.3511 8.35008 18.0018C8.35008 12.6526 12.7014 8.29393 18.058 8.29393C23.4198 8.29393 27.7662 12.6403 27.7662 18.0018C27.7662 23.3634 23.4198 27.7101 18.058 27.7101Z" fill="black"/>
<path d="M33.4832 13.8756L33.7308 9.42665C33.7481 9.12802 33.5858 8.84757 33.3182 8.71393L29.3569 6.71086L27.3538 2.74957C27.2176 2.48435 26.9389 2.32287 26.6411 2.33694L22.1845 2.57725L18.4709 0.123745C18.2206 -0.0412482 17.8962 -0.0412482 17.6456 0.123745L13.932 2.57725L9.4833 2.32961C9.18438 2.31203 8.90421 2.47438 8.77058 2.74224L6.76721 6.70354L2.80621 8.7066C2.54069 8.84258 2.37951 9.12128 2.39358 9.41933L2.64092 13.8683L0.18771 17.5819C0.0227166 17.8322 0.0227166 18.1566 0.18771 18.4072L2.63359 22.1282L2.38596 26.5771C2.36867 26.8758 2.53073 27.1562 2.79859 27.2899L6.75989 29.2929L8.76296 33.2542C8.89894 33.5197 9.17764 33.6809 9.47568 33.6668L13.9246 33.4192L17.6383 35.8724C17.8871 36.0427 18.2147 36.0427 18.4636 35.8724L22.1772 33.4192L26.6262 33.6668C26.9248 33.6841 27.205 33.5218 27.3389 33.2542L29.342 29.2929L33.3033 27.2899C33.5685 27.1536 33.73 26.8752 33.7159 26.5771L33.4683 22.1282L35.9215 18.4145C36.0865 18.1642 36.0865 17.8395 35.9215 17.5893L33.4832 13.8756ZM32.0877 21.513C31.9962 21.6473 31.9537 21.8087 31.9678 21.9708L32.2002 26.1794L28.4566 28.07C28.3139 28.1415 28.1982 28.2575 28.1266 28.4003L26.2358 32.1438L22.0272 31.9114C21.866 31.9056 21.7069 31.9472 21.5694 32.0313L18.0583 34.3497L14.5474 32.0313C14.4255 31.9489 14.2819 31.9044 14.1348 31.9038H14.0972L9.88831 32.1365L7.99778 28.3926C7.92627 28.2499 7.81051 28.1342 7.6675 28.0627L3.91632 26.1794L4.14901 21.9708C4.15487 21.8096 4.11296 21.6505 4.02886 21.513L1.71075 18.0019L4.02886 14.4907C4.12058 14.3568 4.16308 14.195 4.14901 14.0333L3.91632 9.82434L7.66017 7.9338C7.80289 7.8623 7.91865 7.74654 7.99016 7.60382L9.88069 3.85997L14.0896 4.09266C14.2505 4.09823 14.4096 4.05661 14.5474 3.97251L18.0583 1.6544L21.5694 3.97251C21.7036 4.06423 21.8654 4.10673 22.0272 4.09266L26.2358 3.85997L28.1266 7.60382C28.1982 7.74654 28.3139 7.8623 28.4566 7.9338L32.2002 9.82434L31.9678 14.0333C31.9619 14.1942 32.0038 14.3533 32.0877 14.4907L34.4061 18.0019L32.0877 21.513Z" fill="black"/>
</svg>
