<svg width="32" height="36" viewBox="0 0 32 36" fill="none" xmlns="http://www.w3.org/2000/svg">
<path d="M30.356 17.7763C29.9596 16.7943 29.3258 14.639 28.5292 11.632C28.4209 11.2234 28.3102 10.8014 28.1974 10.367C27.7371 8.59459 27.2607 6.69486 26.7958 4.79506C26.633 4.13007 26.4833 3.5126 26.3501 2.95848C26.3035 2.76463 26.2622 2.59251 26.2268 2.44423C26.191 2.29404 26.191 2.29404 26.1836 2.26275C26.1463 2.10547 26.0471 1.96991 25.9085 1.8868L22.989 0.135082C22.9031 0.0661773 22.7985 0.0234284 22.6897 0.00788977C22.674 0.0054992 22.6584 0.00423361 22.6427 0.00310864C22.6371 0.00268678 22.6315 0.00233523 22.6259 0.00205398C22.6113 0.00142119 22.5968 0.000929007 22.5823 0.00142118C22.3199 0.00697573 22.0625 0.169393 22.0092 0.498799C22.0078 0.507729 22.0061 0.516517 22.005 0.525588C22.0046 0.528822 22.0039 0.531705 22.0035 0.534939C22.0005 0.562149 21.9911 0.625921 21.973 0.720981C21.9415 0.886492 21.8968 1.07282 21.8371 1.27447C21.6657 1.85291 21.4086 2.43143 21.0507 2.96832C20.0345 4.49266 18.4195 5.40107 16.0001 5.40107C13.5807 5.40107 11.9656 4.49266 10.9494 2.96832C10.5915 2.43143 10.3344 1.85291 10.163 1.27447C10.1033 1.07282 10.0587 0.886492 10.0272 0.720981C10.0091 0.625991 9.99961 0.562149 9.99659 0.534939C9.99624 0.531705 9.99553 0.528752 9.99511 0.525588C9.99399 0.516517 9.99237 0.507729 9.99089 0.498799C9.93767 0.169393 9.68026 0.00697573 9.41779 0.00142118C9.40331 0.000929007 9.38882 0.00142119 9.37427 0.00205398C9.36864 0.00233523 9.36302 0.00268678 9.35739 0.00310864C9.34172 0.00423361 9.32611 0.0054992 9.31043 0.00788977C9.20166 0.0233581 9.09703 0.066107 9.01111 0.135082L6.09167 1.88673C5.95309 1.96991 5.85388 2.10547 5.81662 2.26268C5.80916 2.29397 5.80916 2.29397 5.77338 2.44416C5.73794 2.59244 5.69674 2.76456 5.65012 2.95841C5.51688 3.51253 5.36719 4.13 5.20442 4.79499C4.73946 6.69479 4.2631 8.59452 3.80278 10.367C3.69 10.8013 3.57933 11.2234 3.47105 11.6319C2.67429 14.639 2.04051 16.7943 1.64417 17.7762C0.562368 20.4561 0.881719 23.1156 2.28301 25.5042C3.78471 28.0646 4.60045 30.956 4.60045 35.4003C4.60045 35.7317 4.86904 36.0003 5.20041 36.0003H26.7999C27.1312 36.0003 27.3998 35.7317 27.3998 35.4003C27.3998 30.956 28.2156 28.0646 29.7173 25.5041C31.1185 23.1157 31.4378 20.4562 30.356 17.7763ZM16.0001 6.60114C18.7932 6.60114 20.7629 5.51392 21.9999 3.70694V6.56535C18.8164 9.54069 17.6027 12.9305 17.6209 16.5719C17.2943 16.6798 16.9595 16.7548 16.6212 16.7963C16.6154 16.797 16.6095 16.7977 16.6036 16.7984C16.5443 16.8054 16.485 16.8114 16.4255 16.8164C16.4006 16.8184 16.3757 16.8198 16.3508 16.8215C16.3059 16.8246 16.2611 16.8278 16.2161 16.8297C16.1619 16.8319 16.1078 16.8328 16.0536 16.8334C16.0357 16.8336 16.0179 16.8344 16 16.8344C15.9821 16.8344 15.9641 16.8335 15.9461 16.8333C15.8921 16.8328 15.8381 16.8318 15.7841 16.8296C15.7389 16.8277 15.6939 16.8245 15.6488 16.8214C15.624 16.8197 15.5994 16.8183 15.5746 16.8162C15.515 16.8112 15.4555 16.8053 15.3961 16.7982C15.3904 16.7975 15.3848 16.7969 15.3791 16.7962C15.0407 16.7547 14.7058 16.6796 14.3792 16.5718C14.3974 12.9304 13.1837 9.54055 10.0002 6.56521V3.70687C11.2372 5.51392 13.2069 6.60114 16.0001 6.60114ZM21.9999 8.26989V9.00105C21.9999 11.8514 21.0962 13.9455 19.5404 15.4296C19.3177 15.642 19.0792 15.8291 18.8294 15.9933C18.9259 13.2134 19.8443 10.6224 21.9999 8.26989ZM10.0002 8.26989C12.1558 10.6224 13.0742 13.2134 13.1706 15.9933C12.9209 15.8291 12.6823 15.642 12.4596 15.4296C10.9039 13.9456 10.0001 11.8514 10.0001 9.00112V8.26989H10.0002ZM28.6822 24.897C27.1445 27.519 26.2773 30.4692 26.2048 34.8004H5.79531C5.72275 30.4692 4.85561 27.519 3.31792 24.8971C2.09563 22.8137 1.82255 20.5397 2.75677 18.2254C3.17905 17.1793 3.82028 14.9987 4.6309 11.9393C4.73967 11.5287 4.85083 11.1047 4.9641 10.6686C5.42604 8.8901 5.90366 6.9851 6.36989 5.08025C6.53308 4.41363 6.68313 3.79454 6.81672 3.23895C6.85701 3.07126 6.89336 2.91981 6.92542 2.7858L8.80025 1.66089V6.82845V9.00098C8.80025 12.1807 9.83923 14.5882 11.6315 16.2978C12.7627 17.3771 14.2103 17.9528 15.6792 18.026C15.6816 18.0261 15.684 18.0263 15.6864 18.0265C15.8954 18.0367 16.1047 18.0367 16.3137 18.0265C16.3163 18.0263 16.3189 18.0261 16.3215 18.0259C17.7903 17.9526 19.2376 17.3769 20.3688 16.2977C22.1609 14.5882 23.1999 12.1806 23.1999 9.00098V6.82852V1.66096L25.0747 2.78587C25.1068 2.91988 25.1431 3.07133 25.1834 3.23902C25.317 3.79461 25.4671 4.41363 25.6302 5.08032C26.0965 6.98517 26.5741 8.8901 27.036 10.6687C27.1493 11.1048 27.2605 11.5288 27.3692 11.9393C28.1799 14.9988 28.8211 17.1794 29.2434 18.2255C30.1775 20.5397 29.9044 22.8137 28.6822 24.897Z" fill="black"/>
</svg>
