<svg width="34" height="36" viewBox="0 0 34 36" fill="none" xmlns="http://www.w3.org/2000/svg">
<path d="M12.4201 7.39505C12.7114 7.39505 12.9476 7.15887 12.9476 6.86756V1.58252C12.9476 1.29164 13.1842 1.05504 13.4751 1.05504H17.5309C17.8222 1.05504 18.0584 0.818859 18.0584 0.527555C18.0584 0.23625 17.8222 0 17.5309 0H13.4751C12.6025 0 11.8926 0.709945 11.8926 1.58252V6.86749C11.8926 7.15887 12.1288 7.39505 12.4201 7.39505Z" fill="black"/>
<path d="M31.545 0H20.1007C19.8094 0 19.5732 0.23618 19.5732 0.527484C19.5732 0.818789 19.8094 1.05497 20.1007 1.05497H29.5882V1.16044C29.5882 1.45174 29.8244 1.68792 30.1157 1.68792C30.407 1.68792 30.6432 1.45174 30.6432 1.16044V1.05497H31.545C31.8359 1.05497 32.0725 1.29164 32.0725 1.58245V15.6598C32.0725 15.8225 31.9954 15.9789 31.8665 16.078L29.9127 17.58C28.4792 18.682 27.2991 20.1217 26.5001 21.7437C25.701 23.3658 25.2787 25.1788 25.2787 26.9869V28.6059C25.2787 28.8972 25.5149 29.1334 25.8062 29.1334C26.0975 29.1334 26.3337 28.8972 26.3337 28.6059V26.9869C26.3337 23.6525 27.912 20.4486 30.5556 18.4164L32.5094 16.9144C32.8964 16.617 33.1275 16.1479 33.1275 15.6598V1.58252C33.1276 0.709945 32.4176 0 31.545 0V0Z" fill="black"/>
<path d="M25.8062 30.6601C25.5149 30.6601 25.2787 30.8963 25.2787 31.1876V34.4174C25.2787 34.7083 25.0421 34.9449 24.7512 34.9449H15.5348V34.4775C15.5348 34.1863 15.2985 33.95 15.0073 33.95C14.7162 33.95 14.4799 34.1863 14.4799 34.4775V34.9449H13.4754C13.1846 34.9449 12.948 34.7083 12.948 34.4174V23.0818H21.5557C22.1488 23.0818 22.6314 22.5992 22.6314 22.006V13.0694C22.6314 11.5622 23.0727 10.1023 23.9077 8.84739L25.7685 6.05106C25.957 5.76763 25.9743 5.40517 25.8135 5.10507C25.6528 4.80498 25.3414 4.61865 25.001 4.61865H16.62C16.0268 4.61865 15.5442 5.10121 15.5442 5.69436C15.5442 7.54147 14.0415 9.04419 12.1943 9.04419H9.24108C7.39397 9.04419 5.89125 7.54147 5.89125 5.69436C5.89125 5.10121 5.40863 4.61865 4.81547 4.61865H1.94883C1.35567 4.61865 0.873047 5.10121 0.873047 5.69436V22.0059C0.873047 22.5991 1.35567 23.0817 1.94883 23.0817H11.8928V34.4174C11.8928 35.2901 12.6027 36 13.4753 36H24.751C25.6237 36 26.3336 35.29 26.3336 34.4174V31.1876C26.3337 30.8963 26.0975 30.6601 25.8062 30.6601ZM1.92816 22.006V5.69443C1.92816 5.68297 1.93744 5.67369 1.9489 5.67369H4.81554C4.827 5.67369 4.83628 5.68297 4.83628 5.69443C4.83628 8.12331 6.81227 10.0993 9.24115 10.0993H12.1944C14.6233 10.0993 16.5993 8.12331 16.5993 5.69443C16.5993 5.68297 16.6086 5.67369 16.62 5.67369H21.6332L21.5248 5.87464C21.3779 6.12622 21.4629 6.44931 21.7145 6.59612C21.7981 6.64492 21.8896 6.66812 21.9799 6.66812C22.1614 6.66812 22.338 6.57447 22.436 6.40642L22.8636 5.67369H24.7524L23.0294 8.26295C22.0789 9.69149 21.5764 11.3535 21.5764 13.0694V22.006C21.5764 22.0175 21.5671 22.0268 21.5557 22.0268H1.9489C1.93751 22.0268 1.92816 22.0175 1.92816 22.006Z" fill="black"/>
<path d="M30.1154 6.51556C30.4067 6.51556 30.6429 6.27938 30.6429 5.98808V3.84243C30.6429 3.55112 30.4067 3.31494 30.1154 3.31494C29.8241 3.31494 29.5879 3.55112 29.5879 3.84243V5.98801C29.5879 6.27938 29.8241 6.51556 30.1154 6.51556Z" fill="black"/>
<path d="M29.5879 10.8159C29.5879 11.1072 29.8241 11.3434 30.1154 11.3434C30.4067 11.3434 30.6429 11.1072 30.6429 10.8159V8.67031C30.6429 8.379 30.4067 8.14282 30.1154 8.14282C29.8241 8.14282 29.5879 8.379 29.5879 8.67031V10.8159Z" fill="black"/>
<path d="M29.5879 15.6433C29.5879 15.9346 29.8241 16.1708 30.1154 16.1708C30.4067 16.1708 30.6429 15.9346 30.6429 15.6433V13.4977C30.6429 13.2064 30.4067 12.9702 30.1154 12.9702C29.8241 12.9702 29.5879 13.2064 29.5879 13.4977V15.6433Z" fill="black"/>
<path d="M15.5345 24.5455C15.5345 24.2542 15.2983 24.0181 15.007 24.0181C14.7157 24.0181 14.4795 24.2542 14.4795 24.5455V26.7527C14.4795 27.044 14.7157 27.2801 15.007 27.2801C15.2983 27.2801 15.5345 27.044 15.5345 26.7527V24.5455Z" fill="black"/>
<path d="M15.007 28.9839C14.7157 28.9839 14.4795 29.2201 14.4795 29.5114V31.7185C14.4795 32.0098 14.7157 32.246 15.007 32.246C15.2983 32.246 15.5345 32.0098 15.5345 31.7185V29.5114C15.5345 29.2201 15.2983 28.9839 15.007 28.9839Z" fill="black"/>
<path d="M5.59466 19.354H3.34389C3.05259 19.354 2.81641 19.5902 2.81641 19.8815C2.81641 20.1728 3.05259 20.409 3.34389 20.409H5.59466C5.88597 20.409 6.12215 20.1728 6.12215 19.8815C6.12215 19.5902 5.88597 19.354 5.59466 19.354Z" fill="black"/>
<path d="M10.6591 19.354H8.40834C8.11704 19.354 7.88086 19.5902 7.88086 19.8815C7.88086 20.1728 8.11704 20.409 8.40834 20.409H10.6591C10.9504 20.409 11.1866 20.1728 11.1866 19.8815C11.1867 19.5902 10.9505 19.354 10.6591 19.354Z" fill="black"/>
<path d="M20.8272 8.11537C20.562 7.99465 20.2493 8.112 20.1287 8.37715C19.8031 9.09307 19.5519 9.84513 19.3822 10.6125C19.3193 10.8969 19.4988 11.1785 19.7833 11.2415C19.8217 11.25 19.86 11.2541 19.8978 11.2541C20.1398 11.2541 20.3579 11.0864 20.4123 10.8404C20.5662 10.1449 20.794 9.46306 21.0892 8.814C21.2097 8.54871 21.0925 8.23596 20.8272 8.11537Z" fill="black"/>
<path d="M19.6422 12.9939C19.3509 12.9939 19.1147 13.2301 19.1147 13.5214V15.7722C19.1147 16.0635 19.3509 16.2996 19.6422 16.2996C19.9335 16.2996 20.1697 16.0635 20.1697 15.7722V13.5214C20.1698 13.2301 19.9336 12.9939 19.6422 12.9939Z" fill="black"/>
<path d="M15.7231 19.354H13.4723C13.181 19.354 12.9448 19.5902 12.9448 19.8815C12.9448 20.1728 13.181 20.409 13.4723 20.409H15.7231C16.0144 20.409 16.2506 20.1728 16.2506 19.8815C16.2506 19.5902 16.0144 19.354 15.7231 19.354Z" fill="black"/>
<path d="M19.6421 18.0579C19.3508 18.0579 19.1147 18.294 19.1147 18.5853V19.3539H18.5368C18.2455 19.3539 18.0093 19.59 18.0093 19.8813C18.0093 20.1726 18.2455 20.4088 18.5368 20.4088H19.2905C19.7753 20.4088 20.1697 20.0144 20.1697 19.5296V18.5853C20.1697 18.294 19.9335 18.0579 19.6421 18.0579Z" fill="black"/>
</svg>
