<svg width="36" height="34" viewBox="0 0 36 34" fill="none" xmlns="http://www.w3.org/2000/svg">
<path d="M14.4732 4.16126C11.3282 1.01782 5.17368 0.65332 0.817353 0.65332C0.366188 0.65332 0 1.01943 0 1.4706C0 5.82693 0.362893 11.9814 3.50794 15.1265C4.83531 16.4539 6.87045 17.0473 8.88759 17.0473C11.0797 17.0473 13.2521 16.346 14.4732 15.1249C16.8157 12.7824 17.2456 6.932 14.4732 4.16126ZM13.3176 13.9708C11.5685 15.7182 6.71192 16.0174 4.66536 13.9708C2.12671 11.4322 1.68696 6.27487 1.63953 2.29285C5.62155 2.34028 10.7789 2.77995 13.3175 5.3186C15.3641 7.36516 15.065 12.2234 13.3176 13.9708Z" fill="black"/>
<path d="M35.1828 3.88647C30.8265 3.88647 24.672 4.24937 21.5269 7.39442C18.7546 10.1652 19.1844 16.0156 21.5269 18.3581C22.748 19.5775 24.9188 20.2788 27.1109 20.2788C29.1281 20.2788 31.1616 19.687 32.4922 18.3598C35.6356 15.2147 36.0001 9.06023 36.0001 4.70383C36.0002 4.25266 35.634 3.88647 35.1828 3.88647ZM31.3332 17.2023C29.2867 19.2489 24.4284 18.9498 22.681 17.2023C20.9336 15.4549 20.6345 10.5967 22.681 8.55014C25.2197 6.0115 30.377 5.57183 34.359 5.5244C34.3116 9.50803 33.8719 14.6654 31.3332 17.2023Z" fill="black"/>
<path d="M29.2801 10.9619C29.0872 10.5516 28.5347 10.4111 28.1276 10.6006C21.8588 13.5479 18.7791 18.6873 17.3798 23.9704C15.6487 12.7371 10.6417 9.3125 8.51831 7.85932C8.25349 7.67787 8.04752 7.54546 7.93312 7.43267C7.61437 7.11391 7.09616 7.11391 6.7774 7.43267C6.45864 7.75143 6.45864 8.26964 6.7774 8.5884C6.93923 8.74862 7.21876 8.94968 7.59636 9.20791C9.9895 10.8442 16.3466 15.194 16.3466 32.5296C16.3466 32.9807 16.7128 33.3469 17.164 33.3469C17.6152 33.3469 17.9813 32.9807 17.9813 32.5312C17.9813 25.5268 19.8629 16.2926 28.824 12.0817C28.824 12.0801 28.9564 12.018 28.9564 12.018C29.3634 11.825 29.4729 11.3706 29.2801 10.9619Z" fill="black"/>
</svg>
