<svg width="36" height="25" viewBox="0 0 36 25" fill="none" xmlns="http://www.w3.org/2000/svg">
<path d="M34.0312 2.4375H31.7812C31.6868 2.43752 31.5926 2.44694 31.5 2.46563V2.15625C31.4996 1.7834 31.3514 1.42593 31.0877 1.16229C30.8241 0.89865 30.4666 0.750372 30.0938 0.75H26.1562C25.7834 0.750372 25.4259 0.89865 25.1623 1.16229C24.8986 1.42593 24.7504 1.7834 24.75 2.15625V6.375H23.6461C23.6316 5.95073 23.4588 5.54724 23.1617 5.24401C22.8646 4.94079 22.4648 4.75981 22.0409 4.73672C21.7994 4.72437 21.5581 4.76443 21.3335 4.85414C21.2586 4.57664 21.1139 4.32295 20.9132 4.11724C20.7124 3.91154 20.4624 3.76067 20.1868 3.67903C19.9112 3.59739 19.6193 3.5877 19.3389 3.65087C19.0585 3.71405 18.7989 3.84799 18.585 4.03992C18.2759 3.76296 17.8755 3.60975 17.4605 3.60962C17.0455 3.60949 16.645 3.76245 16.3357 4.03922C16.1728 3.89222 15.9825 3.77879 15.7757 3.70543C15.5689 3.63208 15.3497 3.60023 15.1305 3.61172C14.693 3.63566 14.2816 3.8276 13.9821 4.14751C13.6827 4.46741 13.5183 4.89058 13.5232 5.32875V6.21609C13.5079 6.26768 13.5001 6.3212 13.5 6.375H11.25V2.15625C11.2496 1.7834 11.1014 1.42593 10.8377 1.16229C10.5741 0.89865 10.2166 0.750372 9.84375 0.75H5.90625C5.5334 0.750372 5.17593 0.89865 4.91229 1.16229C4.64865 1.42593 4.50037 1.7834 4.5 2.15625V2.46563C4.40742 2.44694 4.3132 2.43752 4.21875 2.4375H1.96875C1.5959 2.43787 1.23843 2.58615 0.974792 2.84979C0.71115 3.11343 0.562872 3.4709 0.5625 3.84375V14.5312C0.562872 14.9041 0.71115 15.2616 0.974792 15.5252C1.23843 15.7889 1.5959 15.9371 1.96875 15.9375H4.21875C4.3132 15.9375 4.40742 15.9281 4.5 15.9094V16.2188C4.50037 16.5916 4.64865 16.9491 4.91229 17.2127C5.17593 17.4764 5.5334 17.6246 5.90625 17.625H9.84375C10.2166 17.6246 10.5741 17.4764 10.8377 17.2127C11.1014 16.9491 11.2496 16.5916 11.25 16.2188V12H12.1303L12.3195 13.3345C12.351 13.5569 12.4354 13.7684 12.5654 13.9516C12.6954 14.1347 12.8674 14.284 13.0669 14.3871L14.6482 15.2027V23.8596C14.6482 24.0088 14.7075 24.1519 14.813 24.2574C14.9184 24.3628 15.0615 24.4221 15.2107 24.4221H21.9607C22.1099 24.4221 22.253 24.3628 22.3584 24.2574C22.4639 24.1519 22.5232 24.0088 22.5232 23.8596V15.022L23.4837 14.0623C23.5891 13.9566 23.6483 13.8135 23.6482 13.6643V12H24.75V16.2188C24.7504 16.5916 24.8986 16.9491 25.1623 17.2127C25.4259 17.4764 25.7834 17.6246 26.1562 17.625H30.0938C30.4666 17.6246 30.8241 17.4764 31.0877 17.2127C31.3514 16.9491 31.4996 16.5916 31.5 16.2188V15.9094C31.5926 15.9281 31.6868 15.9375 31.7812 15.9375H34.0312C34.4041 15.9371 34.7616 15.7889 35.0252 15.5252C35.2888 15.2616 35.4371 14.9041 35.4375 14.5312V3.84375C35.4371 3.4709 35.2888 3.11343 35.0252 2.84979C34.7616 2.58615 34.4041 2.43787 34.0312 2.4375ZM4.5 14.5312C4.5 14.6058 4.47037 14.6774 4.41762 14.7301C4.36488 14.7829 4.29334 14.8125 4.21875 14.8125H1.96875C1.89416 14.8125 1.82262 14.7829 1.76988 14.7301C1.71713 14.6774 1.6875 14.6058 1.6875 14.5312V3.84375C1.6875 3.76916 1.71713 3.69762 1.76988 3.64488C1.82262 3.59213 1.89416 3.5625 1.96875 3.5625H4.21875C4.29334 3.5625 4.36488 3.59213 4.41762 3.64488C4.47037 3.69762 4.5 3.76916 4.5 3.84375V14.5312ZM10.125 16.2188C10.125 16.2933 10.0954 16.3649 10.0426 16.4176C9.98988 16.4704 9.91834 16.5 9.84375 16.5H5.90625C5.83166 16.5 5.76012 16.4704 5.70738 16.4176C5.65463 16.3649 5.625 16.2933 5.625 16.2188V2.15625C5.625 2.08166 5.65463 2.01012 5.70738 1.95738C5.76012 1.90463 5.83166 1.875 5.90625 1.875H9.84375C9.91834 1.875 9.98988 1.90463 10.0426 1.95738C10.0954 2.01012 10.125 2.08166 10.125 2.15625V16.2188ZM12.5543 8.48086C12.3303 8.60134 12.1431 8.78017 12.0125 8.9984C11.8819 9.21664 11.8128 9.46614 11.8125 9.72047C11.8126 9.74681 11.8145 9.77312 11.8181 9.79922L11.9707 10.875H11.25V7.5H13.5V7.60477C13.4128 7.8825 13.0746 8.19961 12.5543 8.48086ZM22.5232 13.4316L21.5627 14.3913C21.4573 14.4969 21.3981 14.6401 21.3982 14.7893V23.2971H15.7732V14.8596C15.7732 14.7564 15.7448 14.6551 15.6911 14.5669C15.6374 14.4787 15.5605 14.4071 15.4688 14.3597L13.583 13.3873C13.543 13.3667 13.5086 13.3369 13.4825 13.3003C13.4565 13.2638 13.4396 13.2215 13.4332 13.177L12.9389 9.69094C12.9444 9.64466 12.961 9.6004 12.9873 9.56194C13.0137 9.52349 13.0489 9.492 13.0901 9.47016C13.237 9.3907 13.3734 9.30773 13.5 9.22266V10.2422C13.5 10.3914 13.5593 10.5344 13.6648 10.6399C13.7702 10.7454 13.9133 10.8047 14.0625 10.8047C14.2117 10.8047 14.3548 10.7454 14.4602 10.6399C14.5657 10.5344 14.625 10.3914 14.625 10.2422V7.73766C14.6419 7.63992 14.6497 7.54082 14.6482 7.44164V5.32875C14.6456 5.18045 14.6994 5.03669 14.7987 4.92653C14.8981 4.81637 15.0355 4.74803 15.1833 4.73531C15.2594 4.7316 15.3354 4.74338 15.4068 4.76993C15.4782 4.79649 15.5435 4.83727 15.5986 4.8898C15.6538 4.94234 15.6977 5.00553 15.7277 5.07554C15.7577 5.14555 15.7732 5.22093 15.7732 5.29711V8.6018C15.7732 8.75098 15.8325 8.89406 15.938 8.99955C16.0434 9.10503 16.1865 9.1643 16.3357 9.1643C16.4849 9.1643 16.628 9.10503 16.7334 8.99955C16.8389 8.89406 16.8982 8.75098 16.8982 8.6018V5.29711C16.8982 5.14792 16.9575 5.00485 17.063 4.89936C17.1684 4.79387 17.3115 4.73461 17.4607 4.73461C17.6099 4.73461 17.753 4.79387 17.8584 4.89936C17.9639 5.00485 18.0232 5.14792 18.0232 5.29711V8.6018C18.0232 8.75098 18.0825 8.89406 18.188 8.99955C18.2934 9.10503 18.4365 9.1643 18.5857 9.1643C18.7349 9.1643 18.878 9.10503 18.9834 8.99955C19.0889 8.89406 19.1482 8.75098 19.1482 8.6018V5.29711C19.1482 5.22093 19.1637 5.14555 19.1937 5.07554C19.2237 5.00553 19.2676 4.94234 19.3228 4.8898C19.3779 4.83727 19.4432 4.79649 19.5146 4.76993C19.586 4.74338 19.662 4.7316 19.7381 4.73531C19.8859 4.74803 20.0233 4.81637 20.1227 4.92653C20.222 5.03669 20.2758 5.18045 20.2732 5.32875V8.6018C20.2732 8.75098 20.3325 8.89406 20.438 8.99955C20.5434 9.10503 20.6865 9.1643 20.8357 9.1643C20.9849 9.1643 21.128 9.10503 21.2334 8.99955C21.3389 8.89406 21.3982 8.75098 21.3982 8.6018V6.42211C21.3982 6.34593 21.4137 6.27055 21.4437 6.20054C21.4737 6.13053 21.5176 6.06734 21.5728 6.0148C21.6279 5.96227 21.6932 5.92149 21.7646 5.89493C21.836 5.86838 21.912 5.8566 21.9881 5.86031C22.1359 5.87303 22.2733 5.94137 22.3727 6.05153C22.472 6.16169 22.5258 6.30545 22.5232 6.45375V13.4316ZM24.75 10.875H23.6482V7.5H24.75V10.875ZM30.375 16.2188C30.375 16.2933 30.3454 16.3649 30.2926 16.4176C30.2399 16.4704 30.1683 16.5 30.0938 16.5H26.1562C26.0817 16.5 26.0101 16.4704 25.9574 16.4176C25.9046 16.3649 25.875 16.2933 25.875 16.2188V2.15625C25.875 2.08166 25.9046 2.01012 25.9574 1.95738C26.0101 1.90463 26.0817 1.875 26.1562 1.875H30.0938C30.1683 1.875 30.2399 1.90463 30.2926 1.95738C30.3454 2.01012 30.375 2.08166 30.375 2.15625V16.2188ZM34.3125 14.5312C34.3125 14.6058 34.2829 14.6774 34.2301 14.7301C34.1774 14.7829 34.1058 14.8125 34.0312 14.8125H31.7812C31.7067 14.8125 31.6351 14.7829 31.5824 14.7301C31.5296 14.6774 31.5 14.6058 31.5 14.5312V3.84375C31.5 3.76916 31.5296 3.69762 31.5824 3.64488C31.6351 3.59213 31.7067 3.5625 31.7812 3.5625H34.0312C34.1058 3.5625 34.1774 3.59213 34.2301 3.64488C34.2829 3.69762 34.3125 3.76916 34.3125 3.84375V14.5312Z" fill="black"/>
</svg>
