<svg width="35" height="37" viewBox="0 0 35 37" fill="none" xmlns="http://www.w3.org/2000/svg">
<path d="M29.2139 1.23266C29.2104 1.07914 29.1469 0.933084 29.0371 0.825732C28.9273 0.71838 28.7799 0.658251 28.6263 0.658203H6.37347C6.21991 0.658251 6.07246 0.71838 5.96266 0.825732C5.85286 0.933084 5.78943 1.07914 5.78592 1.23266C5.70092 4.59741 4.42806 6.72658 3.08061 8.98072C1.57662 11.4972 0.0192121 14.0991 0.0447433 18.4998C0.154259 19.6461 -0.307991 21.6365 1.36699 27.9887C1.96227 30.2472 2.52463 32.3804 2.60795 35.768C2.61163 35.9214 2.67516 36.0673 2.78495 36.1744C2.89474 36.2816 3.04209 36.3415 3.1955 36.3415H15.5647C15.6419 36.3415 15.7184 36.3264 15.7898 36.2968C15.8611 36.2673 15.9259 36.224 15.9805 36.1694C16.0351 36.1148 16.0784 36.05 16.108 35.9786C16.1375 35.9073 16.1527 35.8308 16.1526 35.7536V23.5833C16.6759 23.0957 17.1293 22.5381 17.5001 21.9264C17.8708 22.5384 18.3241 23.0964 18.8472 23.5846V35.7536C18.8472 35.9095 18.9091 36.059 19.0194 36.1693C19.1296 36.2795 19.2791 36.3415 19.4351 36.3415H31.8043C31.9577 36.3415 32.105 36.2816 32.2148 36.1744C32.3246 36.0673 32.3881 35.9214 32.3918 35.768C32.4758 32.3811 33.0382 30.2486 33.6348 27.9904C35.2678 21.7981 34.8737 19.2869 34.9564 18.3991C34.9564 14.0598 33.4131 11.4787 31.9205 8.98038C30.5717 6.72591 29.2992 4.5964 29.2139 1.23266ZM32.4966 27.6918C31.7806 30.1245 31.3572 32.634 31.2355 35.167H20.0226V24.4708C21.2799 25.2177 22.727 25.5837 24.1882 25.5243C24.2654 25.5226 24.3416 25.5058 24.4123 25.4747C24.483 25.4436 24.5468 25.3989 24.6002 25.3431C24.6537 25.2873 24.6955 25.2216 24.7235 25.1496C24.7515 25.0776 24.7651 25.0008 24.7634 24.9236C24.7574 24.7687 24.6914 24.6221 24.5794 24.5148C24.4674 24.4075 24.3181 24.3479 24.163 24.3485C22.8771 24.4095 21.6037 24.0724 20.5164 23.3831C19.4291 22.6937 18.581 21.6858 18.0876 20.4967V14.3309C18.0876 14.1749 18.0257 14.0254 17.9154 13.9152C17.8052 13.8049 17.6556 13.743 17.4997 13.743C17.3438 13.743 17.1943 13.8049 17.084 13.9152C16.9738 14.0254 16.9118 14.1749 16.9118 14.3309V20.498C16.4178 21.6863 15.5696 22.6936 14.4827 23.3826C13.3958 24.0716 12.1229 24.4088 10.8374 24.3485C10.6815 24.3452 10.5306 24.4039 10.418 24.5118C10.3054 24.6197 10.2403 24.7679 10.2369 24.9238C10.2336 25.0797 10.2923 25.2306 10.4002 25.3432C10.5081 25.4558 10.6563 25.521 10.8122 25.5243C12.2734 25.5836 13.7204 25.2178 14.9778 24.4711V35.1657H3.76424C3.64307 32.6321 3.21994 30.122 2.50381 27.6887C0.9249 21.701 1.28469 19.1663 1.22052 18.4965C1.19701 14.4219 2.6019 12.0713 4.08977 9.58272C5.3838 7.41895 6.71915 5.18463 6.93583 1.83398H28.0643C28.281 5.18496 29.6163 7.41928 30.91 9.58339C32.3854 12.0525 33.7793 14.3843 33.7793 18.3991C33.6731 19.5365 34.1105 21.571 32.4966 27.6904V27.6918Z" fill="black"/>
</svg>
