<svg width="27" height="37" viewBox="0 0 27 37" fill="none" xmlns="http://www.w3.org/2000/svg">
<path d="M24.9043 36.2374H2.09571C1.97548 36.2375 1.85871 36.1972 1.76411 36.123C1.66951 36.0488 1.60255 35.945 1.57398 35.8282C1.27943 34.6299 1.0157 33.3851 0.768446 32.0212C-0.454187 25.2982 1.53671 20.9502 3.13703 17.4564C3.54696 16.5613 3.93396 15.7156 4.22135 14.9201C5.52926 11.2952 0.860897 1.63243 0.81503 1.53496C0.752686 1.40676 0.743824 1.25904 0.790394 1.1243C0.836964 0.989567 0.935151 0.878848 1.06335 0.816505C1.19156 0.754161 1.33928 0.7453 1.47401 0.79187C1.60875 0.838439 1.71947 0.936626 1.78181 1.06483C1.9832 1.47763 6.69456 11.2358 5.234 15.2856C4.93156 16.1234 4.53525 16.9884 4.116 17.9036C2.57731 21.2612 0.663813 25.4394 1.82553 31.8299C2.04053 33.016 2.26915 34.1103 2.51926 35.1624H24.4815C24.7324 34.1046 24.9595 33.0124 25.1738 31.8299C26.3363 25.4394 24.4228 21.2612 22.8855 17.9036C22.4662 16.9877 22.0699 16.1227 21.7675 15.2856C20.3084 11.2358 25.0183 1.47835 25.2197 1.06483C25.249 0.998961 25.2913 0.939671 25.3441 0.890491C25.3968 0.841311 25.4589 0.803247 25.5267 0.778563C25.5944 0.75388 25.6665 0.743082 25.7385 0.746814C25.8105 0.750546 25.881 0.768731 25.9459 0.800286C26.0107 0.831841 26.0685 0.87612 26.1159 0.930488C26.1633 0.984856 26.1992 1.0482 26.2216 1.11675C26.244 1.1853 26.2523 1.25765 26.2462 1.3295C26.24 1.40135 26.2195 1.47122 26.1858 1.53496C26.1392 1.63243 21.4708 11.2952 22.7794 14.9201C23.0661 15.7156 23.4531 16.5613 23.863 17.4564C25.4634 20.9502 27.4543 25.2982 26.2316 32.0212C25.9858 33.3772 25.7221 34.622 25.4261 35.8282C25.3974 35.9449 25.3304 36.0486 25.2358 36.1228C25.1413 36.197 25.0245 36.2373 24.9043 36.2374Z" fill="black"/>
<path d="M13.5002 34.0746C13.4045 34.0746 13.3105 34.0491 13.2279 34.0005C13.1454 33.952 13.0773 33.8823 13.0308 33.7986C9.4195 27.3107 1.05744 27.0856 0.973587 27.0842C0.901241 27.0828 0.829925 27.0668 0.76389 27.0372C0.697855 27.0076 0.638455 26.965 0.58923 26.912C0.540006 26.859 0.501966 26.7966 0.477379 26.7285C0.452792 26.6604 0.442161 26.5881 0.44612 26.5159C0.61354 24.685 0.998475 22.8807 1.59279 21.1409C1.6225 21.045 1.67852 20.9593 1.75449 20.8936C1.83046 20.828 1.92332 20.7849 2.02253 20.7694C2.12174 20.7539 2.22332 20.7665 2.31572 20.8058C2.40812 20.8451 2.48764 20.9096 2.54524 20.9918C2.56602 21.0205 5.01774 24.2498 13.4973 24.2498C21.9769 24.2498 24.4287 21.0205 24.4523 20.9882C24.5107 20.909 24.5896 20.847 24.6805 20.8092C24.7714 20.7713 24.8709 20.7589 24.9683 20.7732C25.066 20.7876 25.1579 20.8286 25.2338 20.8918C25.3097 20.9551 25.3666 21.038 25.3983 21.1316C26.0259 22.8723 26.4143 24.6901 26.5529 26.5352C26.5571 26.6077 26.5467 26.6802 26.5222 26.7485C26.4977 26.8167 26.4596 26.8793 26.4102 26.9325C26.3609 26.9857 26.3013 27.0283 26.235 27.0578C26.1688 27.0873 26.0972 27.1031 26.0247 27.1043C25.9408 27.1043 17.578 27.3193 13.9675 33.8029C13.9206 33.8855 13.8526 33.9541 13.7705 34.0019C13.6884 34.0496 13.5952 34.0747 13.5002 34.0746ZM1.5634 26.04C3.52707 26.192 9.97492 27.1 13.5002 32.4979C17.0255 27.1 23.4762 26.2034 25.4399 26.0544C25.3032 24.7831 25.0391 23.5289 24.6515 22.3105C23.3974 23.3891 20.2082 25.3248 13.4973 25.3248C6.80725 25.3248 3.62024 23.4027 2.35675 22.322C1.97952 23.5345 1.71396 24.7791 1.5634 26.04Z" fill="black"/>
<path d="M13.5004 21.6532C13.1903 21.6534 12.887 21.5615 12.6291 21.3893C12.3711 21.2171 12.17 20.9722 12.0512 20.6857C11.9324 20.3992 11.9013 20.0839 11.9617 19.7797C12.0221 19.4755 12.1714 19.196 12.3907 18.9766C12.6099 18.7573 12.8893 18.6078 13.1935 18.5473C13.4977 18.4867 13.813 18.5177 14.0996 18.6364C14.3862 18.755 14.6311 18.956 14.8034 19.2139C14.9758 19.4718 15.0678 19.775 15.0678 20.0852C15.0672 20.5007 14.9019 20.8991 14.6081 21.1931C14.3143 21.487 13.916 21.6525 13.5004 21.6532ZM13.5004 19.5928C13.4028 19.5927 13.3074 19.6215 13.2262 19.6756C13.145 19.7297 13.0817 19.8067 13.0443 19.8969C13.0069 19.987 12.9971 20.0862 13.0161 20.1819C13.0351 20.2776 13.0821 20.3655 13.1511 20.4345C13.2201 20.5035 13.308 20.5505 13.4037 20.5695C13.4994 20.5885 13.5986 20.5787 13.6887 20.5413C13.7788 20.5039 13.8558 20.4406 13.91 20.3594C13.9641 20.2782 13.9929 20.1827 13.9928 20.0852C13.9929 20.0204 13.9802 19.9563 13.9555 19.8964C13.9308 19.8366 13.8946 19.7822 13.8489 19.7363C13.8031 19.6904 13.7488 19.6541 13.6891 19.6292C13.6293 19.6043 13.5652 19.5915 13.5004 19.5914V19.5928Z" fill="black"/>
<path d="M13.4999 36.2374C13.3574 36.2374 13.2206 36.1808 13.1198 36.08C13.019 35.9792 12.9624 35.8425 12.9624 35.6999V33.537C12.9624 33.3945 13.019 33.2577 13.1198 33.1569C13.2206 33.0561 13.3574 32.9995 13.4999 32.9995C13.6425 32.9995 13.7792 33.0561 13.88 33.1569C13.9808 33.2577 14.0374 33.3945 14.0374 33.537V35.6999C14.0374 35.8425 13.9808 35.9792 13.88 36.08C13.7792 36.1808 13.6425 36.2374 13.4999 36.2374Z" fill="black"/>
<path d="M18.9927 9.95284C16.9985 9.87021 15.0791 9.17001 13.5002 7.94904C7.14478 12.3809 3.53851 8.08521 3.50268 8.04006C3.41795 7.92895 3.37982 7.78922 3.39636 7.65048C3.4129 7.51174 3.48282 7.38489 3.5913 7.29683C3.69977 7.20876 3.83828 7.1664 3.97746 7.17871C4.11664 7.19103 4.24556 7.25706 4.33688 7.36281C4.46158 7.51259 7.48018 11.0328 13.182 6.85541C13.2743 6.78802 13.3856 6.75171 13.4998 6.75171C13.6141 6.75171 13.7254 6.78802 13.8177 6.85541C19.5195 11.0321 22.5395 7.51259 22.6642 7.36066C22.7543 7.25013 22.8846 7.17992 23.0265 7.16548C23.1683 7.15103 23.3101 7.19352 23.4206 7.28362C23.5312 7.37371 23.6014 7.50402 23.6158 7.64588C23.6303 7.78774 23.5878 7.92953 23.4977 8.04006C22.9194 8.65246 22.2206 9.13855 21.4453 9.46774C20.67 9.79693 19.835 9.96209 18.9927 9.95284Z" fill="black"/>
</svg>
