<svg width="22" height="36" viewBox="0 0 22 36" fill="none" xmlns="http://www.w3.org/2000/svg">
<path d="M14.1409 19.8411V4.7228C14.1409 2.11443 12.0264 0 9.41807 0C6.80971 0 4.69528 2.11443 4.69528 4.7228V19.8344C0.613186 22.4388 -0.584799 27.8594 2.01962 31.9415C3.62686 34.4606 6.40641 35.9877 9.39458 35.9933L9.44157 36C14.2838 35.9909 18.2017 32.0582 18.1927 27.2161C18.187 24.2279 16.6599 21.4484 14.1409 19.8411ZM5.72913 33.6663C2.17461 31.6141 0.956822 27.069 3.00899 23.5145C3.66127 22.3848 4.59936 21.4467 5.72913 20.7944C5.93766 20.674 6.06571 20.4511 6.06479 20.2104V4.7228C6.06479 2.856 7.57813 1.34266 9.44493 1.34266C11.3117 1.34266 12.8251 2.856 12.8251 4.7228V20.2104C12.8241 20.4511 12.9522 20.674 13.1607 20.7944C16.7152 22.8466 17.933 27.3917 15.8809 30.9462C13.8287 34.5007 9.28356 35.7185 5.72913 33.6663Z" fill="black"/>
<path d="M10.1129 22.4059V12.2219C10.1129 11.8511 9.81235 11.5505 9.44161 11.5505C9.07087 11.5505 8.77028 11.8511 8.77028 12.2219V22.4059C6.23425 22.7696 4.47319 25.1203 4.83688 27.6563C5.16516 29.9453 7.12913 31.6431 9.44161 31.6367C12.0036 31.6437 14.0862 29.5726 14.0933 27.0106C14.0997 24.6982 12.402 22.7342 10.1129 22.4059ZM9.44161 30.2873C7.62113 30.2873 6.14538 28.8116 6.14538 26.9911C6.14908 25.1722 7.62264 23.6986 9.44161 23.6949C11.2621 23.6949 12.7378 25.1706 12.7378 26.9911C12.7378 28.8116 11.262 30.2873 9.44161 30.2873Z" fill="black"/>
<path d="M20.6865 4.61548H16.4907C16.1199 4.61548 15.8193 4.91607 15.8193 5.28681C15.8193 5.65755 16.1199 5.95814 16.4907 5.95814H20.6865C21.0572 5.95814 21.3578 5.65755 21.3578 5.28681C21.3578 4.91607 21.0572 4.61548 20.6865 4.61548Z" fill="black"/>
<path d="M19.7936 7.97192H17.3298C16.959 7.97192 16.6584 8.27251 16.6584 8.64325C16.6584 9.01399 16.959 9.31458 17.3298 9.31458H19.7936C20.1643 9.31458 20.4649 9.01399 20.4649 8.64325C20.4649 8.27251 20.1643 7.97192 19.7936 7.97192Z" fill="black"/>
<path d="M20.6865 11.3286H16.4907C16.1199 11.3286 15.8193 11.6292 15.8193 11.9999C15.8193 12.3707 16.1199 12.6713 16.4907 12.6713H20.6865C21.0572 12.6713 21.3578 12.3707 21.3578 11.9999C21.3578 11.6292 21.0572 11.3286 20.6865 11.3286Z" fill="black"/>
<path d="M19.7936 14.6853H17.3298C16.959 14.6853 16.6584 14.9859 16.6584 15.3566C16.6584 15.7274 16.959 16.028 17.3298 16.028H19.7936C20.1643 16.028 20.4649 15.7274 20.4649 15.3566C20.4649 14.9859 20.1643 14.6853 19.7936 14.6853Z" fill="black"/>
<path d="M20.6865 18.042H16.4907C16.1199 18.042 15.8193 18.3426 15.8193 18.7133C15.8193 19.0841 16.1199 19.3846 16.4907 19.3846H20.6865C21.0572 19.3846 21.3578 19.0841 21.3578 18.7133C21.3578 18.3426 21.0572 18.042 20.6865 18.042Z" fill="black"/>
</svg>
