<svg width="32" height="32" viewBox="0 0 32 32" fill="none" xmlns="http://www.w3.org/2000/svg">
<path d="M10.158 4.1543C8.34059 4.1543 6.9126 5.19284 6.9126 6.49101C6.9126 7.78919 8.34059 8.82773 10.158 8.82773C11.9755 8.82773 13.4035 7.78919 13.4035 6.49101C13.4035 5.19284 11.9755 4.1543 10.158 4.1543ZM10.158 7.52955C9.05459 7.52955 8.21077 6.94537 8.21077 6.49101C8.21077 5.97174 9.05459 5.45247 10.158 5.45247C11.2615 5.45247 12.1053 6.03665 12.1053 6.49101C12.1053 7.01028 11.2615 7.52955 10.158 7.52955Z" fill="black"/>
<path d="M28.2029 11.6836H19.7647V6.49087C19.7647 2.92089 15.4808 0 10.1582 0C4.83573 0 0.551758 2.92089 0.551758 6.49087V19.7323C0.551758 22.6531 3.47265 25.2495 7.62681 26.0284V31.3509C7.62681 31.7404 7.88644 32 8.2759 32H28.2029C30.0203 32 31.4483 30.572 31.4483 28.7546V14.929C31.4483 13.1116 30.0203 11.6836 28.2029 11.6836ZM10.1582 1.29817C14.7668 1.29817 18.4666 3.63489 18.4666 6.49087C18.4666 9.34686 14.7668 11.6836 10.1582 11.6836C5.54973 11.6836 1.84993 9.34686 1.84993 6.49087C1.84993 3.63489 5.54973 1.29817 10.1582 1.29817ZM18.4666 9.73631V11.6836H15.8702C16.9088 11.1643 17.8175 10.5152 18.4666 9.73631ZM7.62681 17.5254V24.6653C4.25155 23.9513 1.84993 22.0041 1.84993 19.7323V9.73631C3.53756 11.6836 6.58827 12.9817 10.1582 12.9817H28.2029C29.3063 12.9817 30.1501 13.8256 30.1501 14.929C30.1501 16.0325 29.3063 16.8763 28.2029 16.8763H8.2759C7.88644 16.8763 7.62681 17.1359 7.62681 17.5254ZM30.28 28.6897H30.1501C30.1501 29.7931 29.3063 30.6369 28.2029 30.6369H27.424V27.6511C27.424 27.2617 27.1643 27.002 26.7749 27.002C26.3854 27.002 26.1258 27.2617 26.1258 27.6511V30.6369H23.7242V27.6511C23.7242 27.2617 23.4645 27.002 23.0751 27.002C22.6856 27.002 22.426 27.2617 22.426 27.6511V30.6369H20.0244V27.6511C20.0244 27.2617 19.7647 27.002 19.3753 27.002C18.9858 27.002 18.7262 27.2617 18.7262 27.6511V30.6369H16.3246V27.6511C16.3246 27.2617 16.0649 27.002 15.6755 27.002C15.286 27.002 15.0264 27.2617 15.0264 27.6511V30.6369H12.6248V27.6511C12.6248 27.2617 12.3651 27.002 11.9757 27.002C11.5862 27.002 11.3266 27.2617 11.3266 27.6511V30.6369H9.0548V25.6389C9.0548 25.574 9.11971 25.5091 9.11971 25.5091C9.11971 25.3793 9.11971 25.3144 9.0548 25.1846V18.1744H28.3327C29.0467 18.1744 29.7607 17.9148 30.28 17.5254V28.6897Z" fill="black"/>
</svg>
