<svg width="64" height="62" viewBox="0 0 64 62" fill="none" xmlns="http://www.w3.org/2000/svg">
<path d="M60.5002 30.5001C60.2237 30.5001 60.0002 30.7236 60.0002 31C60.0002 47.2666 46.7667 60.5001 30.5001 60.5001C14.2335 60.5001 1.00008 47.2666 1.00008 31C1.00008 14.7334 14.2334 1.49999 30.5001 1.50011C39.9699 1.50011 48.9297 6.0967 54.4669 13.7969C54.6281 14.0216 54.9395 14.0714 55.1652 13.9112C55.3888 13.7501 55.4405 13.4376 55.2794 13.2129C49.5547 5.2529 40.2912 0.500031 30.5001 0.500031C13.6826 0.500031 0 14.1826 0 31C0 47.8174 13.6826 61.5 30.5001 61.5C47.3175 61.5 61.0001 47.8174 61.0001 31C61.0001 30.7236 60.7765 30.5001 60.5002 30.5001Z" fill="#7D7D7D"/>
<path d="M63.8537 33.6468L60.8537 30.6467C60.6584 30.4514 60.342 30.4514 60.1467 30.6467C59.9514 30.842 59.9514 31.1584 60.1467 31.3537L63.1467 34.3537C63.2444 34.4514 63.3724 34.5003 63.5003 34.5003C63.6283 34.5003 63.7561 34.4515 63.8537 34.3537C64.049 34.1584 64.049 33.8421 63.8537 33.6468Z" fill="#7D7D7D"/>
<path d="M60.8537 30.6467C60.6585 30.4514 60.342 30.4514 60.1467 30.6467L57.1467 33.6468C56.9514 33.842 56.9514 34.1584 57.1467 34.3537C57.2444 34.4514 57.3724 34.5003 57.5003 34.5003C57.6282 34.5003 57.7562 34.4515 57.8537 34.3537L60.8537 31.3537C61.049 31.1584 61.049 30.842 60.8537 30.6467Z" fill="#7D7D7D"/>
<path d="M45.5003 21.9993H17.5003C17.2239 21.9993 17.0002 22.223 17.0002 22.4993V44.4994C17.0002 44.7757 17.2239 44.9994 17.5003 44.9994H45.5005C45.7768 44.9994 46.0006 44.7757 46.0004 44.4994V22.4993C46.0004 22.223 45.7768 21.9993 45.5003 21.9993ZM45.0004 43.9994H18.0003V22.9993H45.0004V43.9994Z" fill="#7D7D7D"/>
<path d="M45.8533 22.1468L41.8532 18.1469C41.7594 18.0531 41.6325 18.0003 41.4997 18.0003H21.4997C21.3668 18.0003 21.2399 18.0531 21.1461 18.1469L17.146 22.1468C17.0035 22.2893 16.9605 22.5051 17.0376 22.6917C17.1148 22.8782 17.2974 23.0002 17.4996 23.0002H45.4997C45.7019 23.0002 45.8845 22.8782 45.9617 22.6917C46.0387 22.5051 45.9959 22.2895 45.8533 22.1468ZM18.7067 22.0003L21.7066 19.0003H41.2927L44.2927 22.0003H18.7067Z" fill="#7D7D7D"/>
<path d="M30.7241 18.0529C30.4771 17.9298 30.1782 18.0305 30.0532 18.2765L28.0532 22.2766C27.9302 22.5237 28.0298 22.8235 28.2768 22.9475C28.3491 22.9836 28.4253 23.0003 28.5005 23.0003C28.6832 23.0003 28.8598 22.8987 28.9477 22.7237L30.9478 18.7237C31.0708 18.4767 30.9713 18.1769 30.7241 18.0529Z" fill="#7D7D7D"/>
<path d="M34.9474 22.276L32.9475 18.2759C32.8235 18.0287 32.5237 17.9282 32.2766 18.0522C32.0294 18.1762 31.9299 18.4759 32.053 18.7231L34.053 22.7231C34.1409 22.8979 34.3176 22.9994 34.5002 22.9994C34.5755 22.9994 34.6516 22.9827 34.7238 22.9469C34.9709 22.8228 35.0705 22.523 34.9474 22.276Z" fill="#7D7D7D"/>
<path d="M28.5 22C28.2237 22 28 22.2236 28 22.4999V26.5C28 26.7765 28.2237 27.0001 28.5 27.0001C28.7763 27.0001 29 26.7765 29 26.5V22.4999C29 22.2236 28.7763 22 28.5 22Z" fill="#7D7D7D"/>
<path d="M34.5 26H28.5C28.2237 26 28 26.2235 28 26.4999C28 26.7764 28.2237 27 28.5 27H34.5C34.7763 27 34.9999 26.7762 34.9999 26.4999C34.9999 26.2236 34.7763 26 34.5 26Z" fill="#7D7D7D"/>
<path d="M34.4997 22C34.2233 22 33.9998 22.2236 33.9998 22.4999V26.5C33.9998 26.7765 34.2233 27.0001 34.4997 27.0001C34.776 27.0001 34.9997 26.7765 34.9997 26.5V22.4999C34.9997 22.2236 34.776 22 34.4997 22Z" fill="#7D7D7D"/>
<path d="M28.5 26C28.2237 26 28 26.2236 28 26.4999V27C28 27.2763 28.2237 27.5 28.5 27.5C28.7763 27.5 29 27.2763 29 27V26.4999C29 26.2236 28.7763 26 28.5 26Z" fill="#7D7D7D"/>
<path d="M30.4999 26C30.2234 26 29.9998 26.2236 29.9998 26.4999V27C29.9998 27.2763 30.2234 27.5 30.4999 27.5C30.7762 27.5 30.9998 27.2763 30.9998 27V26.4999C30.9998 26.2236 30.7762 26 30.4999 26Z" fill="#7D7D7D"/>
<path d="M32.4997 26C32.2234 26 31.9998 26.2236 31.9998 26.4999V27C31.9998 27.2763 32.2234 27.5 32.4997 27.5C32.7762 27.5 32.9999 27.2763 32.9999 27V26.4999C32.9999 26.2236 32.7762 26 32.4997 26Z" fill="#7D7D7D"/>
<path d="M34.4997 26C34.2233 26 33.9998 26.2236 33.9998 26.4999V27C33.9998 27.2763 34.2233 27.5 34.4997 27.5C34.776 27.5 34.9997 27.2763 34.9997 27V26.4999C34.9997 26.2236 34.776 26 34.4997 26Z" fill="#7D7D7D"/>
<path d="M43.5005 39.9994H41.5005C41.2242 39.9994 41.0005 40.2231 41.0005 40.4995V42.4994C41.0005 42.7758 41.2242 42.9995 41.5005 42.9995H43.5005C43.7768 42.9995 44.0005 42.7758 44.0005 42.4994V40.4995C44.0005 40.2231 43.7768 39.9994 43.5005 39.9994ZM43.0004 41.9994H42.0004V40.9995H43.0004V41.9994Z" fill="#7D7D7D"/>
<path d="M39.4997 39.9994H37.4997C37.2233 39.9994 36.9998 40.2231 36.9998 40.4995V42.4994C36.9998 42.7758 37.2233 42.9995 37.4997 42.9995H39.4997C39.7761 42.9995 39.9998 42.7758 39.9998 42.4994V40.4995C39.9998 40.2231 39.7761 39.9994 39.4997 39.9994ZM38.9997 41.9994H37.9997V40.9995H38.9997V41.9994Z" fill="#7D7D7D"/>
<path d="M29.5003 39.9994H19.5002C19.2239 39.9994 19.0002 40.2231 19.0002 40.4995C19.0002 40.7758 19.2239 40.9995 19.5002 40.9995H29.5003C29.7767 40.9995 30.0003 40.7758 30.0003 40.4995C30.0003 40.2231 29.7766 39.9994 29.5003 39.9994Z" fill="#7D7D7D"/>
<path d="M24.5003 42.0002H19.5002C19.2239 42.0002 19.0002 42.2239 19.0002 42.5002C19.0002 42.7766 19.2239 43.0003 19.5002 43.0003H24.5003C24.7766 43.0003 25.0002 42.7766 25.0002 42.5002C25.0002 42.2239 24.7766 42.0002 24.5003 42.0002Z" fill="#7D7D7D"/>
</svg>
