<svg width="65" height="51" viewBox="0 0 65 51" fill="none" xmlns="http://www.w3.org/2000/svg">
<path d="M49.6167 46.4697C49.4185 46.2714 49.0971 46.2714 48.8988 46.4697L45.8519 49.5166C45.6535 49.7149 45.6535 50.0362 45.8519 50.2345C45.9511 50.3337 46.081 50.3833 46.2109 50.3833C46.3408 50.3833 46.4707 50.3337 46.57 50.2345L49.6167 47.1878C49.815 46.9894 49.815 46.6681 49.6167 46.4697Z" fill="#7D7D7D"/>
<path d="M64.8517 31.2356C64.6534 31.0372 64.3319 31.0372 64.1336 31.2356L51.4383 43.9309C51.24 44.1292 51.24 44.4506 51.4383 44.6489C51.5374 44.7481 51.6674 44.7978 51.7973 44.7978C51.9272 44.7978 52.0571 44.7481 52.1564 44.6489L64.8517 31.9537C65.05 31.7554 65.05 31.4339 64.8517 31.2356Z" fill="#7D7D7D"/>
<path d="M64.8505 36.3136C64.6523 36.1153 64.3308 36.1153 64.1325 36.3136L50.9295 49.5168C50.7312 49.7152 50.7312 50.0364 50.9295 50.2348C51.0287 50.3339 51.1587 50.3836 51.2886 50.3836C51.4185 50.3836 51.5484 50.3339 51.6476 50.2348L64.8507 37.0316C65.0489 36.8332 65.0489 36.512 64.8505 36.3136Z" fill="#7D7D7D"/>
<path d="M52.1558 43.9295L33.3668 25.1405C33.1685 24.9422 32.8471 24.9422 32.6488 25.1405C32.4504 25.3387 32.4504 25.6601 32.6488 25.8585L51.4379 44.6476C51.5369 44.7468 51.667 44.7964 51.7969 44.7964C51.9268 44.7964 52.0567 44.7468 52.1558 44.6476C52.3543 44.4493 52.3543 44.1279 52.1558 43.9295Z" fill="#7D7D7D"/>
<path d="M49.6168 46.4687L31.3356 28.1875C31.1372 27.9892 30.8158 27.9892 30.6175 28.1875C30.4192 28.3857 30.4192 28.7071 30.6175 28.9055L48.8989 47.1867C48.998 47.2858 49.1279 47.3355 49.2578 47.3355C49.3877 47.3355 49.5178 47.2858 49.6168 47.1867C49.8151 46.9883 49.8151 46.6671 49.6168 46.4687Z" fill="#7D7D7D"/>
<path d="M51.6481 36.3133L37.4293 22.0945C37.231 21.8962 36.9096 21.8962 36.7113 22.0945C36.5129 22.2927 36.5129 22.6143 36.7113 22.8126L50.93 37.0311C51.0292 37.1303 51.1592 37.1799 51.2891 37.1799C51.419 37.1799 51.5489 37.1304 51.6481 37.0313C51.8465 36.833 51.8465 36.5117 51.6481 36.3133Z" fill="#7D7D7D"/>
<path d="M58.7569 29.203C58.5587 29.0047 58.2372 29.0047 58.0388 29.203L50.9295 36.3124C50.7312 36.5107 50.7312 36.832 50.9295 37.0303C51.0287 37.1295 51.1587 37.1791 51.2886 37.1791C51.4185 37.1791 51.5484 37.1296 51.6476 37.0303L58.7569 29.921C58.9552 29.7226 58.9552 29.4014 58.7569 29.203Z" fill="#7D7D7D"/>
<path d="M58.7575 29.2044L44.5387 14.9854C44.3404 14.7871 44.019 14.7871 43.8206 14.9854C43.6223 15.1837 43.6223 15.505 43.8206 15.7034L58.0394 29.922C58.1386 30.0212 58.2686 30.0709 58.3985 30.0709C58.5284 30.0709 58.6584 30.0213 58.7575 29.9222C58.9558 29.724 58.9558 29.4027 58.7575 29.2044Z" fill="#7D7D7D"/>
<path d="M44.5387 14.9854C44.3403 14.7871 44.0189 14.7871 43.8206 14.9854L36.7113 22.0948C36.5129 22.293 36.5129 22.6145 36.7113 22.8128C36.8104 22.9119 36.9405 22.9615 37.0704 22.9615C37.2003 22.9615 37.3302 22.9119 37.4293 22.8128L44.5387 15.7034C44.737 15.5053 44.737 15.1839 44.5387 14.9854Z" fill="#7D7D7D"/>
<path d="M64.8511 23.11C64.6529 22.9117 64.3314 22.9117 64.1331 23.11L62.1019 25.1413C61.9035 25.3395 61.9035 25.6609 62.1019 25.8593C62.2011 25.9584 62.331 26.0081 62.4609 26.0081C62.5909 26.0081 62.7208 25.9584 62.8198 25.8593L64.8511 23.8281C65.0495 23.6298 65.0495 23.3084 64.8511 23.11Z" fill="#7D7D7D"/>
<path d="M62.8199 25.1406L58.7574 21.078C58.5592 20.8797 58.2377 20.8797 58.0394 21.078C57.841 21.2764 57.841 21.5977 58.0394 21.7961L62.102 25.8585C62.2011 25.9577 62.331 26.0074 62.4609 26.0074C62.591 26.0074 62.7209 25.9577 62.8199 25.8585C63.0182 25.6605 63.0182 25.3389 62.8199 25.1406Z" fill="#7D7D7D"/>
<path d="M64.8512 14.9854C64.653 14.7871 64.3315 14.7871 64.1331 14.9854L58.0394 21.0791C57.841 21.2774 57.841 21.5988 58.0394 21.7971C58.1386 21.8963 58.2686 21.9459 58.3985 21.9459C58.5284 21.9459 58.6584 21.8963 58.7574 21.7971L64.8512 15.7034C65.0495 15.5053 65.0495 15.1839 64.8512 14.9854Z" fill="#7D7D7D"/>
<path d="M41.4923 45.4533L28.2892 32.2501C28.0908 32.0518 27.7695 32.0518 27.5711 32.2501C27.3728 32.4484 27.3728 32.77 27.5711 32.9683L40.7742 46.1714C40.8734 46.2705 41.0034 46.3202 41.1333 46.3202C41.2632 46.3202 41.3931 46.2705 41.4924 46.1714C41.6907 45.9731 41.6907 45.6516 41.4923 45.4533Z" fill="#7D7D7D"/>
<path d="M41.4918 45.4532C41.2934 45.2549 40.9721 45.2549 40.7737 45.4532L36.7113 49.5158C36.5129 49.7141 36.5129 50.0354 36.7113 50.2337C36.8104 50.3329 36.9405 50.3825 37.0704 50.3825C37.2003 50.3825 37.3302 50.3329 37.4293 50.2337L41.4918 46.1713C41.6901 45.9731 41.6901 45.6515 41.4918 45.4532Z" fill="#7D7D7D"/>
<path d="M10.0074 22.0945C9.8091 21.8962 9.48772 21.8962 9.28938 22.0945L3.19563 28.1883C2.99729 28.3865 2.99729 28.7079 3.19563 28.9062C3.29493 29.0054 3.42483 29.055 3.55473 29.055C3.68463 29.055 3.81466 29.0055 3.9137 28.9062L10.0074 22.8126C10.2058 22.6143 10.2058 22.2929 10.0074 22.0945Z" fill="#7D7D7D"/>
<path d="M17.2756 41.55L3.9137 28.188C3.71536 27.9897 3.39397 27.9897 3.19563 28.188C2.99729 28.3863 2.99729 28.7077 3.19563 28.906L16.5574 42.2679C16.6566 42.3671 16.7865 42.4167 16.9164 42.4167C17.0464 42.4167 17.1763 42.3671 17.2755 42.2679C17.4738 42.0696 17.4738 41.7483 17.2756 41.55Z" fill="#7D7D7D"/>
<path d="M21.3375 37.4879C21.1391 37.2895 20.8178 37.2895 20.6194 37.4879L16.557 41.5503C16.3586 41.7487 16.3586 42.07 16.557 42.2684C16.6561 42.3675 16.786 42.4172 16.9159 42.4172C17.046 42.4172 17.1759 42.3675 17.2749 42.2684L21.3375 38.2059C21.536 38.0076 21.536 37.6862 21.3375 37.4879Z" fill="#7D7D7D"/>
<path d="M33.3663 49.5161L21.3375 37.4873C21.1392 37.289 20.8178 37.289 20.6195 37.4873C20.4211 37.6857 20.4211 38.0071 20.6195 38.2054L32.6482 50.234C32.7474 50.3332 32.8773 50.3829 33.0072 50.3829C33.1371 50.3829 33.2671 50.3332 33.3663 50.234C33.5648 50.0358 33.5648 49.7144 33.3663 49.5161Z" fill="#7D7D7D"/>
<path d="M25.2414 48.5002C25.0431 48.3019 24.7217 48.3019 24.5234 48.5002L23.5076 49.5158C23.3093 49.7141 23.3093 50.0354 23.5076 50.2337C23.6069 50.3329 23.7368 50.3825 23.8667 50.3825C23.9966 50.3825 24.1267 50.3329 24.2258 50.2337L25.2414 49.2181C25.4396 49.0198 25.4396 48.6985 25.2414 48.5002Z" fill="#7D7D7D"/>
<path d="M25.2418 48.5008L21.1793 44.4382C20.981 44.2399 20.6596 44.2399 20.4613 44.4382C20.2629 44.6366 20.2629 44.958 20.4613 45.1563L24.5238 49.2188C24.623 49.3179 24.753 49.3676 24.8829 49.3676C25.0128 49.3676 25.1427 49.3179 25.2418 49.2188C25.4401 49.0204 25.4401 48.6992 25.2418 48.5008Z" fill="#7D7D7D"/>
<path d="M21.1792 44.4377C20.9809 44.2393 20.6595 44.2393 20.4612 44.4377L15.3831 49.5158C15.1848 49.7142 15.1848 50.0354 15.3831 50.2338C15.4823 50.3329 15.6122 50.3826 15.7421 50.3826C15.8721 50.3826 16.002 50.3329 16.1011 50.2338L21.1792 45.1557C21.3777 44.9574 21.3777 44.636 21.1792 44.4377Z" fill="#7D7D7D"/>
<path d="M13.0545 45.4534L0.914677 33.3137C0.716335 33.1153 0.39495 33.1153 0.196608 33.3137C-0.00173391 33.5119 -0.00173391 33.8334 0.196608 34.0317L12.3365 46.1716C12.4356 46.2708 12.5655 46.3204 12.6954 46.3204C12.8255 46.3204 12.9554 46.2708 13.0545 46.1715C13.2529 45.9733 13.2529 45.6517 13.0545 45.4534Z" fill="#7D7D7D"/>
<path d="M13.0543 45.4532C12.8559 45.2549 12.5346 45.2549 12.3362 45.4532L8.27376 49.5158C8.07541 49.7141 8.07541 50.0354 8.27376 50.2337C8.37293 50.3329 8.50283 50.3825 8.63273 50.3825C8.76263 50.3825 8.89253 50.3329 8.9917 50.2337L13.0543 46.1713C13.2526 45.9731 13.2526 45.6515 13.0543 45.4532Z" fill="#7D7D7D"/>
<path d="M7.98451 17.0073L0.914676 9.93873C0.716335 9.74039 0.39495 9.74039 0.196608 9.93873C-0.0017339 10.1371 -0.0017339 10.4585 0.196608 10.6568L7.26631 17.7255C7.36548 17.8247 7.49551 17.8743 7.62541 17.8743C7.75518 17.8743 7.88508 17.8248 7.98438 17.7255C8.18272 17.527 8.18272 17.2056 7.98451 17.0073Z" fill="#7D7D7D"/>
<path d="M7.98464 17.0095C7.78629 16.8111 7.46491 16.8111 7.26657 17.0095L0.149245 24.1259C-0.0490972 24.3242 -0.0490972 24.6456 0.149245 24.844C0.248416 24.9431 0.378442 24.9928 0.508342 24.9928C0.638242 24.9928 0.768142 24.9431 0.867313 24.844L7.98464 17.7277C8.18298 17.5292 8.18298 17.2078 7.98464 17.0095Z" fill="#7D7D7D"/>
<path d="M56.7262 6.85986C56.5279 6.66152 56.2065 6.66152 56.0082 6.85986L50.93 11.938C50.7317 12.1362 50.7317 12.4576 50.93 12.656C51.0292 12.7551 51.1592 12.8048 51.2891 12.8048C51.419 12.8048 51.5489 12.7551 51.6481 12.656L56.7262 7.57793C56.9246 7.37959 56.9246 7.0582 56.7262 6.85986Z" fill="#7D7D7D"/>
<path d="M42.5073 6.85986C42.3091 6.66152 41.9877 6.66152 41.7894 6.85986L36.7113 11.938C36.5129 12.1362 36.5129 12.4576 36.7113 12.656C36.8104 12.7551 36.9405 12.8048 37.0704 12.8048C37.2003 12.8048 37.3302 12.7551 37.4293 12.656L42.5073 7.57793C42.7057 7.37959 42.7057 7.0582 42.5073 6.85986Z" fill="#7D7D7D"/>
<path d="M64.8512 43.4222C64.653 43.2238 64.3315 43.2238 64.1331 43.4222L58.0394 49.5159C57.841 49.7142 57.841 50.0355 58.0394 50.2338C58.1386 50.333 58.2686 50.3827 58.3985 50.3827C58.5284 50.3827 58.6584 50.333 58.7574 50.2338L64.8512 44.1402C65.0495 43.9419 65.0495 43.6205 64.8512 43.4222Z" fill="#7D7D7D"/>
<path d="M56.7262 17.0159L51.6481 11.9379C51.4499 11.7396 51.1283 11.7396 50.93 11.9379C50.7317 12.1361 50.7317 12.4575 50.93 12.6559L56.0082 17.734C56.1073 17.8332 56.2374 17.8828 56.3671 17.8828C56.497 17.8828 56.6271 17.8332 56.7262 17.734C56.9246 17.5357 56.9246 17.2143 56.7262 17.0159Z" fill="#7D7D7D"/>
<path d="M64.8511 8.89136C64.6529 8.69301 64.3314 8.69301 64.133 8.89136L56.0081 17.0163C55.8098 17.2146 55.8098 17.536 56.0081 17.7343C56.1073 17.8335 56.2373 17.8831 56.3671 17.8831C56.497 17.8831 56.627 17.8335 56.7262 17.7343L64.8511 9.60942C65.0495 9.41095 65.0495 9.0897 64.8511 8.89136Z" fill="#7D7D7D"/>
<path d="M64.492 6.71115C64.2112 6.71115 63.984 6.93832 63.984 7.21907V49.3675H1.06307V7.21907C1.06307 6.93832 0.835778 6.71115 0.555154 6.71115C0.274529 6.71115 0.0473633 6.93832 0.0473633 7.21907V49.8753C0.0473633 50.156 0.274529 50.3831 0.555154 50.3831H64.492C64.7726 50.3831 64.9997 50.156 64.9997 49.8753V7.21907C64.9997 6.93832 64.7726 6.71115 64.492 6.71115Z" fill="#7D7D7D"/>
<path d="M21.8354 0.617599C14.8353 0.617599 9.14014 6.31263 9.14014 13.3129C9.14014 20.3668 18.8377 34.1333 21.8354 34.1333C24.8331 34.1333 34.5307 20.3668 34.5307 13.3129C34.5307 6.31275 28.8355 0.617599 21.8354 0.617599ZM21.8354 33.1177C19.6479 33.1177 10.1557 20.1199 10.1557 13.313C10.1557 6.87273 15.395 1.63343 21.8354 1.63343C28.2757 1.63343 33.5151 6.87273 33.5151 13.313C33.5151 20.1199 24.0229 33.1177 21.8354 33.1177Z" fill="#7D7D7D"/>
<path d="M7.61711 6.71115H0.555154C0.274529 6.71115 0.0473633 6.93832 0.0473633 7.21907C0.0473633 7.49969 0.274529 7.72686 0.555154 7.72686H7.61698C7.89761 7.72686 8.12478 7.49969 8.12478 7.21907C8.12478 6.93832 7.89761 6.71115 7.61711 6.71115Z" fill="#7D7D7D"/>
<path d="M64.4922 6.71115H36.0547C35.774 6.71115 35.5469 6.93832 35.5469 7.21907C35.5469 7.49969 35.774 7.72686 36.0547 7.72686H64.4922C64.7728 7.72686 65 7.49969 65 7.21907C65 6.93832 64.7728 6.71115 64.4922 6.71115Z" fill="#7D7D7D"/>
</svg>
