<svg width="59" height="61" viewBox="0 0 59 61" fill="none" xmlns="http://www.w3.org/2000/svg">
<path d="M49.9447 28.4921L47.7932 19.4203C47.7328 19.1652 47.4852 19.0087 47.2358 19.0702C46.9882 19.1335 46.837 19.3915 46.8982 19.6473L49.0497 28.7192C49.3729 30.0827 48.8356 32.0745 47.875 33.0675L22.4547 59.3505C21.5563 60.2794 20.0936 60.2794 19.1951 59.3514L1.59589 41.1557C1.16277 40.707 0.924319 40.1095 0.924319 39.4701C0.924319 38.8315 1.16185 38.234 1.59497 37.7863L27.0171 11.5024C27.9776 10.5102 29.9031 9.95174 31.2219 10.2868L43.1238 13.3043C44.241 13.5891 45.4636 14.7106 45.9658 15.9141C46.0658 16.156 46.3394 16.2668 46.5717 16.1625C46.8057 16.0583 46.9129 15.7772 46.812 15.5361C46.1863 14.0377 44.7604 12.7393 43.3435 12.3782L31.4417 9.36071C29.8203 8.95021 27.5455 9.60833 26.3653 10.8285L0.943105 37.1123C-0.314522 38.4125 -0.314522 40.5281 0.944027 41.8293L18.5433 60.025C19.1717 60.6747 19.9981 60.9996 20.8245 60.9996C21.65 60.9996 22.4772 60.6748 23.1065 60.025L48.5267 33.7414C49.7259 32.5017 50.3489 30.1953 49.9447 28.4921Z" fill="#7D7D7D"/>
<path d="M41.482 21.9378C41.2408 21.8615 40.9815 22.0067 40.9095 22.2589C40.7807 22.7095 40.5395 23.1274 40.2146 23.4661C39.1344 24.583 37.3798 24.5822 36.3012 23.468C35.2227 22.3521 35.2219 20.538 36.3003 19.4231C37.2501 18.442 38.7364 18.3061 39.8355 19.0991C39.9689 19.1939 40.0958 19.302 40.2164 19.4249C40.3973 19.61 40.6889 19.6072 40.8681 19.4202C41.0473 19.2331 41.0455 18.9315 40.8645 18.7464C40.7042 18.5835 40.5359 18.4401 40.3604 18.3154C38.8958 17.2581 36.9136 17.4414 35.6487 18.7491C34.211 20.2355 34.211 22.6545 35.6496 24.1418C36.3678 24.8846 37.3114 25.2559 38.2557 25.2559C39.2009 25.2559 40.1471 24.8836 40.8672 24.139C41.3012 23.6867 41.6216 23.1311 41.7934 22.5298C41.8655 22.2776 41.726 22.0123 41.482 21.9378Z" fill="#7D7D7D"/>
<path d="M39.5919 22.0453C39.403 21.8694 39.1114 21.8861 38.9412 22.0816C38.7656 22.2836 38.518 22.3989 38.257 22.3989C38.257 22.3989 38.2543 22.3989 38.2525 22.3989C38.0077 22.3989 37.7772 22.3003 37.6043 22.1207C37.4296 21.941 37.3333 21.7019 37.3343 21.4459C37.3352 20.9201 37.7484 20.4929 38.256 20.4929C38.5107 20.4929 38.7169 20.2796 38.7169 20.0163C38.7169 19.7529 38.5107 19.5397 38.256 19.5397C37.2407 19.5397 36.4133 20.3942 36.4124 21.445C36.4115 21.955 36.6033 22.4342 36.9527 22.7954C37.3001 23.1546 37.761 23.352 38.2489 23.352C38.2525 23.352 38.2562 23.352 38.2597 23.352C38.7792 23.352 39.2779 23.1212 39.6271 22.7182C39.7972 22.5218 39.7811 22.2213 39.5919 22.0453Z" fill="#7D7D7D"/>
<path d="M58.5364 0.000396729C58.2815 0.000396729 58.0754 0.213691 58.0754 0.477031C58.0754 2.97412 54.4025 17.3632 38.1599 20.9792C37.9115 21.0351 37.753 21.2882 37.8062 21.546C37.853 21.7694 38.0438 21.922 38.2562 21.922C38.2886 21.922 38.321 21.9182 38.3544 21.9108C55.1903 18.1627 58.9973 3.09339 58.9973 0.477031C58.9973 0.213571 58.7911 0.000396729 58.5364 0.000396729Z" fill="#7D7D7D"/>
<path d="M58.5388 0.000396729C58.5388 0.000396729 58.5388 0.000396729 58.5379 0.000396729C57.0363 0.000396729 48.1719 1.85629 42.1953 10.687C42.0486 10.9029 42.0999 11.1998 42.3079 11.3506C42.389 11.4094 42.4807 11.4372 42.5726 11.4372C42.7175 11.4372 42.8606 11.3666 42.9497 11.2335C48.6274 2.8465 57.1957 0.953546 58.5379 0.953546H58.5388C58.7935 0.953546 58.9997 0.74049 58.9997 0.477031C58.9997 0.213571 58.7935 0.000396729 58.5388 0.000396729Z" fill="#7D7D7D"/>
<path d="M17.9809 27.6384C15.6936 27.6393 13.8328 29.5631 13.8328 31.9281C13.8328 34.2912 15.6935 36.216 17.9809 36.2169C20.2683 36.216 22.1292 34.2911 22.1292 31.9271C22.1292 29.5631 20.2684 27.6393 17.9809 27.6384ZM17.9809 35.2638C16.2022 35.2628 14.7545 33.7662 14.7545 31.928C14.7545 30.0889 16.2021 28.5922 17.9809 28.5913C19.7597 28.5922 21.2074 30.088 21.2074 31.927C21.2074 33.7662 19.7598 35.2628 17.9809 35.2638Z" fill="#7D7D7D"/>
<path d="M28.1207 38.1218C25.8333 38.1227 23.9724 40.0465 23.9724 42.4116C23.9724 44.7746 25.8332 46.6994 28.1207 46.7003C30.4082 46.6994 32.2688 44.7746 32.2688 42.4116C32.2688 40.0465 30.4082 38.1227 28.1207 38.1218ZM28.1207 45.7473C26.3419 45.7464 24.8943 44.25 24.8943 42.4117C24.8943 40.5725 26.3418 39.0759 28.1207 39.0749C29.8995 39.0759 31.347 40.5725 31.347 42.4117C31.347 44.25 29.8995 45.7464 28.1207 45.7473Z" fill="#7D7D7D"/>
<path d="M32.1339 27.7778C31.9539 27.5916 31.6622 27.5916 31.4822 27.7778L13.9675 45.8869C13.7875 46.073 13.7875 46.3746 13.9675 46.5607C14.0575 46.6538 14.1755 46.7004 14.2934 46.7004C14.4113 46.7004 14.5293 46.6538 14.6193 46.5607L32.1339 28.4516C32.3139 28.2654 32.3139 27.9638 32.1339 27.7778Z" fill="#7D7D7D"/>
</svg>
