<svg width="55" height="55" viewBox="0 0 55 55" fill="none" xmlns="http://www.w3.org/2000/svg">
<rect x="14" y="14" width="41" height="41" fill="#E6FF0D"/>
<path d="M37.8126 19.6875C37.6398 19.6875 37.5001 19.8272 37.5001 20C37.5001 30.1666 29.2292 38.4375 19.0626 38.4375C8.89592 38.4375 0.625053 30.1666 0.625053 20C0.625053 9.83334 8.89585 1.56247 19.0626 1.56255C24.9812 1.56255 30.5811 4.43542 34.0418 9.24806C34.1425 9.38848 34.3372 9.41959 34.4782 9.31949C34.618 9.21876 34.6503 9.02349 34.5496 8.88307C30.9717 3.90804 25.182 0.9375 19.0626 0.9375C8.55163 0.9375 0 9.48913 0 20C0 30.5109 8.55163 39.0625 19.0626 39.0625C29.5735 39.0625 38.1251 30.5109 38.1251 20C38.1251 19.8272 37.9853 19.6875 37.8126 19.6875Z" fill="black"/>
<path d="M39.9084 21.6542L38.0334 19.7792C37.9114 19.6571 37.7136 19.6571 37.5915 19.7792C37.4695 19.9012 37.4695 20.099 37.5915 20.2211L39.4665 22.0961C39.5276 22.1571 39.6076 22.1876 39.6875 22.1876C39.7675 22.1876 39.8474 22.1572 39.9084 22.0961C40.0305 21.974 40.0305 21.7763 39.9084 21.6542Z" fill="black"/>
<path d="M38.0334 19.7792C37.9114 19.6571 37.7136 19.6571 37.5915 19.7792L35.7165 21.6542C35.5945 21.7762 35.5945 21.974 35.7165 22.0961C35.7776 22.1571 35.8576 22.1876 35.9375 22.1876C36.0175 22.1876 36.0975 22.1572 36.1584 22.0961L38.0334 20.2211C38.1555 20.099 38.1555 19.9012 38.0334 19.7792Z" fill="black"/>
<path d="M28.4376 14.3746H10.9376C10.7648 14.3746 10.625 14.5144 10.625 14.6871V28.4372C10.625 28.6099 10.7648 28.7497 10.9376 28.7497H28.4376C28.6103 28.7497 28.7502 28.6099 28.7501 28.4372V14.6871C28.7501 14.5144 28.6103 14.3746 28.4376 14.3746ZM28.1251 28.1247H11.2501V14.9996H28.1251V28.1247Z" fill="black"/>
<path d="M28.6584 14.4667L26.1584 11.9667C26.0998 11.9081 26.0205 11.8751 25.9375 11.8751H13.4374C13.3544 11.8751 13.2751 11.9081 13.2165 11.9667L10.7164 14.4667C10.6273 14.5558 10.6004 14.6906 10.6487 14.8072C10.6969 14.9238 10.811 15.0001 10.9374 15.0001H28.4375C28.5638 15.0001 28.678 14.9238 28.7262 14.8072C28.7743 14.6906 28.7476 14.5558 28.6584 14.4667ZM11.6918 14.3751L13.5668 12.5001H25.8081L27.6831 14.3751H11.6918Z" fill="black"/>
<path d="M19.2023 11.9081C19.0479 11.8312 18.8611 11.8941 18.783 12.0479L17.5329 14.5479C17.456 14.7023 17.5183 14.8897 17.6727 14.9672C17.7179 14.9898 17.7655 15.0002 17.8125 15.0002C17.9267 15.0002 18.0371 14.9367 18.092 14.8273L19.3421 12.3274C19.4189 12.173 19.3567 11.9856 19.2023 11.9081Z" fill="black"/>
<path d="M21.842 14.5475L20.592 12.0474C20.5145 11.8929 20.3271 11.8301 20.1727 11.9076C20.0183 11.9851 19.9561 12.1724 20.0329 12.3269L21.283 14.8269C21.3379 14.9361 21.4483 14.9996 21.5625 14.9996C21.6095 14.9996 21.6571 14.9892 21.7022 14.9668C21.8567 14.8892 21.9189 14.7019 21.842 14.5475Z" fill="black"/>
<path d="M17.8125 14.375C17.6398 14.375 17.5 14.5148 17.5 14.6875V17.1875C17.5 17.3603 17.6398 17.5001 17.8125 17.5001C17.9852 17.5001 18.125 17.3603 18.125 17.1875V14.6875C18.125 14.5148 17.9852 14.375 17.8125 14.375Z" fill="black"/>
<path d="M21.5625 16.875H17.8125C17.6398 16.875 17.5 17.0147 17.5 17.1875C17.5 17.3603 17.6398 17.5001 17.8125 17.5001H21.5625C21.7352 17.5001 21.875 17.3602 21.875 17.1875C21.875 17.0148 21.7352 16.875 21.5625 16.875Z" fill="black"/>
<path d="M21.5625 14.375C21.3897 14.375 21.25 14.5148 21.25 14.6875V17.1875C21.25 17.3603 21.3897 17.5001 21.5625 17.5001C21.7352 17.5001 21.875 17.3603 21.875 17.1875V14.6875C21.875 14.5148 21.7352 14.375 21.5625 14.375Z" fill="black"/>
<path d="M17.8125 16.875C17.6398 16.875 17.5 17.0148 17.5 17.1875V17.5C17.5 17.6727 17.6398 17.8125 17.8125 17.8125C17.9852 17.8125 18.125 17.6727 18.125 17.5V17.1875C18.125 17.0148 17.9852 16.875 17.8125 16.875Z" fill="black"/>
<path d="M19.0626 16.875C18.8898 16.875 18.75 17.0148 18.75 17.1875V17.5C18.75 17.6727 18.8898 17.8125 19.0626 17.8125C19.2353 17.8125 19.3751 17.6727 19.3751 17.5V17.1875C19.3751 17.0148 19.2353 16.875 19.0626 16.875Z" fill="black"/>
<path d="M20.3125 16.875C20.1398 16.875 20 17.0148 20 17.1875V17.5C20 17.6727 20.1398 17.8125 20.3125 17.8125C20.4853 17.8125 20.6251 17.6727 20.6251 17.5V17.1875C20.6251 17.0148 20.4853 16.875 20.3125 16.875Z" fill="black"/>
<path d="M21.5625 16.875C21.3897 16.875 21.25 17.0148 21.25 17.1875V17.5C21.25 17.6727 21.3897 17.8125 21.5625 17.8125C21.7352 17.8125 21.875 17.6727 21.875 17.5V17.1875C21.875 17.0148 21.7352 16.875 21.5625 16.875Z" fill="black"/>
<path d="M27.1875 25.6246H25.9375C25.7648 25.6246 25.625 25.7644 25.625 25.9372V27.1871C25.625 27.3599 25.7648 27.4997 25.9375 27.4997H27.1875C27.3602 27.4997 27.5 27.3599 27.5 27.1871V25.9372C27.5 25.7644 27.3602 25.6246 27.1875 25.6246ZM26.8749 26.8747H26.25V26.2497H26.8749V26.8747Z" fill="black"/>
<path d="M24.6874 25.6246H23.4375C23.2647 25.6246 23.125 25.7644 23.125 25.9372V27.1871C23.125 27.3599 23.2647 27.4997 23.4375 27.4997H24.6874C24.8602 27.4997 25 27.3599 25 27.1871V25.9372C25 25.7644 24.8602 25.6246 24.6874 25.6246ZM24.3749 26.8747H23.75V26.2497H24.3749V26.8747Z" fill="black"/>
<path d="M18.4375 25.6246H12.1875C12.0148 25.6246 11.875 25.7644 11.875 25.9372C11.875 26.1099 12.0148 26.2497 12.1875 26.2497H18.4375C18.6103 26.2497 18.75 26.1099 18.75 25.9372C18.75 25.7644 18.6102 25.6246 18.4375 25.6246Z" fill="black"/>
<path d="M15.3125 26.8751H12.1875C12.0148 26.8751 11.875 27.0149 11.875 27.1876C11.875 27.3604 12.0148 27.5002 12.1875 27.5002H15.3125C15.4852 27.5002 15.625 27.3604 15.625 27.1876C15.625 27.0149 15.4852 26.8751 15.3125 26.8751Z" fill="black"/>
</svg>
