<svg width="58" height="53" viewBox="0 0 58 53" fill="none" xmlns="http://www.w3.org/2000/svg">
<rect x="17" y="12" width="41" height="41" fill="#E6FF0D"/>
<path d="M32.8234 30.3723C32.6922 30.2411 32.4796 30.2411 32.3484 30.3723L30.3328 32.388C30.2016 32.5192 30.2016 32.7317 30.3328 32.8629C30.3984 32.9285 30.4843 32.9613 30.5703 32.9613C30.6562 32.9613 30.7421 32.9285 30.8078 32.8629L32.8234 30.8474C32.9546 30.7162 32.9546 30.5035 32.8234 30.3723Z" fill="black"/>
<path d="M42.9015 20.2943C42.7704 20.1631 42.5577 20.1631 42.4265 20.2943L34.0281 28.6927C33.8969 28.824 33.8969 29.0366 34.0281 29.1678C34.0936 29.2334 34.1796 29.2662 34.2656 29.2662C34.3515 29.2662 34.4374 29.2334 34.5031 29.1678L42.9015 20.7694C43.0328 20.6382 43.0328 20.4255 42.9015 20.2943Z" fill="black"/>
<path d="M42.9014 23.6536C42.7703 23.5224 42.5576 23.5224 42.4264 23.6536L33.6922 32.388C33.5609 32.5192 33.5609 32.7317 33.6922 32.8629C33.7578 32.9286 33.8438 32.9614 33.9297 32.9614C34.0156 32.9614 34.1016 32.9286 34.1672 32.8629L42.9015 24.1285C43.0327 23.9973 43.0327 23.7848 42.9014 23.6536Z" fill="black"/>
<path d="M34.5031 28.6919L22.0734 16.2622C21.9422 16.131 21.7296 16.131 21.5984 16.2622C21.4672 16.3934 21.4672 16.606 21.5984 16.7372L34.0281 29.1669C34.0937 29.2325 34.1797 29.2654 34.2656 29.2654C34.3516 29.2654 34.4375 29.2325 34.5031 29.1669C34.6344 29.0357 34.6344 28.8231 34.5031 28.6919Z" fill="black"/>
<path d="M32.8234 30.3716L20.7297 18.2779C20.5985 18.1466 20.3859 18.1466 20.2547 18.2779C20.1234 18.409 20.1234 18.6216 20.2547 18.7528L32.3485 30.8465C32.4141 30.9121 32.5 30.945 32.5859 30.945C32.6719 30.945 32.7579 30.9121 32.8234 30.8465C32.9546 30.7153 32.9546 30.5028 32.8234 30.3716Z" fill="black"/>
<path d="M34.1672 23.6534L24.7609 14.2471C24.6297 14.1159 24.4171 14.1159 24.2859 14.2471C24.1547 14.3782 24.1547 14.5909 24.2859 14.7221L33.6922 24.1282C33.7578 24.1938 33.8438 24.2267 33.9297 24.2267C34.0157 24.2267 34.1016 24.1939 34.1672 24.1283C34.2984 23.9972 34.2984 23.7846 34.1672 23.6534Z" fill="black"/>
<path d="M38.8703 18.9497C38.7391 18.8185 38.5265 18.8185 38.3952 18.9497L33.6922 23.6528C33.5609 23.784 33.5609 23.9966 33.6922 24.1278C33.7578 24.1934 33.8438 24.2262 33.9297 24.2262C34.0156 24.2262 34.1016 24.1935 34.1672 24.1278L38.8703 19.4247C39.0015 19.2935 39.0015 19.0809 38.8703 18.9497Z" fill="black"/>
<path d="M38.8703 18.9506L29.4641 9.54421C29.3329 9.413 29.1202 9.413 28.989 9.54421C28.8578 9.67534 28.8578 9.88794 28.989 10.0192L38.3953 19.4253C38.4609 19.4909 38.5469 19.5238 38.6328 19.5238C38.7188 19.5238 38.8048 19.491 38.8703 19.4254C39.0015 19.2943 39.0015 19.0818 38.8703 18.9506Z" fill="black"/>
<path d="M29.464 9.54421C29.3328 9.413 29.1202 9.413 28.989 9.54421L24.2859 14.2473C24.1547 14.3784 24.1547 14.5911 24.2859 14.7223C24.3515 14.7879 24.4375 14.8207 24.5235 14.8207C24.6094 14.8207 24.6953 14.7879 24.7609 14.7223L29.464 10.0192C29.5952 9.88811 29.5952 9.6755 29.464 9.54421Z" fill="black"/>
<path d="M42.9015 14.919C42.7704 14.7878 42.5577 14.7878 42.4265 14.919L41.0828 16.2627C40.9516 16.3939 40.9516 16.6065 41.0828 16.7377C41.1484 16.8033 41.2343 16.8361 41.3203 16.8361C41.4063 16.8361 41.4922 16.8033 41.5577 16.7377L42.9015 15.394C43.0327 15.2628 43.0327 15.0502 42.9015 14.919Z" fill="black"/>
<path d="M41.5578 16.2623L38.8703 13.5747C38.7392 13.4435 38.5265 13.4435 38.3953 13.5747C38.2641 13.7059 38.2641 13.9185 38.3953 14.0498L41.0828 16.7372C41.1484 16.8028 41.2344 16.8357 41.3203 16.8357C41.4063 16.8357 41.4923 16.8028 41.5578 16.7372C41.689 16.6062 41.689 16.3935 41.5578 16.2623Z" fill="black"/>
<path d="M42.9016 9.54421C42.7704 9.413 42.5577 9.413 42.4265 9.54421L38.3953 13.5754C38.2641 13.7066 38.2641 13.9192 38.3953 14.0504C38.4609 14.116 38.5469 14.1488 38.6328 14.1488C38.7188 14.1488 38.8048 14.116 38.8703 14.0504L42.9016 10.0192C43.0328 9.88811 43.0328 9.6755 42.9016 9.54421Z" fill="black"/>
<path d="M27.4484 29.6999L18.7141 20.9655C18.5829 20.8343 18.3702 20.8343 18.239 20.9655C18.1078 21.0967 18.1078 21.3094 18.239 21.4406L26.9734 30.1749C27.039 30.2405 27.125 30.2734 27.2109 30.2734C27.2969 30.2734 27.3828 30.2405 27.4485 30.1749C27.5797 30.0438 27.5797 29.8311 27.4484 29.6999Z" fill="black"/>
<path d="M27.4484 29.6998C27.3172 29.5686 27.1046 29.5686 26.9734 29.6998L24.2859 32.3874C24.1547 32.5186 24.1547 32.7311 24.2859 32.8623C24.3515 32.9279 24.4375 32.9608 24.5235 32.9608C24.6094 32.9608 24.6953 32.9279 24.7609 32.8623L27.4484 30.1749C27.5796 30.0438 27.5796 29.8311 27.4484 29.6998Z" fill="black"/>
<path d="M6.62031 14.2471C6.4891 14.1159 6.27649 14.1159 6.14528 14.2471L2.11403 18.2783C1.98282 18.4095 1.98282 18.6221 2.11403 18.7533C2.17972 18.8189 2.26566 18.8517 2.35159 18.8517C2.43752 18.8517 2.52354 18.819 2.58906 18.7533L6.62031 14.7221C6.75152 14.5909 6.75152 14.3783 6.62031 14.2471Z" fill="black"/>
<path d="M11.4285 27.1176L2.58906 18.2782C2.45785 18.147 2.24524 18.147 2.11403 18.2782C1.98282 18.4093 1.98282 18.622 2.11403 18.7532L10.9534 27.5926C11.019 27.6582 11.1049 27.691 11.1908 27.691C11.2769 27.691 11.3628 27.6582 11.4284 27.5926C11.5596 27.4614 11.5596 27.2488 11.4285 27.1176Z" fill="black"/>
<path d="M14.1154 24.4304C13.9842 24.2992 13.7716 24.2992 13.6404 24.4304L10.9529 27.1179C10.8217 27.2491 10.8217 27.4617 10.9529 27.5929C11.0185 27.6585 11.1044 27.6914 11.1904 27.6914C11.2764 27.6914 11.3623 27.6585 11.4278 27.5929L14.1154 24.9055C14.2467 24.7743 14.2467 24.5616 14.1154 24.4304Z" fill="black"/>
<path d="M22.0729 32.3876L14.1154 24.4301C13.9842 24.2989 13.7716 24.2989 13.6404 24.4301C13.5092 24.5613 13.5092 24.7739 13.6404 24.9051L21.5979 32.8625C21.6635 32.9281 21.7494 32.961 21.8354 32.961C21.9213 32.961 22.0073 32.9281 22.0729 32.8625C22.2042 32.7314 22.2042 32.5188 22.0729 32.3876Z" fill="black"/>
<path d="M16.6985 31.7155C16.5673 31.5843 16.3547 31.5843 16.2235 31.7155L15.5515 32.3873C15.4203 32.5185 15.4203 32.731 15.5515 32.8623C15.6172 32.9279 15.7032 32.9607 15.7891 32.9607C15.875 32.9607 15.961 32.9279 16.0266 32.8623L16.6985 32.1904C16.8296 32.0592 16.8296 31.8467 16.6985 31.7155Z" fill="black"/>
<path d="M16.6984 31.7159L14.0109 29.0283C13.8797 28.8971 13.6671 28.8971 13.5359 29.0283C13.4047 29.1596 13.4047 29.3722 13.5359 29.5034L16.2235 32.1908C16.2891 32.2565 16.3751 32.2893 16.461 32.2893C16.5469 32.2893 16.6329 32.2565 16.6984 32.1908C16.8296 32.0596 16.8296 31.8471 16.6984 31.7159Z" fill="black"/>
<path d="M14.0109 29.028C13.8797 28.8968 13.6671 28.8968 13.5358 29.028L10.1765 32.3874C10.0453 32.5186 10.0453 32.7311 10.1765 32.8623C10.2421 32.9279 10.3281 32.9608 10.414 32.9608C10.5 32.9608 10.586 32.9279 10.6515 32.8623L14.0109 29.503C14.1422 29.3718 14.1422 29.1592 14.0109 29.028Z" fill="black"/>
<path d="M8.63568 29.7L0.604688 21.6691C0.473477 21.5379 0.260869 21.5379 0.129658 21.6691C-0.0015527 21.8002 -0.0015527 22.0129 0.129658 22.1441L8.16065 30.1751C8.22625 30.2407 8.31219 30.2736 8.39812 30.2736C8.48414 30.2736 8.57007 30.2407 8.63568 30.175C8.76689 30.0439 8.76689 29.8312 8.63568 29.7Z" fill="black"/>
<path d="M8.63591 29.6998C8.5047 29.5686 8.29209 29.5686 8.16088 29.6998L5.47341 32.3874C5.3422 32.5186 5.3422 32.7311 5.47341 32.8623C5.53901 32.9279 5.62495 32.9608 5.71088 32.9608C5.79682 32.9608 5.88275 32.9279 5.94835 32.8623L8.63591 30.1749C8.76712 30.0438 8.76712 29.8311 8.63591 29.6998Z" fill="black"/>
<path d="M5.28165 10.8817L0.604688 6.20559C0.473477 6.07438 0.260869 6.07438 0.129658 6.20559C-0.00155269 6.3368 -0.00155269 6.5494 0.129658 6.68062L4.80654 11.3568C4.87214 11.4224 4.95816 11.4553 5.0441 11.4553C5.12995 11.4553 5.21588 11.4225 5.28157 11.3568C5.41278 11.2255 5.41278 11.0129 5.28165 10.8817Z" fill="black"/>
<path d="M5.28182 10.8832C5.15061 10.752 4.938 10.752 4.80679 10.8832L0.0984081 15.591C-0.0328027 15.7222 -0.0328027 15.9348 0.0984081 16.066C0.164013 16.1316 0.250031 16.1645 0.335965 16.1645C0.421899 16.1645 0.507833 16.1316 0.573438 16.066L5.28182 11.3583C5.41303 11.227 5.41303 11.0144 5.28182 10.8832Z" fill="black"/>
<path d="M37.5266 4.16884C37.3954 4.03763 37.1828 4.03763 37.0516 4.16884L33.6922 7.52824C33.5609 7.65937 33.5609 7.87198 33.6922 8.00319C33.7578 8.06879 33.8438 8.10164 33.9297 8.10164C34.0156 8.10164 34.1016 8.06879 34.1672 8.00319L37.5266 4.64387C37.6578 4.51266 37.6578 4.30005 37.5266 4.16884Z" fill="black"/>
<path d="M28.1202 4.16884C27.9891 4.03763 27.7765 4.03763 27.6453 4.16884L24.2859 7.52824C24.1547 7.65937 24.1547 7.87198 24.2859 8.00319C24.3515 8.06879 24.4375 8.10164 24.5235 8.10164C24.6094 8.10164 24.6953 8.06879 24.7609 8.00319L28.1202 4.64387C28.2515 4.51266 28.2515 4.30005 28.1202 4.16884Z" fill="black"/>
<path d="M42.9016 28.3562C42.7704 28.225 42.5577 28.225 42.4265 28.3562L38.3953 32.3875C38.2641 32.5187 38.2641 32.7312 38.3953 32.8624C38.4609 32.928 38.5469 32.9609 38.6328 32.9609C38.7188 32.9609 38.8048 32.928 38.8703 32.8624L42.9016 28.8313C43.0328 28.7 43.0328 28.4874 42.9016 28.3562Z" fill="black"/>
<path d="M37.5266 10.8874L34.1672 7.5281C34.0361 7.39688 33.8234 7.39688 33.6922 7.5281C33.5609 7.65922 33.5609 7.87183 33.6922 8.00304L37.0516 11.3624C37.1172 11.428 37.2032 11.4609 37.289 11.4609C37.375 11.4609 37.461 11.428 37.5266 11.3624C37.6578 11.2312 37.6578 11.0186 37.5266 10.8874Z" fill="black"/>
<path d="M42.9015 5.51271C42.7704 5.3815 42.5577 5.3815 42.4265 5.51271L37.0515 10.8877C36.9203 11.0189 36.9203 11.2315 37.0515 11.3627C37.1171 11.4283 37.2032 11.4611 37.289 11.4611C37.3749 11.4611 37.461 11.4283 37.5266 11.3627L42.9015 5.98774C43.0327 5.85645 43.0327 5.64393 42.9015 5.51271Z" fill="black"/>
<path d="M42.6638 4.07043C42.4781 4.07043 42.3278 4.22071 42.3278 4.40644V32.2892H0.70318V4.40644C0.70318 4.22071 0.552817 4.07043 0.367173 4.07043C0.181529 4.07043 0.03125 4.22071 0.03125 4.40644V32.6252C0.03125 32.8109 0.181529 32.9611 0.367173 32.9611H42.6638C42.8495 32.9611 42.9998 32.8109 42.9998 32.6252V4.40644C42.9998 4.22071 42.8495 4.07043 42.6638 4.07043Z" fill="black"/>
<path d="M14.4453 0.0393066C9.81444 0.0393066 6.04688 3.80679 6.04688 8.43772C6.04688 13.1042 12.4622 22.2112 14.4453 22.2112C16.4284 22.2112 22.8437 13.1042 22.8437 8.43772C22.8437 3.80687 19.0761 0.0393066 14.4453 0.0393066ZM14.4453 21.5394C12.9982 21.5394 6.71872 12.9408 6.71872 8.4378C6.71872 4.17732 10.1847 0.711321 14.4453 0.711321C18.7058 0.711321 22.1718 4.17732 22.1718 8.4378C22.1718 12.9408 15.8924 21.5394 14.4453 21.5394Z" fill="black"/>
<path d="M5.03893 4.07043H0.367173C0.181529 4.07043 0.03125 4.22071 0.03125 4.40644C0.03125 4.59209 0.181529 4.74237 0.367173 4.74237H5.03885C5.22449 4.74237 5.37477 4.59209 5.37477 4.40644C5.37477 4.22071 5.22449 4.07043 5.03893 4.07043Z" fill="black"/>
<path d="M42.6641 4.07043H23.8515C23.6659 4.07043 23.5156 4.22071 23.5156 4.40644C23.5156 4.59209 23.6659 4.74237 23.8515 4.74237H42.6641C42.8497 4.74237 43 4.59209 43 4.40644C43 4.22071 42.8497 4.07043 42.6641 4.07043Z" fill="black"/>
</svg>
