<svg width="55" height="52" viewBox="0 0 55 52" fill="none" xmlns="http://www.w3.org/2000/svg">
<rect x="14" y="11" width="41" height="41" fill="#E6FF0D"/>
<path d="M25.3079 10.1251H0.312501C0.139766 10.1251 0 10.2649 0 10.4376V33.5578C0 33.7305 0.139766 33.8702 0.312501 33.8702H25.3079C25.4805 33.8702 25.6203 33.7305 25.6203 33.5578V10.4376C25.6203 10.2649 25.4805 10.1251 25.3079 10.1251ZM24.9955 33.2454H0.624923V10.75H24.9955V33.2454Z" fill="black"/>
<path d="M10.3145 29.4973C10.1417 29.4973 10.002 29.6371 10.002 29.8097V33.5578C10.002 33.7304 10.1418 33.8702 10.3145 33.8702C10.4872 33.8702 10.6269 33.7304 10.6269 33.5578V29.8097C10.6269 29.6371 10.4872 29.4973 10.3145 29.4973Z" fill="black"/>
<path d="M15.3134 29.4973C15.1407 29.4973 15.001 29.6371 15.001 29.8097V33.5578C15.001 33.7304 15.1407 33.8702 15.3134 33.8702C15.4861 33.8702 15.6258 33.7304 15.6258 33.5578V29.8097C15.6258 29.6371 15.4861 29.4973 15.3134 29.4973Z" fill="black"/>
<path d="M10.3145 10.1251C10.1417 10.1251 10.002 10.2649 10.002 10.4376V14.1856C10.002 14.3583 10.1418 14.4981 10.3145 14.4981C10.4872 14.4981 10.6269 14.3583 10.6269 14.1856V10.4376C10.6269 10.2649 10.4872 10.1251 10.3145 10.1251Z" fill="black"/>
<path d="M15.3134 10.1251C15.1407 10.1251 15.001 10.2649 15.001 10.4376V14.1856C15.001 14.3583 15.1407 14.4981 15.3134 14.4981C15.4861 14.4981 15.6258 14.3583 15.6258 14.1856V10.4376C15.6258 10.2649 15.4861 10.1251 15.3134 10.1251Z" fill="black"/>
<path d="M21.7173 8.9211C20.1076 7.97157 16.8093 6.37891 12.8099 6.37891C8.80067 6.37891 5.50848 7.97008 3.90301 8.91868C3.7541 9.00649 3.70465 9.19813 3.79254 9.34673C3.88105 9.49501 4.07269 9.54353 4.22035 9.45689C5.46887 8.71915 8.80497 7.00375 12.8099 7.00375C16.661 7.00375 19.8452 8.54212 21.4 9.45931C21.45 9.48853 21.5044 9.50259 21.5587 9.50259C21.6654 9.50259 21.7698 9.44774 21.8277 9.34892C21.9156 9.20024 21.8662 9.00868 21.7173 8.9211Z" fill="black"/>
<path d="M18.8863 8.91077C18.782 8.85827 16.2812 7.62561 12.8091 7.62561C9.33806 7.62561 6.8386 8.85858 6.73423 8.91108C6.57977 8.98827 6.51759 9.17585 6.59446 9.32999C6.64938 9.43952 6.75977 9.50265 6.87454 9.50265C6.92149 9.50265 6.96907 9.49195 7.01376 9.46968C7.03813 9.45757 9.49314 8.25054 12.8091 8.25054C16.1263 8.25054 18.5825 9.45749 18.6068 9.46968C18.7606 9.54687 18.9485 9.48405 19.026 9.32999C19.1029 9.17562 19.0407 8.98827 18.8863 8.91077Z" fill="black"/>
<path d="M12.8096 0.127197C12.6368 0.127197 12.4971 0.266885 12.4971 0.43962V4.81377C12.4971 4.98643 12.6368 5.12619 12.8096 5.12619C12.9822 5.12619 13.122 4.98643 13.122 4.81369V0.43962C13.122 0.266885 12.9822 0.127197 12.8096 0.127197Z" fill="black"/>
<path d="M9.9162 5.03887L9.15705 0.731907C9.12721 0.561673 8.96174 0.447297 8.79518 0.478704C8.62549 0.508626 8.51197 0.670579 8.54189 0.840579L9.30104 5.14754C9.32791 5.29918 9.45971 5.40567 9.60799 5.40567C9.62627 5.40567 9.64463 5.40418 9.66291 5.40074C9.8326 5.37082 9.94612 5.20879 9.9162 5.03887Z" fill="black"/>
<path d="M6.79861 5.81817L5.30235 1.7077C5.24313 1.54535 5.06501 1.46239 4.90204 1.52098C4.7397 1.57989 4.6561 1.75926 4.71532 1.92129L6.21157 6.03177C6.2579 6.15864 6.37751 6.23739 6.50509 6.23739C6.54048 6.23739 6.5765 6.2313 6.61189 6.21849C6.77423 6.15958 6.85782 5.9802 6.79861 5.81817Z" fill="black"/>
<path d="M3.86356 7.12652L1.67653 3.33823C1.59043 3.18784 1.39887 3.13714 1.24996 3.22378C1.10051 3.31018 1.04926 3.50112 1.1359 3.65065L3.32294 7.43894C3.3802 7.53933 3.48583 7.59519 3.59325 7.59519C3.6463 7.59519 3.69997 7.58175 3.74942 7.55331C3.89895 7.46699 3.9502 7.27597 3.86356 7.12652Z" fill="black"/>
<path d="M24.3684 3.22504C24.2184 3.13871 24.0274 3.18996 23.9419 3.33949L21.756 7.12777C21.6694 7.27723 21.7206 7.46824 21.8702 7.55457C21.9196 7.58293 21.9733 7.59637 22.0264 7.59637C22.1343 7.59637 22.2393 7.54028 22.2967 7.4402L24.4826 3.65191C24.5692 3.50238 24.518 3.31136 24.3684 3.22504Z" fill="black"/>
<path d="M20.7141 1.52216C20.5518 1.46388 20.3724 1.54685 20.3138 1.70888L18.8188 5.81873C18.7597 5.98077 18.8432 6.16014 19.0056 6.21905C19.041 6.23186 19.077 6.23795 19.1124 6.23795C19.2399 6.23795 19.3601 6.1592 19.4059 6.03233L20.9009 1.92248C20.96 1.76044 20.8765 1.58107 20.7141 1.52216Z" fill="black"/>
<path d="M16.8228 0.478963C16.6562 0.450291 16.4902 0.562244 16.4609 0.732791L15.703 5.04038C15.6731 5.2103 15.7866 5.37233 15.9562 5.40225C15.9745 5.4053 15.9929 5.40686 16.0112 5.40686C16.1594 5.40686 16.2919 5.30007 16.3181 5.14843L17.076 0.840838C17.1059 0.670838 16.9924 0.508885 16.8228 0.478963Z" fill="black"/>
<path d="M39.4382 31.7375L29.7075 8.71455C29.6398 8.55556 29.4556 8.48142 29.2981 8.54853L25.2718 10.2498C25.1956 10.2818 25.1351 10.3432 25.104 10.4201C25.0729 10.497 25.0735 10.5828 25.1052 10.6593L34.8359 33.6816C34.8866 33.8012 35.0024 33.8726 35.1239 33.8726C35.1648 33.8726 35.2057 33.8647 35.2454 33.8483L39.2717 32.147C39.3478 32.1147 39.4083 32.053 39.4394 31.9767C39.4705 31.8998 39.4699 31.8138 39.4382 31.7375ZM35.2899 33.1507L25.8027 10.7038L29.2535 9.24572L38.7407 31.6929L35.2899 33.1507Z" fill="black"/>
<path d="M33.5996 17.9233C33.5319 17.7634 33.3477 17.6914 33.1902 17.7567L29.1639 19.4592C29.0047 19.5269 28.9302 19.7099 28.9973 19.8686C29.048 19.9882 29.1639 20.0596 29.2854 20.0596C29.3262 20.0596 29.3671 20.0517 29.4068 20.0353L33.433 18.3327C33.5923 18.265 33.6667 18.0819 33.5996 17.9233Z" fill="black"/>
<path d="M35.5459 22.528C35.4782 22.3681 35.2939 22.2955 35.1364 22.3614L31.1102 24.064C30.951 24.1316 30.8765 24.3148 30.9436 24.4734C30.9942 24.593 31.1102 24.6644 31.2317 24.6644C31.2725 24.6644 31.3133 24.6565 31.353 24.64L35.3793 22.9375C35.5385 22.8698 35.613 22.6866 35.5459 22.528Z" fill="black"/>
<path d="M36.0097 14.055C35.1864 13.2761 34.4206 12.9932 33.7341 13.2095C32.4678 13.6104 32.0517 15.5952 32.0346 15.6794C32.0004 15.8485 32.1096 16.0133 32.2787 16.0477C32.4489 16.0812 32.6125 15.972 32.6473 15.8042C32.7443 15.3295 33.163 14.045 33.9239 13.8051C34.3754 13.6626 34.9343 13.8979 35.58 14.509C36.0951 14.9962 36.3123 15.4969 36.2439 16.0397C36.05 17.5744 33.6731 18.9087 33.6493 18.9222C33.4986 19.0058 33.4436 19.1962 33.5272 19.3469C33.5846 19.4501 33.6908 19.508 33.8013 19.508C33.852 19.508 33.9038 19.4951 33.952 19.4689C34.0612 19.4085 36.629 17.9683 36.8639 16.1193C36.9579 15.3749 36.6705 14.6804 36.0097 14.055Z" fill="black"/>
<path d="M39.1147 21.4437C37.6257 20.3233 34.8041 21.1623 34.6845 21.1983C34.5198 21.2483 34.4263 21.4229 34.4764 21.5877C34.5264 21.7536 34.6991 21.847 34.8663 21.7964C34.892 21.7885 37.5038 21.0146 38.74 21.9434C39.177 22.2724 39.385 22.7776 39.3752 23.4873C39.3636 24.3752 39.1452 24.9396 38.7266 25.1654C38.0249 25.545 36.8118 24.9494 36.4034 24.6882C36.2589 24.5949 36.0655 24.6376 35.9721 24.7828C35.8793 24.928 35.9214 25.1209 36.0661 25.2143C36.1222 25.2503 37.1675 25.9118 38.1799 25.9118C38.471 25.9118 38.7602 25.8568 39.0214 25.7165C39.656 25.3754 39.9849 24.6285 40.0002 23.4959C40.0124 22.5854 39.7146 21.8946 39.1147 21.4437Z" fill="black"/>
<path d="M36.302 19.4944C35.7967 18.3002 34.9326 18.1727 34.8961 18.1678C34.7288 18.144 34.5744 18.2636 34.5494 18.4314C34.5238 18.5999 34.6409 18.7579 34.8087 18.7866C34.8313 18.7909 35.3683 18.8916 35.7265 19.7379C36.0841 20.5849 35.782 21.0402 35.7722 21.0542C35.669 21.1927 35.6983 21.3887 35.8363 21.4918C35.8925 21.5333 35.9578 21.5535 36.0231 21.5535C36.1182 21.5535 36.2122 21.5101 36.274 21.4276C36.2959 21.3977 36.8067 20.6892 36.302 19.4944Z" fill="black"/>
<path d="M35.1498 19.9802C35.0821 19.8209 34.8979 19.7471 34.7404 19.8148L34.1631 20.0602C34.0044 20.1273 33.93 20.311 33.9977 20.4696C34.0484 20.5886 34.1637 20.6601 34.2851 20.6601C34.326 20.6601 34.3675 20.6521 34.4072 20.635L34.9844 20.3897C35.1431 20.3225 35.2175 20.1388 35.1498 19.9802Z" fill="black"/>
<path d="M20.3133 21.9961C20.3133 21.9132 20.2803 21.8339 20.2217 21.7753L19.758 21.3114L20.1217 20.7671C20.2174 20.6237 20.1791 20.4296 20.0351 20.3339L19.4908 19.9702L19.7416 19.3655C19.8075 19.2062 19.7318 19.0231 19.5725 18.9571L18.9666 18.7057L19.0941 18.065C19.1276 17.896 19.0184 17.7313 18.8487 17.6977L18.2062 17.5692L18.2068 16.9156C18.2068 16.8327 18.1738 16.7533 18.1152 16.6945C18.0567 16.6359 17.9773 16.6029 17.8944 16.6029L17.239 16.6026L17.112 15.961C17.0962 15.8795 17.0486 15.8078 16.9796 15.7617C16.9107 15.7156 16.8258 15.6967 16.7447 15.715L16.1009 15.8425L15.8507 15.2387C15.8189 15.1621 15.7585 15.101 15.6816 15.0693C15.6047 15.0376 15.5193 15.0376 15.4424 15.0693L14.8365 15.3201L14.4734 14.7764C14.377 14.6324 14.1823 14.5946 14.0401 14.6898L13.4947 15.0535L13.034 14.5912C12.9754 14.5326 12.8954 14.4994 12.8125 14.4994C12.7295 14.4994 12.6501 14.5323 12.5915 14.5909L12.1272 15.0543L11.584 14.6906C11.4401 14.5949 11.246 14.6333 11.1508 14.7764L10.7852 15.3217L10.1823 15.0709C10.106 15.0388 10.0193 15.0392 9.9431 15.0703C9.8663 15.102 9.80521 15.1628 9.77349 15.2393L9.52145 15.8459L8.88067 15.7181C8.71473 15.6832 8.54755 15.7931 8.51333 15.9631L8.38466 16.6062L7.73044 16.6053C7.72981 16.6053 7.72981 16.6053 7.72981 16.6053C7.64684 16.6053 7.56747 16.6382 7.50887 16.6965C7.45028 16.7553 7.41731 16.8347 7.41731 16.9177V17.5742L6.7766 17.7006C6.69543 17.7164 6.62348 17.764 6.5777 17.833C6.53137 17.902 6.51426 17.9861 6.53074 18.0673L6.65825 18.7129L6.05473 18.9613C5.97848 18.9924 5.91746 19.0534 5.88512 19.1297C5.8534 19.206 5.8534 19.2926 5.88512 19.3689L6.13535 19.976L5.5916 20.3379C5.5227 20.3837 5.47504 20.455 5.45863 20.5362C5.44215 20.618 5.45926 20.7022 5.50496 20.7712L5.86684 21.3149L5.40793 21.775C5.2859 21.897 5.2859 22.0948 5.40793 22.2168L5.87106 22.68L5.50676 23.225C5.41098 23.3683 5.44941 23.5618 5.59277 23.6582L6.13653 24.0213L5.88629 24.6272C5.82043 24.7865 5.89606 24.9689 6.05535 25.0349L6.66012 25.2857L6.53199 25.9258C6.51551 26.0076 6.53262 26.0918 6.57832 26.1607C6.6241 26.2297 6.69543 26.2773 6.77723 26.2938L7.41981 26.4225V27.0772C7.41981 27.25 7.55965 27.3897 7.73231 27.3897H8.38653L8.51466 28.0329C8.53051 28.114 8.57872 28.1854 8.6477 28.2318C8.71669 28.2775 8.80145 28.2953 8.882 28.2782L9.52395 28.15L9.77419 28.756C9.80599 28.8322 9.867 28.8933 9.94325 28.925C10.0201 28.9568 10.1068 28.9568 10.1825 28.925L10.7872 28.6736L11.1502 29.2179C11.2466 29.3618 11.4407 29.3997 11.5835 29.3045L12.1284 28.9409L12.5915 29.4047C12.6501 29.4633 12.7295 29.4962 12.8125 29.4962C12.8954 29.4962 12.9747 29.4633 13.0333 29.405L13.4952 28.9418L14.0401 29.3061C14.1829 29.4013 14.3776 29.3635 14.4734 29.2195L14.8371 28.6751L15.4425 28.9266C15.5175 28.9583 15.6042 28.959 15.6817 28.9266C15.758 28.8949 15.819 28.8344 15.8508 28.7575L16.1015 28.1522L16.7447 28.2809C16.8258 28.298 16.9106 28.2797 16.979 28.2346C17.0486 28.1882 17.0962 28.1168 17.112 28.035L17.2396 27.3924L17.8944 27.393C17.9773 27.393 18.0566 27.36 18.1152 27.3014C18.1738 27.2429 18.2068 27.1635 18.2068 27.0805L18.2062 26.4257L18.8481 26.2995C18.9293 26.2836 19.0013 26.2361 19.0471 26.1671C19.0934 26.0981 19.1105 26.0139 19.0941 25.9321L18.9666 25.2896L19.5725 25.0387C19.6487 25.007 19.7098 24.946 19.7416 24.8696C19.7733 24.7928 19.7733 24.7068 19.7416 24.6304L19.4901 24.0251L20.0351 23.6614C20.1041 23.615 20.1523 23.5436 20.1681 23.4625C20.1846 23.3813 20.1675 23.2965 20.1217 23.2275L19.7562 22.682L20.2217 22.2171C20.2803 22.1585 20.3133 22.0791 20.3133 21.9961ZM19.1333 22.421C19.0278 22.5267 19.0119 22.6914 19.0943 22.8159L19.4287 23.3151L18.9301 23.6477C18.8056 23.7307 18.7574 23.8899 18.8148 24.0272L19.0448 24.5807L18.4907 24.8096C18.3533 24.8663 18.2747 25.0128 18.304 25.1593L18.4205 25.7468L17.8335 25.8622C17.687 25.8909 17.5815 26.0197 17.5815 26.1686L17.5821 26.7678L16.9828 26.7672C16.834 26.7672 16.7051 26.8728 16.6765 27.0193L16.5599 27.6063L15.9722 27.4892C15.8264 27.4581 15.6794 27.5386 15.6226 27.6759L15.3931 28.2294L14.8396 27.9993C14.7036 27.9426 14.543 27.9902 14.4601 28.1147L14.1275 28.6126L13.629 28.2794C13.5063 28.1971 13.3409 28.2136 13.2347 28.3185L12.8125 28.7414L12.389 28.3179C12.3285 28.2574 12.2486 28.2264 12.168 28.2264C12.1076 28.2264 12.0472 28.2434 11.9947 28.2788L11.4968 28.6114L11.1642 28.1135C11.0807 27.989 10.9196 27.9413 10.7847 27.9981L10.2318 28.2276L10.0029 27.6741C9.94622 27.5361 9.79849 27.4563 9.65325 27.4874L9.06622 27.6045L8.94903 27.0163C8.91973 26.8698 8.79161 26.7648 8.6427 26.7648H8.04473V26.1662C8.04473 26.0174 7.93973 25.8892 7.79325 25.8599L7.20622 25.7421L7.3234 25.1569C7.3527 25.0104 7.27465 24.8639 7.13668 24.8067L6.58262 24.5771L6.81145 24.0231C6.86817 23.8857 6.81996 23.7271 6.69668 23.6441L6.20004 23.3121L6.53324 22.8135C6.61559 22.6896 6.59973 22.525 6.49418 22.4193L6.07067 21.9958L6.48989 21.5754C6.59543 21.4698 6.61129 21.305 6.52895 21.1811L6.19824 20.6845L6.69489 20.3538C6.81879 20.2714 6.86707 20.1128 6.81028 19.9748L6.58207 19.42L7.13372 19.1924C7.27168 19.1357 7.35036 18.9892 7.32106 18.8434L7.2045 18.2526L7.79028 18.1373C7.93676 18.1086 8.04239 17.9804 8.04239 17.831V17.2302L8.63973 17.2311C8.64036 17.2311 8.64036 17.2311 8.64036 17.2311C8.78927 17.2311 8.91739 17.1262 8.94669 16.98L9.0645 16.3917L9.65091 16.5086C9.79622 16.5385 9.94325 16.4598 10.0006 16.3222L10.2307 15.7674L10.7817 15.9969C10.919 16.0546 11.0783 16.0067 11.1612 15.8825L11.4956 15.3833L11.9929 15.7162C12.1169 15.7995 12.2822 15.7836 12.3878 15.6774L12.8119 15.2537L13.2329 15.676C13.3385 15.7818 13.5027 15.7986 13.6278 15.7153L14.1269 15.3828L14.4589 15.8801C14.5412 16.004 14.6993 16.0516 14.8384 15.9955L15.3932 15.766L15.6214 16.3179C15.6782 16.4559 15.8228 16.5346 15.9711 16.5049L16.56 16.3884L16.6759 16.9748C16.7046 17.1213 16.8328 17.2268 16.9823 17.2268L17.5822 17.2271L17.5815 17.8249C17.5815 17.9737 17.6865 18.1019 17.833 18.1312L18.4206 18.2489L18.3041 18.8348C18.2748 18.9812 18.3529 19.1271 18.4908 19.1845L19.0449 19.4145L18.8154 19.9674C18.7581 20.1053 18.8063 20.2639 18.9308 20.3469L19.4287 20.6795L19.0962 21.1774C19.0138 21.3013 19.0297 21.466 19.1352 21.5717L19.5593 21.9957L19.1333 22.421Z" fill="black"/>
<path d="M11.5644 31.3721C11.3917 31.3721 11.252 31.5118 11.252 31.6845V33.5579C11.252 33.7305 11.3917 33.8703 11.5644 33.8703C11.737 33.8703 11.8768 33.7305 11.8768 33.5579V31.6845C11.8768 31.5118 11.737 31.3721 11.5644 31.3721Z" fill="black"/>
<path d="M14.0644 10.1251C13.8917 10.1251 13.752 10.2649 13.752 10.4376V12.3116C13.752 12.4843 13.8917 12.624 14.0644 12.624C14.2371 12.624 14.3769 12.4843 14.3769 12.3116V10.4376C14.3769 10.2649 14.2371 10.1251 14.0644 10.1251Z" fill="black"/>
</svg>
