<svg width="53" height="55" viewBox="0 0 53 55" fill="none" xmlns="http://www.w3.org/2000/svg">
<rect x="12" y="14" width="41" height="41" fill="#E6FF0D"/>
<g clip-path="url(#clip0)">
<path d="M32.1678 18.6834L30.782 12.7347C30.7431 12.5674 30.5837 12.4648 30.4231 12.5051C30.2636 12.5466 30.1662 12.7157 30.2056 12.8835L31.5914 18.8323C31.7995 19.7264 31.4534 21.0325 30.8347 21.6837L14.4624 38.9184C13.8837 39.5275 12.9416 39.5275 12.3629 38.919L1.02786 26.9873C0.748906 26.6932 0.595324 26.3013 0.595324 25.882C0.595324 25.4633 0.748312 25.0715 1.02727 24.7779L17.4008 7.54254C18.0195 6.89197 19.2596 6.52575 20.109 6.74547L27.7747 8.72412C28.4942 8.91087 29.2816 9.64629 29.6051 10.4355C29.6695 10.5941 29.8457 10.6668 29.9953 10.5984C30.146 10.53 30.2151 10.3457 30.1501 10.1876C29.7471 9.20506 28.8287 8.35368 27.9162 8.11685L20.2506 6.13819C19.2063 5.86901 17.7412 6.30056 16.9811 7.10068L0.607423 24.3359C-0.202573 25.1886 -0.202573 26.5758 0.608017 27.429L11.9431 39.3607C12.3478 39.7867 12.8802 39.9998 13.4124 39.9998C13.9441 39.9998 14.4768 39.7868 14.8821 39.3607L31.2545 22.1255C32.0269 21.3126 32.4281 19.8002 32.1678 18.6834Z" fill="black"/>
<path d="M26.7171 14.3855C26.5617 14.3355 26.3947 14.4307 26.3483 14.5961C26.2654 14.8915 26.11 15.1655 25.9008 15.3877C25.205 16.1201 24.0749 16.1195 23.3803 15.3889C22.6857 14.6572 22.6851 13.4676 23.3797 12.7365C23.9914 12.0932 24.9487 12.0041 25.6566 12.5241C25.7425 12.5863 25.8242 12.6571 25.902 12.7377C26.0184 12.8591 26.2062 12.8572 26.3217 12.7346C26.4371 12.612 26.4359 12.4142 26.3194 12.2928C26.2161 12.186 26.1077 12.092 25.9947 12.0101C25.0514 11.3168 23.7747 11.437 22.96 12.2946C22.0341 13.2692 22.0341 14.8555 22.9606 15.8307C23.4232 16.3178 24.0309 16.5613 24.6391 16.5613C25.2478 16.5613 25.8573 16.3172 26.3211 15.8289C26.6006 15.5323 26.807 15.168 26.9177 14.7737C26.964 14.6084 26.8742 14.4343 26.7171 14.3855Z" fill="black"/>
<path d="M25.5 14.456C25.3783 14.3406 25.1905 14.3516 25.0809 14.4798C24.9678 14.6122 24.8083 14.6879 24.6402 14.6879C24.6402 14.6879 24.6385 14.6879 24.6373 14.6879C24.4796 14.6879 24.3312 14.6232 24.2198 14.5054C24.1073 14.3876 24.0453 14.2308 24.0459 14.0629C24.0465 13.7181 24.3126 13.438 24.6396 13.438C24.8037 13.438 24.9365 13.2981 24.9365 13.1255C24.9365 12.9528 24.8037 12.813 24.6396 12.813C23.9856 12.813 23.4527 13.3733 23.4522 14.0623C23.4516 14.3967 23.5752 14.711 23.8001 14.9478C24.0239 15.1834 24.3208 15.3128 24.635 15.3128C24.6373 15.3128 24.6397 15.3128 24.642 15.3128C24.9765 15.3128 25.2977 15.1615 25.5226 14.8972C25.6322 14.7684 25.6218 14.5714 25.5 14.456Z" fill="black"/>
<path d="M37.701 0.000244141C37.5369 0.000244141 37.4041 0.140109 37.4041 0.312791C37.4041 1.95022 35.0386 11.3857 24.5772 13.7568C24.4172 13.7935 24.3152 13.9595 24.3494 14.1285C24.3795 14.275 24.5024 14.3751 24.6392 14.3751C24.6601 14.3751 24.681 14.3726 24.7025 14.3677C35.5459 11.9099 37.9979 2.02844 37.9979 0.312791C37.9979 0.140031 37.8651 0.000244141 37.701 0.000244141Z" fill="black"/>
<path d="M37.7033 0.000244141C37.7033 0.000244141 37.7033 0.000244141 37.7027 0.000244141C36.7356 0.000244141 31.0263 1.21722 27.177 7.00786C27.0825 7.14944 27.1155 7.34408 27.2495 7.443C27.3017 7.48153 27.3608 7.49981 27.42 7.49981C27.5133 7.49981 27.6055 7.45347 27.6628 7.3662C31.3197 1.86654 36.8382 0.62526 37.7027 0.62526H37.7033C37.8674 0.62526 38.0002 0.485551 38.0002 0.312791C38.0002 0.140031 37.8674 0.000244141 37.7033 0.000244141Z" fill="black"/>
<path d="M11.5809 18.1235C10.1077 18.1242 8.90918 19.3857 8.90918 20.9365C8.90918 22.4861 10.1076 23.7482 11.5809 23.7488C13.0541 23.7482 14.2526 22.486 14.2526 20.9358C14.2526 19.3857 13.0542 18.1242 11.5809 18.1235ZM11.5809 23.1238C10.4353 23.1232 9.50287 22.1418 9.50287 20.9364C9.50287 19.7304 10.4352 18.749 11.5809 18.7484C12.7265 18.749 13.6589 19.7299 13.6589 20.9358C13.6589 22.1418 12.7266 23.1232 11.5809 23.1238Z" fill="black"/>
<path d="M18.1112 24.9979C16.638 24.9985 15.4395 26.2601 15.4395 27.8109C15.4395 29.3605 16.6379 30.6226 18.1112 30.6232C19.5845 30.6226 20.7829 29.3605 20.7829 27.8109C20.7829 26.2601 19.5845 24.9985 18.1112 24.9979ZM18.1112 29.9983C16.9655 29.9977 16.0332 29.0164 16.0332 27.811C16.0332 26.605 16.9655 25.6236 18.1112 25.6229C19.2569 25.6236 20.1892 26.605 20.1892 27.811C20.1892 29.0164 19.2569 29.9977 18.1112 29.9983Z" fill="black"/>
<path d="M20.6965 18.215C20.5806 18.0929 20.3927 18.0929 20.2768 18.215L8.99614 30.0898C8.88019 30.2118 8.88019 30.4096 8.99614 30.5316C9.05411 30.5927 9.13005 30.6232 9.20599 30.6232C9.28192 30.6232 9.35794 30.5927 9.41591 30.5316L20.6965 18.6568C20.8124 18.5347 20.8124 18.3369 20.6965 18.215Z" fill="black"/>
</g>
<defs>
<clipPath id="clip0">
<rect width="38" height="40" fill="white"/>
</clipPath>
</defs>
</svg>
