<svg width="160" height="160" viewBox="0 0 160 160" fill="none" xmlns="http://www.w3.org/2000/svg">
<circle opacity="0.3" cx="80" cy="80" r="25" fill="#E6FF0D"/>
<path d="M144.579 79.6733L156.474 80.1326L156.364 82.9784C156.337 83.6819 156.152 84.1658 155.811 84.4302C155.47 84.7052 154.985 84.8306 154.356 84.8063L152.533 84.7359C151.659 84.7022 151.122 84.3826 150.921 83.777C150.628 84.4596 150.033 84.7835 149.138 84.749L146.564 84.6496C145.892 84.6237 145.366 84.4432 144.984 84.1082C144.612 83.7843 144.439 83.2972 144.464 82.6471L144.579 79.6733ZM149.908 82.2328L149.929 81.6892L146.187 81.5447L146.167 82.0883C146.156 82.3655 146.213 82.5545 146.337 82.6553C146.461 82.7562 146.662 82.812 146.939 82.8227L149.113 82.9066C149.38 82.9169 149.573 82.8764 149.694 82.785C149.826 82.694 149.897 82.5099 149.908 82.2328ZM154.768 82.4205L154.789 81.8769L151.703 81.7577L151.682 82.3013C151.666 82.717 151.935 82.9355 152.49 82.9569L153.993 83.015C154.259 83.0253 154.453 82.9847 154.574 82.8933C154.694 82.8126 154.759 82.6549 154.768 82.4205Z" fill="#E6FF0D"/>
<path d="M152.978 91.2195L146.388 90.4027C144.536 90.1731 143.704 89.2962 143.893 87.7718L143.93 87.4701C144.122 85.9246 145.144 85.2667 146.997 85.4963L153.57 86.311C155.38 86.5354 156.19 87.415 156 88.9499L155.963 89.2516C155.86 90.0773 155.555 90.636 155.046 90.9276C154.535 91.2297 153.846 91.327 152.978 91.2195ZM146.488 88.561L153.284 89.4033C153.887 89.4781 154.214 89.309 154.265 88.8962C154.318 88.4728 154.043 88.2237 153.439 88.1489L146.643 87.3066C146.04 87.2318 145.711 87.4114 145.657 87.8454C145.608 88.2477 145.884 88.4862 146.488 88.561Z" fill="#E6FF0D"/>
<path d="M143.642 90.8376L155.281 93.3351L154.7 96.0415C154.546 96.7611 154.243 97.2308 153.792 97.4504C153.352 97.6723 152.767 97.7049 152.037 97.5483L144.95 96.0276C143.407 95.6964 142.777 94.8685 143.061 93.544L143.642 90.8376ZM153.322 94.7638L144.952 92.9679L144.861 93.3903C144.805 93.651 144.835 93.8429 144.951 93.9658C145.074 94.1015 145.298 94.204 145.621 94.2733L152.176 95.6799C152.51 95.7515 152.754 95.7549 152.91 95.6901C153.066 95.6254 153.167 95.4835 153.214 95.2644L153.322 94.7638Z" fill="#E6FF0D"/>
<path d="M152.546 104.042L146.334 100.527L141.598 99.1081L142.117 97.3762L146.868 98.8L153.989 99.2299L153.483 100.916L148.984 100.436L153.015 102.479L152.546 104.042Z" fill="#E6FF0D"/>
<path d="M142.288 104.401L144.868 105.402L144.226 107.058L141.66 106.062C140.059 105.441 139.519 104.459 140.04 103.117L140.185 102.744C140.722 101.362 141.77 100.973 143.332 101.579L150.104 104.207C150.74 104.454 151.205 104.818 151.499 105.298C151.803 105.783 151.818 106.378 151.544 107.084L151.394 107.471C151.224 107.909 151.019 108.247 150.777 108.485C150.532 108.733 150.26 108.874 149.962 108.906C149.663 108.939 149.386 108.929 149.132 108.876C148.884 108.837 148.601 108.756 148.283 108.633L146.299 107.863L146.942 106.207L148.896 106.965C149.383 107.154 149.7 107.06 149.847 106.682C149.924 106.483 149.918 106.321 149.83 106.195C149.747 106.083 149.577 105.977 149.318 105.876L142.726 103.318C142.218 103.121 141.895 103.202 141.756 103.56C141.614 103.927 141.791 104.208 142.288 104.401Z" fill="#E6FF0D"/>
<path d="M137.762 108.628L139.879 109.399L140.464 108.207L138.552 107.019L139.263 105.568L149.31 112.117L148.366 114.042L136.994 110.194L137.762 108.628ZM145.72 111.515L141.974 109.161L141.558 110.009L145.72 111.515Z" fill="#E6FF0D"/>
<path d="M134.184 114.986L143.912 121.847L142.27 124.174C141.864 124.75 141.446 125.055 141.016 125.091C140.58 125.136 140.105 124.977 139.591 124.614L138.1 123.563C137.385 123.059 137.108 122.498 137.27 121.881C136.652 122.294 135.977 122.242 135.245 121.726L133.14 120.241C132.591 119.854 132.247 119.416 132.109 118.927C131.974 118.453 132.093 117.95 132.468 117.418L134.184 114.986ZM137.261 120.034L137.574 119.59L134.514 117.432L134.201 117.876C134.041 118.103 133.986 118.292 134.035 118.445C134.084 118.597 134.222 118.753 134.449 118.913L136.227 120.167C136.445 120.321 136.63 120.392 136.781 120.381C136.941 120.377 137.101 120.261 137.261 120.034ZM141.235 122.838L141.549 122.393L139.025 120.613L138.712 121.058C138.472 121.398 138.579 121.728 139.032 122.047L140.261 122.914C140.479 123.068 140.664 123.139 140.815 123.128C140.96 123.126 141.1 123.029 141.235 122.838Z" fill="#E6FF0D"/>
<path d="M134.89 129.278L129.819 124.991C128.393 123.786 128.176 122.597 129.168 121.424L129.364 121.192C130.37 120.003 131.585 120.011 133.011 121.216L138.07 125.492C139.463 126.669 139.66 127.849 138.661 129.03L138.465 129.262C137.928 129.897 137.366 130.198 136.781 130.164C136.188 130.138 135.558 129.842 134.89 129.278ZM130.909 123.503L136.139 127.924C136.603 128.317 136.97 128.354 137.238 128.037C137.514 127.711 137.419 127.352 136.955 126.959L131.725 122.538C131.261 122.146 130.888 122.116 130.605 122.45C130.343 122.76 130.445 123.111 130.909 123.503Z" fill="#E6FF0D"/>
<path d="M127.389 123.735L135.806 132.152L133.849 134.109C133.329 134.629 132.82 134.859 132.322 134.799C131.831 134.746 131.322 134.456 130.794 133.928L125.669 128.803C124.553 127.687 124.474 126.65 125.432 125.692L127.389 123.735ZM133.385 132.288L127.332 126.235L127.027 126.54C126.838 126.729 126.759 126.906 126.789 127.072C126.819 127.253 126.951 127.46 127.185 127.694L131.926 132.435C132.167 132.676 132.371 132.812 132.537 132.842C132.703 132.872 132.865 132.808 133.023 132.65L133.385 132.288Z" fill="#E6FF0D"/>
<path d="M127.656 139.689L124.349 133.363L121.144 129.599L122.52 128.427L125.736 132.203L131.481 136.431L130.141 137.572L126.623 134.725L128.898 138.63L127.656 139.689Z" fill="#E6FF0D"/>
<path d="M118.796 134.455L120.417 136.7L118.976 137.739L117.366 135.508C116.361 134.115 116.442 132.998 117.609 132.155L117.934 131.921C119.136 131.053 120.227 131.298 121.207 132.656L125.459 138.546C125.859 139.099 126.051 139.658 126.036 140.221C126.028 140.792 125.717 141.3 125.103 141.743L124.766 141.986C124.385 142.261 124.029 142.433 123.697 142.501C123.356 142.576 123.052 142.546 122.783 142.411C122.515 142.276 122.288 142.117 122.104 141.935C121.917 141.767 121.724 141.545 121.524 141.268L120.278 139.543L121.718 138.503L122.945 140.203C123.251 140.626 123.568 140.72 123.897 140.482C124.07 140.357 124.154 140.218 124.148 140.064C124.14 139.926 124.054 139.744 123.892 139.519L119.753 133.785C119.434 133.344 119.12 133.236 118.808 133.46C118.488 133.691 118.484 134.023 118.796 134.455Z" fill="#E6FF0D"/>
<path d="M112.713 135.537L114.072 137.333L115.21 136.649L114.249 134.614L115.634 133.782L120.516 144.736L118.678 145.84L111.218 136.435L112.713 135.537ZM117.828 142.281L115.96 138.271L115.151 138.757L117.828 142.281Z" fill="#E6FF0D"/>
<path d="M106.246 138.945L110.678 149.994L108.034 151.054C107.381 151.316 106.864 151.345 106.484 151.141C106.093 150.942 105.781 150.55 105.547 149.966L104.867 148.273C104.542 147.461 104.615 146.84 105.086 146.41C104.343 146.42 103.805 146.01 103.471 145.178L102.512 142.787C102.262 142.164 102.212 141.609 102.362 141.124C102.506 140.652 102.88 140.295 103.484 140.053L106.246 138.945ZM106.082 144.855L106.587 144.652L105.193 141.177L104.689 141.38C104.431 141.483 104.282 141.612 104.24 141.767C104.199 141.921 104.23 142.127 104.333 142.385L105.143 144.404C105.242 144.652 105.358 144.812 105.491 144.885C105.628 144.968 105.825 144.958 106.082 144.855ZM107.893 149.369L108.398 149.167L107.248 146.301L106.744 146.503C106.357 146.658 106.268 146.993 106.474 147.508L107.034 148.904C107.133 149.151 107.249 149.311 107.382 149.385C107.505 149.462 107.675 149.457 107.893 149.369Z" fill="#E6FF0D"/>
<path d="M99.145 151.298L97.2149 144.944C96.6723 143.158 97.1358 142.042 98.6055 141.596L98.8964 141.507C100.386 141.055 101.403 141.721 101.945 143.507L103.871 149.845C104.401 151.591 103.926 152.688 102.446 153.138L102.156 153.226C101.359 153.468 100.725 153.415 100.252 153.069C99.7681 152.725 99.3993 152.135 99.145 151.298ZM98.9382 144.287L100.929 150.839C101.106 151.421 101.393 151.652 101.791 151.531C102.199 151.407 102.315 151.054 102.138 150.472L100.148 143.92C99.9709 143.338 99.6733 143.111 99.2549 143.238C98.867 143.356 98.7615 143.705 98.9382 144.287Z" fill="#E6FF0D"/>
<path d="M95.8396 142.566L98.3373 154.205L95.6309 154.786C94.9113 154.94 94.3588 154.857 93.9736 154.536C93.5905 154.226 93.3207 153.705 93.164 152.975L91.6433 145.889C91.312 144.345 91.8087 143.431 93.1332 143.147L95.8396 142.566ZM96.2304 153.005L94.4344 144.635L94.012 144.726C93.7513 144.782 93.5885 144.888 93.5237 145.043C93.4508 145.212 93.449 145.457 93.5184 145.781L94.925 152.336C94.9966 152.669 95.0939 152.894 95.2169 153.009C95.3398 153.125 95.5108 153.159 95.7298 153.112L96.2304 153.005Z" fill="#E6FF0D"/>
<path d="M87.4115 156.094L88.0727 148.986L87.4269 144.085L89.2194 143.848L89.8673 148.766L92.3924 155.437L90.6475 155.667L89.2416 151.366L89.0295 155.88L87.4115 156.094Z" fill="#E6FF0D"/>
<path d="M82.8308 146.874L82.9696 149.638L81.1958 149.727L81.0578 146.979C80.9717 145.264 81.6478 144.37 83.0859 144.298L83.4854 144.278C84.9662 144.203 85.7486 145.002 85.8326 146.675L86.1969 153.93C86.2311 154.612 86.089 155.185 85.7706 155.649C85.4527 156.125 84.9155 156.381 84.1591 156.419L83.7437 156.44C83.2749 156.464 82.8826 156.414 82.5667 156.291C82.2401 156.168 82.0009 155.977 81.8491 155.718C81.6972 155.459 81.5935 155.202 81.5381 154.949C81.4725 154.706 81.4312 154.415 81.4141 154.074L81.3074 151.948L83.0811 151.859L83.1862 153.953C83.2124 154.475 83.428 154.726 83.8328 154.705C84.0458 154.695 84.1918 154.623 84.2706 154.491C84.3393 154.37 84.3667 154.171 84.3528 153.894L83.9981 146.831C83.9709 146.288 83.7655 146.026 83.3819 146.045C82.9878 146.065 82.8041 146.341 82.8308 146.874Z" fill="#E6FF0D"/>
<path d="M76.8802 144.46L77.0336 146.708L78.3606 146.759L78.6709 144.53L80.2857 144.592L78.3714 156.431L76.229 156.348L75.1375 144.393L76.8802 144.46ZM77.4668 152.905L78.1002 148.526L77.1569 148.49L77.4668 152.905Z" fill="#E6FF0D"/>
<path d="M69.5943 143.777L67.2746 155.453L64.4812 154.898C63.7907 154.761 63.3416 154.503 63.134 154.125C62.916 153.744 62.8683 153.245 62.9909 152.628L63.3464 150.839C63.5168 149.981 63.9168 149.5 64.5463 149.397C63.9183 149 63.6915 148.363 63.8661 147.484L64.3681 144.957C64.4991 144.298 64.7599 143.806 65.1507 143.481C65.5289 143.165 66.0371 143.07 66.6753 143.197L69.5943 143.777ZM66.2304 148.639L66.764 148.745L67.4936 145.073L66.96 144.967C66.688 144.912 66.4924 144.939 66.3733 145.046C66.2542 145.153 66.1676 145.342 66.1136 145.614L65.6896 147.748C65.6376 148.01 65.6473 148.208 65.7186 148.341C65.7878 148.486 65.9584 148.585 66.2304 148.639ZM65.2826 153.409L65.8162 153.515L66.4179 150.487L65.8843 150.381C65.4763 150.3 65.2182 150.531 65.1102 151.075L64.8171 152.55C64.7651 152.812 64.7748 153.01 64.8461 153.143C64.9069 153.275 65.0524 153.364 65.2826 153.409Z" fill="#E6FF0D"/>
<path d="M56.9164 150.264L58.7502 143.882C59.2657 142.088 60.2616 141.403 61.7378 141.827L62.03 141.911C63.5268 142.341 64.0174 143.453 63.5019 145.248L61.6725 151.614C61.1688 153.367 60.1737 154.03 58.6871 153.603L58.395 153.519C57.5953 153.289 57.0911 152.9 56.8825 152.352C56.6635 151.801 56.6748 151.105 56.9164 150.264ZM60.554 144.267L58.6627 150.849C58.4948 151.433 58.6108 151.783 59.0106 151.898C59.4207 152.016 59.7097 151.782 59.8776 151.198L61.7688 144.616C61.9367 144.032 61.8105 143.679 61.3902 143.559C61.0006 143.447 60.7219 143.683 60.554 144.267Z" fill="#E6FF0D"/>
<path d="M58.9123 141.139L54.6467 152.252L52.0625 151.26C51.3753 150.997 50.9581 150.625 50.8107 150.146C50.6595 149.676 50.7177 149.093 50.9853 148.396L53.5825 141.629C54.1481 140.156 55.0633 139.661 56.3281 140.147L58.9123 141.139ZM53.5378 150.096L56.6051 142.104L56.2018 141.949C55.9529 141.854 55.7587 141.853 55.6194 141.948C55.4663 142.05 55.3305 142.255 55.212 142.563L52.8098 148.822C52.6875 149.141 52.6463 149.382 52.6862 149.546C52.7261 149.71 52.8507 149.832 53.0598 149.912L53.5378 150.096Z" fill="#E6FF0D"/>
<path d="M44.4539 147.857L48.8996 142.272L51.0437 137.818L52.6729 138.602L50.5218 143.071L48.9809 150.036L47.395 149.272L48.5743 144.904L45.9244 148.565L44.4539 147.857Z" fill="#E6FF0D"/>
<path d="M45.6783 137.65L44.288 140.044L42.7522 139.152L44.1345 136.772C44.9971 135.287 46.051 134.906 47.2962 135.629L47.6421 135.83C48.9242 136.575 49.1446 137.671 48.3035 139.119L44.6549 145.401C44.312 145.991 43.8805 146.394 43.3603 146.61C42.8347 146.835 42.2445 146.758 41.5897 146.377L41.2299 146.168C40.8241 145.932 40.5223 145.677 40.3244 145.402C40.1174 145.121 40.0208 144.831 40.0349 144.53C40.0489 144.23 40.1018 143.959 40.1935 143.716C40.2706 143.477 40.3948 143.21 40.5663 142.915L41.6352 141.075L43.1709 141.967L42.1181 143.779C41.8556 144.231 41.8996 144.559 42.2501 144.762C42.4345 144.87 42.5958 144.889 42.7339 144.821C42.8574 144.757 42.9888 144.606 43.1281 144.366L46.6802 138.251C46.9535 137.78 46.9241 137.449 46.592 137.256C46.2508 137.057 45.9462 137.189 45.6783 137.65Z" fill="#E6FF0D"/>
<path d="M42.2146 132.516L41.1196 134.485L42.2049 135.251L43.679 133.549L44.9996 134.481L36.9485 143.369L35.1964 142.133L40.7894 131.511L42.2146 132.516ZM38.1091 139.919L41.0243 136.591L40.2529 136.047L38.1091 139.919Z" fill="#E6FF0D"/>
<path d="M36.505 128L28.2106 136.538L26.1677 134.554C25.6627 134.063 25.4259 133.603 25.4574 133.173C25.4812 132.735 25.7123 132.29 26.1508 131.839L27.4218 130.53C28.0312 129.903 28.6282 129.717 29.2127 129.972C28.9012 129.298 29.0576 128.64 29.6819 127.997L31.4768 126.149C31.945 125.667 32.4314 125.396 32.9359 125.336C33.4254 125.276 33.9035 125.473 34.3702 125.926L36.505 128ZM31.0385 130.251L31.4288 130.63L34.0375 127.945L33.6472 127.566C33.4483 127.373 33.2698 127.288 33.1118 127.313C32.9537 127.338 32.7781 127.45 32.5848 127.649L31.0687 129.21C30.8829 129.401 30.7835 129.572 30.7706 129.724C30.7503 129.882 30.8396 130.058 31.0385 130.251ZM27.6494 133.74L28.0397 134.119L30.1913 131.904L29.8011 131.525C29.5027 131.236 29.1602 131.29 28.7738 131.687L27.7258 132.766C27.54 132.957 27.4407 133.129 27.4278 133.28C27.4072 133.423 27.4811 133.577 27.6494 133.74Z" fill="#E6FF0D"/>
<path d="M22.3543 126.574L27.3624 122.214C28.7702 120.988 29.9785 120.955 30.9871 122.113L31.1867 122.342C32.2093 123.517 32.0167 124.717 30.6088 125.943L25.6128 130.292C24.2371 131.49 23.0415 131.505 22.0259 130.339L21.8262 130.11C21.2799 129.482 21.0682 128.882 21.191 128.308C21.3068 127.726 21.6946 127.148 22.3543 126.574ZM28.6671 123.518L23.5022 128.014C23.0436 128.413 22.9509 128.77 23.2241 129.084C23.5043 129.405 23.8736 129.367 24.3322 128.967L29.4971 124.471C29.9557 124.072 30.0414 123.707 29.7542 123.377C29.4881 123.072 29.1257 123.118 28.6671 123.518Z" fill="#E6FF0D"/>
<path d="M28.9427 119.956L19.316 126.958L17.6877 124.72C17.2548 124.125 17.1069 123.586 17.2441 123.104C17.3726 122.628 17.7388 122.17 18.3426 121.731L24.204 117.467C25.4807 116.539 26.5175 116.622 27.3144 117.718L28.9427 119.956ZM19.5593 124.546L26.4817 119.51L26.2276 119.161C26.0707 118.945 25.9079 118.839 25.7393 118.843C25.5558 118.845 25.3304 118.943 25.063 119.138L19.6415 123.081C19.3655 123.282 19.1996 123.462 19.1439 123.621C19.0883 123.78 19.1263 123.95 19.2581 124.132L19.5593 124.546Z" fill="#E6FF0D"/>
<path d="M13.2023 117.851L19.9594 115.55L24.1692 112.958L25.1173 114.497L20.8938 117.098L15.8368 122.129L14.9139 120.63L18.2651 117.589L14.0581 119.241L13.2023 117.851Z" fill="#E6FF0D"/>
<path d="M19.7287 109.882L17.2619 111.137L16.4562 109.555L18.9088 108.306C20.4393 107.527 21.5312 107.78 22.1844 109.063L22.3659 109.419C23.0384 110.741 22.6285 111.781 21.136 112.541L14.6623 115.836C14.0539 116.145 13.4726 116.25 12.9185 116.149C12.3549 116.053 11.9014 115.667 11.5578 114.992L11.3691 114.621C11.1562 114.203 11.0414 113.825 11.0246 113.486C11.0031 113.138 11.0796 112.842 11.2544 112.597C11.4292 112.353 11.6209 112.153 11.8297 111.999C12.0242 111.84 12.2735 111.684 12.5777 111.529L14.4742 110.563L15.2798 112.146L13.4118 113.097C12.946 113.334 12.8051 113.633 12.9889 113.994C13.0857 114.185 13.2105 114.289 13.3633 114.307C13.5017 114.32 13.6945 114.264 13.9417 114.138L20.2443 110.93C20.7291 110.683 20.8844 110.389 20.7102 110.047C20.5312 109.695 20.204 109.64 19.7287 109.882Z" fill="#E6FF0D"/>
<path d="M19.6054 103.712L17.6197 104.776L18.1187 106.007L20.2788 105.373L20.886 106.87L9.30708 109.994L8.50147 108.007L18.9501 102.096L19.6054 103.712ZM12.1487 107.719L16.4007 106.496L16.046 105.621L12.1487 107.719Z" fill="#E6FF0D"/>
<path d="M17.2305 96.7525L5.62076 99.383L4.99139 96.6054C4.83581 95.9188 4.88863 95.4037 5.14983 95.0602C5.40868 94.7063 5.84499 94.4597 6.45877 94.3207L8.23768 93.9176C9.09072 93.7244 9.69248 93.8942 10.0429 94.4273C10.1498 93.6922 10.6402 93.2256 11.514 93.0277L14.0263 92.4584C14.6817 92.3099 15.2372 92.3481 15.6929 92.573C16.1357 92.7898 16.429 93.2155 16.5728 93.8501L17.2305 96.7525ZM11.4208 95.6572L11.541 96.1878L15.1925 95.3605L15.0723 94.8299C15.011 94.5595 14.9073 94.3915 14.7613 94.3262C14.6152 94.2609 14.4069 94.2588 14.1365 94.3201L12.0143 94.8009C11.7542 94.8599 11.5775 94.9491 11.4843 95.0687C11.3807 95.1906 11.3595 95.3868 11.4208 95.6572ZM6.67705 96.7321L6.79727 97.2626L9.80893 96.5802L9.68872 96.0497C9.59678 95.644 9.28034 95.5024 8.73939 95.625L7.27256 95.9573C7.01249 96.0162 6.83584 96.1055 6.74262 96.225C6.64705 96.3342 6.62519 96.5032 6.67705 96.7321Z" fill="#E6FF0D"/>
<path d="M6.15056 87.8863L12.7268 86.9684C14.5756 86.7104 15.6061 87.342 15.8184 88.8633L15.8605 89.1644C16.0758 90.7067 15.259 91.6069 13.4103 91.865L6.84986 92.7806C5.04337 93.0327 4.03322 92.3929 3.81941 90.8611L3.77738 90.56C3.66237 89.736 3.81295 89.1172 4.22912 88.7037C4.64381 88.2797 5.28429 88.0072 6.15056 87.8863ZM13.108 88.7731L6.32569 89.7197C5.72352 89.8037 5.4512 90.0517 5.5087 90.4637C5.56769 90.8863 5.89826 91.0556 6.50042 90.9715L13.2827 90.0249C13.8848 89.9409 14.1557 89.6823 14.0952 89.2492C14.0392 88.8477 13.7101 88.689 13.108 88.7731Z" fill="#E6FF0D"/>
<path d="M15.2834 86.0017L3.39681 86.6445L3.24735 83.8805C3.2076 83.1456 3.37643 82.613 3.75381 82.2828C4.12055 81.9532 4.67671 81.7682 5.42229 81.7279L12.6597 81.3366C14.2361 81.2513 15.0608 81.8851 15.134 83.2378L15.2834 86.0017ZM4.91283 84.7518L13.4603 84.2897L13.437 83.8583C13.4226 83.592 13.3436 83.4147 13.1999 83.3263C13.0451 83.2279 12.8025 83.1876 12.4724 83.2054L5.77813 83.5674C5.4373 83.5858 5.20024 83.6467 5.06696 83.7501C4.93368 83.8534 4.87308 84.0169 4.88518 84.2406L4.91283 84.7518Z" fill="#E6FF0D"/>
<path d="M3.22887 75.384L10.1435 77.1554L15.0857 77.289L15.0369 79.0963L10.0787 78.9623L3.09314 80.4062L3.14069 78.6468L7.60954 77.9353L3.18478 77.0154L3.22887 75.384Z" fill="#E6FF0D"/>
<path d="M13.0514 72.1849L10.2995 71.8868L10.4909 70.1211L13.2269 70.4176C14.9342 70.6026 15.7103 71.4109 15.5552 72.8425L15.5121 73.2402C15.3523 74.7142 14.44 75.361 12.7751 75.1806L5.55336 74.3981C4.87467 74.3245 4.33101 74.094 3.9224 73.7064C3.50317 73.3176 3.33435 72.7468 3.41595 71.9938L3.46076 71.5803C3.51133 71.1136 3.6222 70.7341 3.79339 70.4415C3.96572 70.1383 4.19192 69.9321 4.47197 69.823C4.75203 69.7138 5.02161 69.6518 5.28071 69.637C5.53036 69.6104 5.82486 69.6155 6.16421 69.6523L8.27983 69.8815L8.08849 71.6472L6.00469 71.4214C5.48506 71.3651 5.20342 71.5384 5.15975 71.9414C5.13676 72.1535 5.1843 72.3088 5.30236 72.4075C5.41097 72.4943 5.60313 72.5527 5.87885 72.5826L12.9097 73.3444C13.4505 73.403 13.7416 73.2414 13.783 72.8597C13.8255 72.4673 13.5817 72.2424 13.0514 72.1849Z" fill="#E6FF0D"/>
<path d="M16.2996 67.0149L14.055 66.8224L13.8012 68.1259L15.9571 68.7738L15.6482 70.3601L4.24189 66.656L4.65164 64.5515L16.6329 65.303L16.2996 67.0149ZM7.86436 66.3017L12.0946 67.598L12.275 66.6714L7.86436 66.3017Z" fill="#E6FF0D"/>
<path d="M18.135 59.7761L6.97409 55.6361L7.96463 52.9659C8.20948 52.3059 8.53515 51.9033 8.94163 51.7583C9.35182 51.6033 9.85194 51.6352 10.442 51.8541L12.1521 52.4884C12.9722 52.7926 13.3834 53.2637 13.3856 53.9016C13.8768 53.3443 14.5424 53.2215 15.3825 53.5331L17.7977 54.429C18.4277 54.6627 18.8721 54.9982 19.1309 55.4354C19.3833 55.859 19.3964 56.3758 19.1701 56.9859L18.135 59.7761ZM13.8676 55.6846L13.6784 56.1946L17.1887 57.4967L17.3779 56.9866C17.4744 56.7266 17.4793 56.5294 17.3927 56.3948C17.306 56.2603 17.1327 56.1448 16.8727 56.0484L14.8325 55.2916C14.5825 55.1989 14.3858 55.1771 14.2424 55.2263C14.089 55.2718 13.9641 55.4245 13.8676 55.6846ZM9.30724 53.993L9.11804 54.503L12.0133 55.5769L12.2025 55.0669C12.3472 54.6769 12.1595 54.3854 11.6394 54.1925L10.2293 53.6695C9.97931 53.5767 9.7826 53.5549 9.6392 53.6041C9.49951 53.6433 9.38886 53.7729 9.30724 53.993Z" fill="#E6FF0D"/>
<path d="M13.58 46.5396L19.5949 49.3522C21.2858 50.1428 21.806 51.2339 21.1553 52.6252L21.0265 52.9006C20.3668 54.3113 19.1915 54.6213 17.5006 53.8307L11.5002 51.0249C9.84788 50.2522 9.34933 49.1654 10.0045 47.7644L10.1333 47.489C10.4857 46.7353 10.9491 46.2985 11.5233 46.1784C12.1021 46.0487 12.7877 46.1691 13.58 46.5396ZM18.9314 51.0731L12.7281 48.1724C12.1773 47.9149 11.8138 47.9746 11.6376 48.3514C11.4569 48.7379 11.6419 49.0599 12.1926 49.3174L18.396 52.2181C18.9467 52.4757 19.3147 52.4063 19.5 52.0102C19.6717 51.643 19.4822 51.3307 18.9314 51.0731Z" fill="#E6FF0D"/>
<path d="M22.4164 49.6301L12.1228 43.6513L13.5131 41.2578C13.8828 40.6214 14.3159 40.2686 14.8126 40.1993C15.3 40.1247 15.8665 40.2749 16.5122 40.6499L22.7797 44.2902C24.1448 45.0831 24.4871 46.0653 23.8067 47.2366L22.4164 49.6301ZM14.4283 42.8996L21.8303 47.1989L22.0473 46.8253C22.1812 46.5947 22.2123 46.4031 22.1406 46.2504C22.0651 46.0832 21.8843 45.9166 21.5984 45.7505L15.8013 42.3834C15.5062 42.2119 15.2745 42.1329 15.1064 42.1463C14.9383 42.1596 14.798 42.2632 14.6854 42.4568L14.4283 42.8996Z" fill="#E6FF0D"/>
<path d="M17.8715 34.5447L22.7042 39.7978L26.7754 42.6028L25.7496 44.0916L21.6652 41.2776L15.021 38.6818L16.0196 37.2325L20.1545 39.071L16.9455 35.8886L17.8715 34.5447Z" fill="#E6FF0D"/>
<path d="M27.8171 37.242L25.671 35.4938L26.7927 34.1168L28.9264 35.8549C30.2579 36.9395 30.4689 38.04 29.5594 39.1565L29.3067 39.4666C28.3703 40.6161 27.2529 40.662 25.9545 39.6044L20.3225 35.0167C19.7932 34.5855 19.4627 34.0962 19.331 33.5486C19.1909 32.9943 19.3601 32.4235 19.8384 31.8364L20.1012 31.5138C20.3976 31.15 20.6972 30.8919 21.0001 30.7397C21.3098 30.5791 21.6117 30.5293 21.9061 30.5902C22.2004 30.6512 22.4603 30.7459 22.6857 30.8745C22.9096 30.9881 23.1539 31.1527 23.4185 31.3683L25.0684 32.7122L23.9467 34.0892L22.3216 32.7654C21.9164 32.4353 21.5858 32.4274 21.3298 32.7416C21.195 32.907 21.1503 33.0632 21.1957 33.2102C21.2395 33.3422 21.3689 33.4958 21.5839 33.671L27.067 38.1374C27.4888 38.481 27.8209 38.5039 28.0634 38.2062C28.3127 37.9002 28.2306 37.5788 27.8171 37.242Z" fill="#E6FF0D"/>
<path d="M33.3218 34.7002L31.5427 33.3181L30.6208 34.274L32.0778 35.9901L30.9561 37.1533L23.3977 27.8423L24.886 26.299L34.5324 33.4448L33.3218 34.7002ZM26.6304 29.5149L29.4757 32.903L30.131 32.2235L26.6304 29.5149Z" fill="#E6FF0D"/>
<path d="M38.7765 29.6095L31.634 20.0864L33.9124 18.3777C34.4756 17.9553 34.9674 17.7932 35.3876 17.8913C35.8164 17.983 36.2197 18.2806 36.5973 18.7841L37.6917 20.2433C38.2165 20.943 38.3072 21.5617 37.9637 22.0993C38.6784 21.8966 39.3045 22.1537 39.8421 22.8705L41.3877 24.9312C41.791 25.4688 41.983 25.9915 41.9638 26.4992C41.9467 26.992 41.6779 27.4336 41.1573 27.824L38.7765 29.6095ZM37.4037 23.8592L36.9685 24.1856L39.2149 27.1808L39.6501 26.8544C39.872 26.688 39.9829 26.5248 39.9829 26.3648C39.9829 26.2048 39.8997 26.0139 39.7333 25.792L38.4277 24.0512C38.2677 23.8379 38.1141 23.7131 37.9669 23.6768C37.8133 23.632 37.6255 23.6928 37.4037 23.8592ZM34.4852 19.9681L34.05 20.2945L35.9028 22.7648L36.3381 22.4384C36.6709 22.1888 36.6709 21.8422 36.3381 21.3985L35.4356 20.1953C35.2756 19.9819 35.122 19.8571 34.9748 19.8209C34.8362 19.7782 34.673 19.8273 34.4852 19.9681Z" fill="#E6FF0D"/>
<path d="M42.3235 15.8801L45.8469 21.5082C46.8374 23.0904 46.6817 24.289 45.3797 25.104L45.122 25.2653C43.802 26.0916 42.6467 25.7137 41.6562 24.1315L38.1414 18.5169C37.1735 16.9709 37.3451 15.7875 38.6561 14.9669L38.9138 14.8056C39.619 14.3641 40.2453 14.2489 40.7927 14.4599C41.3491 14.6653 41.8594 15.1387 42.3235 15.8801ZM44.3552 22.593L40.7215 16.7886C40.3988 16.2732 40.0612 16.1259 39.7086 16.3466C39.347 16.573 39.3274 16.9439 39.6501 17.4592L43.2838 23.2637C43.6064 23.779 43.9531 23.9206 44.3237 23.6886C44.6673 23.4735 44.6778 23.1083 44.3552 22.593Z" fill="#E6FF0D"/>
<path d="M47.7227 23.4568L42.2835 12.8681L44.7457 11.6034C45.4004 11.2672 45.9555 11.2039 46.4109 11.4136C46.8616 11.6139 47.2575 12.0461 47.5986 12.7102L50.9104 19.1574C51.6317 20.5616 51.3899 21.5732 50.1849 22.1921L47.7227 23.4568ZM44.6301 13.4795L48.5414 21.0937L48.9257 20.8963C49.1629 20.7745 49.2925 20.6299 49.3145 20.4627C49.3412 20.2812 49.2789 20.0433 49.1279 19.7492L46.0646 13.7859C45.9087 13.4823 45.7563 13.2908 45.6076 13.2113C45.4588 13.1318 45.2848 13.1432 45.0856 13.2456L44.6301 13.4795Z" fill="#E6FF0D"/>
<path d="M52.5388 8.09169L53.7387 15.128L55.6306 19.6957L53.9602 20.3875L52.0622 15.8051L47.8971 10.0141L49.5232 9.34065L51.994 13.1317L51.031 8.71617L52.5388 8.09169Z" fill="#E6FF0D"/>
<path d="M59.1464 15.8609L58.2919 13.2281L59.9812 12.6799L60.8307 15.2975C61.3608 16.9309 60.9411 17.9699 59.5714 18.4144L59.1909 18.5379C57.7807 18.9956 56.8171 18.428 56.3001 16.8351L54.0577 9.92587C53.8469 9.27654 53.8347 8.68614 54.0211 8.15466C54.2042 7.61303 54.6559 7.22533 55.3762 6.99156L55.7719 6.86314C56.2183 6.71827 56.6101 6.66404 56.9471 6.70045C57.2943 6.73356 57.575 6.85554 57.7892 7.06638C58.0034 7.27722 58.1703 7.4978 58.2899 7.72813C58.4164 7.94502 58.5323 8.21579 58.6377 8.54045L59.2946 10.5645L57.6053 11.1127L56.9583 9.11911C56.7969 8.62197 56.5235 8.43596 56.138 8.56108C55.935 8.62693 55.8128 8.7339 55.7711 8.88199C55.7363 9.01664 55.7617 9.21586 55.8473 9.47964L58.0305 16.2062C58.1984 16.7237 58.465 16.9231 58.8302 16.8046C59.2056 16.6828 59.311 16.3682 59.1464 15.8609Z" fill="#E6FF0D"/>
<path d="M65.4424 16.6404L64.7052 14.5116L63.4112 14.81L63.6962 17.0431L62.1215 17.4061L60.8655 5.47941L62.9546 4.99769L67.1418 16.2486L65.4424 16.6404ZM62.6626 8.64455L63.1992 13.0363L64.119 12.8242L62.6626 8.64455Z" fill="#E6FF0D"/>
<path d="M72.3 15.4089L71.474 3.53359L74.3152 3.33599C75.0175 3.28714 75.5184 3.41803 75.818 3.72866C76.1283 4.03855 76.3052 4.5074 76.3489 5.13522L76.4755 6.95482C76.5362 7.82738 76.2763 8.39611 75.696 8.66102C76.4061 8.87894 76.7923 9.43482 76.8545 10.3287L77.0332 12.8984C77.0799 13.5688 76.9572 14.112 76.6654 14.5279C76.3835 14.9324 75.9179 15.1573 75.2688 15.2024L72.3 15.4089ZM74.27 9.83478L73.7273 9.87253L73.9871 13.6075L74.5298 13.5698C74.8064 13.5505 74.9882 13.4737 75.0751 13.3394C75.162 13.205 75.1958 12.9995 75.1766 12.7228L75.0256 10.5521C75.0071 10.2861 74.9459 10.0979 74.842 9.98747C74.7373 9.86644 74.5467 9.81554 74.27 9.83478ZM73.9325 4.98251L73.3898 5.02025L73.6041 8.10081L74.1468 8.06306C74.5618 8.0342 74.75 7.7431 74.7115 7.18977L74.6072 5.6894C74.5887 5.42337 74.5275 5.23517 74.4235 5.12478C74.3303 5.01365 74.1666 4.96622 73.9325 4.98251Z" fill="#E6FF0D"/>
<path d="M83.2872 5.80452L83.1591 12.4433C83.123 14.3096 82.3372 15.2279 80.8015 15.1983L80.4975 15.1924C78.9405 15.1624 78.18 14.2142 78.216 12.3479L78.3438 5.72511C78.379 3.90145 79.1698 3.00454 80.7162 3.03439L81.0201 3.04026C81.852 3.05631 82.4393 3.30236 82.7822 3.7784C83.1358 4.25464 83.3041 4.93002 83.2872 5.80452ZM81.3169 12.5358L81.4491 5.68903C81.4608 5.08114 81.2587 4.77318 80.8428 4.76516C80.4162 4.75692 80.1971 5.05675 80.1853 5.66464L80.0532 12.5114C80.0414 13.1192 80.2542 13.4274 80.6915 13.4358C81.0967 13.4437 81.3052 13.1436 81.3169 12.5358Z" fill="#E6FF0D"/>
<path d="M83.8025 15.1111L85.0394 3.27153L87.7924 3.55913C88.5245 3.6356 89.0238 3.88617 89.2904 4.31084C89.5582 4.72491 89.6533 5.30325 89.5757 6.04587L88.8226 13.2546C88.6585 14.8248 87.9028 15.5394 86.5555 15.3987L83.8025 15.1111ZM86.6697 5.06664L85.7802 13.5803L86.2099 13.6252C86.4751 13.6529 86.6627 13.6028 86.7726 13.4748C86.8942 13.3374 86.9722 13.1042 87.0065 12.7754L87.7031 6.10764C87.7386 5.76816 87.7158 5.52447 87.6347 5.37658C87.5537 5.22869 87.4017 5.14311 87.1789 5.11983L86.6697 5.06664Z" fill="#E6FF0D"/>
<path d="M96.1119 4.85341L93.2769 11.4043L92.3692 16.2642L90.5919 15.9323L91.5026 11.0566L91.1733 3.93103L92.9034 4.25416L92.9046 8.77929L94.5077 4.55379L96.1119 4.85341Z" fill="#E6FF0D"/>
<path d="M97.57 15.0108L98.294 12.3392L100.008 12.8037L99.2883 15.4599C98.8391 17.1174 97.9196 17.7579 96.5297 17.3813L96.1437 17.2766C94.7126 16.8889 94.2161 15.8868 94.6541 14.2704L96.5542 7.25931C96.7327 6.60041 97.0453 6.0994 97.492 5.75627C97.9414 5.40285 98.5316 5.32518 99.2626 5.52326L99.6641 5.63207C100.117 5.75482 100.475 5.92357 100.737 6.13832C101.01 6.35585 101.178 6.61144 101.242 6.9051C101.306 7.19875 101.325 7.4747 101.299 7.73294C101.287 7.98368 101.236 8.27378 101.147 8.60323L100.59 10.6571L98.8757 10.1926L99.424 8.1696C99.5607 7.66513 99.4334 7.35989 99.0422 7.25387C98.8363 7.19808 98.6754 7.22079 98.5596 7.32201C98.4568 7.41573 98.3692 7.59643 98.2966 7.86411L96.4468 14.6899C96.3045 15.215 96.4187 15.5277 96.7893 15.6281C97.1703 15.7314 97.4305 15.5256 97.57 15.0108Z" fill="#E6FF0D"/>
<path d="M102.37 19.0917L102.915 16.906L101.669 16.4488L100.687 18.4748L99.1699 17.9184L104.635 7.2434L106.648 7.98149L104.007 19.692L102.37 19.0917ZM104.411 10.8762L102.46 14.8475L103.347 15.1725L104.411 10.8762Z" fill="#E6FF0D"/>
<path d="M109.045 21.9554L114.871 11.5749L117.355 12.9689C117.969 13.3135 118.316 13.6978 118.396 14.1219C118.485 14.5512 118.376 15.0402 118.068 15.589L117.175 17.1796C116.747 17.9423 116.217 18.2752 115.587 18.1781C116.061 18.75 116.079 19.4266 115.64 20.2079L114.379 22.4543C114.05 23.0402 113.65 23.427 113.177 23.6145C112.72 23.798 112.207 23.7305 111.64 23.412L109.045 21.9554ZM113.751 18.3768L113.276 18.1105L111.444 21.3754L111.918 21.6416C112.16 21.7774 112.354 21.8129 112.5 21.7483C112.647 21.6836 112.788 21.5304 112.923 21.2886L113.989 19.3911C114.119 19.1585 114.171 18.9676 114.145 18.8183C114.124 18.6597 113.992 18.5125 113.751 18.3768ZM116.131 14.1353L115.657 13.869L114.146 16.5618L114.62 16.8281C114.983 17.0317 115.3 16.8917 115.571 16.408L116.307 15.0965C116.438 14.8639 116.49 14.673 116.464 14.5237C116.447 14.3796 116.336 14.2502 116.131 14.1353Z" fill="#E6FF0D"/>
<path d="M123.063 19.6731L119.336 25.1683C118.288 26.7131 117.129 27.0544 115.858 26.1922L115.606 26.0216C114.317 25.1475 114.197 23.938 115.244 22.3932L118.963 16.9112C119.987 15.4017 121.139 15.081 122.419 15.9492L122.67 16.1198C123.359 16.5868 123.717 17.1133 123.745 17.6993C123.781 18.2913 123.554 18.9492 123.063 19.6731ZM117.741 24.2414L121.585 18.5741C121.927 18.0709 121.925 17.7026 121.581 17.4691C121.228 17.2296 120.881 17.3614 120.539 17.8646L116.695 23.5319C116.354 24.0351 116.364 24.4094 116.726 24.6549C117.062 24.8824 117.4 24.7446 117.741 24.2414Z" fill="#E6FF0D"/>
<path d="M118.282 27.6548L125.767 18.3983L127.92 20.1387C128.492 20.6014 128.774 21.0835 128.767 21.5849C128.766 22.078 128.531 22.6148 128.061 23.1954L123.504 28.8314C122.511 30.059 121.488 30.2469 120.435 29.3951L118.282 27.6548ZM126.157 20.7917L120.775 27.4479L121.111 27.7195C121.318 27.8871 121.503 27.9472 121.665 27.8998C121.841 27.8507 122.034 27.6976 122.242 27.4405L126.457 22.2275C126.672 21.9621 126.785 21.7453 126.798 21.5771C126.81 21.4089 126.729 21.2544 126.555 21.1136L126.157 20.7917Z" fill="#E6FF0D"/>
<path d="M134.183 25.7508L128.24 29.7046L124.834 33.2882L123.524 32.0427L126.941 28.4475L130.541 22.2899L131.817 23.5023L129.356 27.2996L133 24.6266L134.183 25.7508Z" fill="#E6FF0D"/>
<path d="M129.966 35.157L132.027 33.3093L133.212 34.6317L131.163 36.4687C129.885 37.615 128.765 37.6521 127.803 36.5799L127.536 36.2821C126.547 35.1782 126.675 34.0673 127.922 32.9494L133.331 28.1005C133.839 27.6449 134.374 27.3946 134.936 27.3497C135.505 27.2976 136.042 27.5536 136.548 28.1175L136.826 28.4272C137.139 28.7766 137.347 29.1128 137.45 29.4357C137.561 29.7665 137.563 30.0726 137.457 30.3538C137.351 30.6351 137.217 30.877 137.055 31.0797C136.908 31.2831 136.707 31.4988 136.453 31.7266L134.868 33.1471L133.683 31.8248L135.244 30.4256C135.633 30.0768 135.692 29.7514 135.421 29.4496C135.279 29.2908 135.132 29.2223 134.979 29.2442C134.842 29.2669 134.67 29.3709 134.464 29.556L129.198 34.2767C128.793 34.6398 128.719 34.9643 128.975 35.2502C129.238 35.5441 129.569 35.513 129.966 35.157Z" fill="#E6FF0D"/>
<path d="M131.635 41.0123L133.278 39.4703L132.477 38.4108L130.555 39.5826L129.581 38.2934L139.956 32.2781L141.248 33.9886L132.687 42.4036L131.635 41.0123ZM137.8 35.2107L134.01 37.4933L134.579 38.2464L137.8 35.2107Z" fill="#E6FF0D"/>
<path d="M135.66 46.9415L146.167 41.3465L147.505 43.8603C147.836 44.4817 147.921 44.9924 147.76 45.3926C147.603 45.8023 147.247 46.155 146.692 46.4508L145.082 47.3081C144.31 47.7192 143.684 47.7137 143.206 47.2918C143.296 48.0291 142.946 48.6083 142.155 49.0294L139.882 50.2402C139.288 50.556 138.742 50.6655 138.244 50.5685C137.759 50.476 137.364 50.1425 137.058 49.5682L135.66 46.9415ZM141.553 46.4681L141.297 45.988L137.992 47.7477L138.248 48.2278C138.378 48.4726 138.523 48.6073 138.681 48.6319C138.839 48.6565 139.04 48.6036 139.285 48.4732L141.206 47.4505C141.441 47.3251 141.588 47.1925 141.646 47.0527C141.714 46.9078 141.683 46.7129 141.553 46.4681ZM145.846 44.182L145.59 43.7019L142.865 45.1532L143.12 45.6334C143.316 46.0006 143.658 46.0538 144.148 45.7931L145.476 45.0862C145.711 44.9609 145.858 44.8283 145.916 44.6884C145.98 44.5579 145.956 44.3891 145.846 44.182Z" fill="#E6FF0D"/>
<path d="M148.729 52.6683L142.624 55.2776C140.907 56.0112 139.747 55.6718 139.143 54.2594L139.024 53.9798C138.412 52.5478 138.964 51.465 140.681 50.7314L146.772 48.1284C148.449 47.4116 149.592 47.7643 150.199 49.1865L150.319 49.4661C150.646 50.2311 150.663 50.8677 150.369 51.3758C150.08 51.8937 149.534 52.3246 148.729 52.6683ZM141.783 53.636L148.08 50.9449C148.639 50.706 148.837 50.3952 148.673 50.0127C148.506 49.6204 148.142 49.5437 147.583 49.7826L141.286 52.4737C140.727 52.7126 140.533 53.0332 140.705 53.4353C140.865 53.808 141.224 53.8749 141.783 53.636Z" fill="#E6FF0D"/>
<path d="M140.448 56.9519L151.757 53.2347L152.621 55.8643C152.851 56.5635 152.827 57.1216 152.548 57.5387C152.28 57.9525 151.791 58.2759 151.082 58.5091L144.197 60.7724C142.697 61.2654 141.735 60.8684 141.312 59.5815L140.448 56.9519ZM150.786 55.4569L142.654 58.1299L142.789 58.5403C142.872 58.7936 142.995 58.9442 143.157 58.9921C143.332 59.0468 143.576 59.0225 143.891 58.9193L150.259 56.8259C150.584 56.7193 150.797 56.5987 150.898 56.4642C151 56.3297 151.016 56.1561 150.946 55.9433L150.786 55.4569Z" fill="#E6FF0D"/>
<path d="M154.871 64.1705L147.734 64.2452L142.925 65.3927L142.505 63.6341L147.33 62.4829L153.705 59.2838L154.114 60.9957L149.98 62.8373L154.492 62.5831L154.871 64.1705Z" fill="#E6FF0D"/>
<path d="M146.187 69.6821L148.922 69.2574L149.195 71.0124L146.475 71.4346C144.778 71.698 143.819 71.1183 143.598 69.6953L143.537 69.3001C143.309 67.835 144.023 66.974 145.678 66.7171L152.856 65.6027C153.531 65.498 154.115 65.5799 154.61 65.8485C155.116 66.1154 155.427 66.623 155.543 67.3714L155.607 67.7825C155.679 68.2463 155.67 68.6416 155.581 68.9686C155.493 69.3061 155.328 69.5638 155.085 69.7417C154.843 69.9196 154.599 70.0493 154.352 70.1308C154.118 70.2211 153.832 70.2924 153.495 70.3448L151.392 70.6712L151.12 68.9163L153.191 68.5947C153.707 68.5146 153.935 68.2742 153.872 67.8737C153.84 67.6629 153.754 67.5251 153.614 67.4604C153.487 67.4046 153.286 67.398 153.012 67.4406L146.023 68.5255C145.486 68.6089 145.247 68.8404 145.306 69.2198C145.366 69.6098 145.66 69.7639 146.187 69.6821Z" fill="#E6FF0D"/>
<path d="M144.391 75.5707L146.609 75.1758L146.517 73.851L144.267 73.783L144.155 72.1709L156.131 72.7975L156.28 74.9363L144.512 77.3105L144.391 75.5707ZM152.724 74.077L148.302 73.9193L148.367 74.8611L152.724 74.077Z" fill="#E6FF0D"/>
<circle cx="80" cy="80" r="10" fill="#E6FF0D"/>
</svg>
