<svg width="167" height="48" viewBox="0 0 167 48" fill="none" xmlns="http://www.w3.org/2000/svg">
<path d="M13.7464 42.1495L15.547 47.2199C15.5638 47.2674 15.5939 47.3089 15.6336 47.3396C15.6734 47.3703 15.7211 47.3888 15.771 47.3928L23.0174 47.996H23.0594L30.3057 47.3928C30.3557 47.3888 30.4034 47.3703 30.4432 47.3396C30.4829 47.3089 30.513 47.2674 30.5298 47.2199L32.3304 42.1495C32.3468 42.1011 32.3488 42.0489 32.3361 41.9993C32.3235 41.9497 32.2968 41.905 32.2592 41.8704C32.2217 41.8359 32.1749 41.8131 32.1246 41.8048C32.0744 41.7965 32.0228 41.8031 31.9763 41.8238L23.1454 45.8769C23.111 45.8918 23.0739 45.8995 23.0364 45.8995C22.9989 45.8995 22.9618 45.8918 22.9274 45.8769L14.1005 41.8178C14.0539 41.7971 14.0024 41.7905 13.9521 41.7988C13.9019 41.807 13.8551 41.8298 13.8176 41.8644C13.78 41.8989 13.7533 41.9437 13.7406 41.9933C13.728 42.0429 13.73 42.095 13.7464 42.1435" fill="black"/>
<path d="M45.3668 0.10721L38.9807 8.72409C38.9567 8.758 38.9243 8.78502 38.8867 8.8025L27.6251 14.3614C27.5827 14.3838 27.5473 14.4173 27.5226 14.4584C27.4978 14.4995 27.4848 14.5466 27.4848 14.5947C27.4848 14.6427 27.4978 14.6898 27.5226 14.7309C27.5473 14.772 27.5827 14.8056 27.6251 14.8279L37.8444 20.3426C37.8879 20.3661 37.9238 20.4016 37.9479 20.4449C37.9721 20.4882 37.9834 20.5376 37.9807 20.5871C37.978 20.6367 37.9613 20.6845 37.9325 20.7248C37.9038 20.7652 37.8642 20.7965 37.8184 20.8151L23.1456 26.7922C23.114 26.8059 23.08 26.813 23.0456 26.813C23.0112 26.813 22.9771 26.8059 22.9456 26.7922L8.27081 20.8151C8.22501 20.7965 8.18541 20.7652 8.15666 20.7248C8.12791 20.6845 8.1112 20.6367 8.10847 20.5871C8.10574 20.5376 8.11711 20.4882 8.14126 20.4449C8.1654 20.4016 8.20132 20.3661 8.2448 20.3426L18.4641 14.8279C18.5064 14.8056 18.5419 14.772 18.5666 14.7309C18.5913 14.6898 18.6044 14.6427 18.6044 14.5947C18.6044 14.5466 18.5913 14.4995 18.5666 14.4584C18.5419 14.4173 18.5064 14.3838 18.4641 14.3614L7.20247 8.8025C7.16487 8.78502 7.13246 8.758 7.10844 8.72409L0.714368 0.10721C0.67831 0.0583751 0.626435 0.0237033 0.567677 0.00916573C0.508918 -0.00537181 0.446955 0.00113489 0.392457 0.0275653C0.337959 0.0539957 0.294337 0.0986955 0.269105 0.153967C0.243872 0.209238 0.238608 0.271621 0.254219 0.330373L5.4559 20.0772C5.47122 20.1461 5.459 20.2183 5.42189 20.2783L0.0421501 28.4951C0.0061137 28.5507 -0.00752943 28.6179 0.00398792 28.6833C0.0155053 28.7486 0.0513208 28.8071 0.10417 28.8469L10.2795 36.5651C10.3223 36.5941 10.3728 36.6097 10.4245 36.6097C10.4762 36.6098 10.5267 36.5944 10.5696 36.5655C10.6125 36.5366 10.6459 36.4955 10.6655 36.4474C10.6851 36.3994 10.69 36.3465 10.6796 36.2957L8.30282 26.1488C8.29102 26.0998 8.29361 26.0483 8.31029 26.0007C8.32696 25.9531 8.35701 25.9113 8.39679 25.8805C8.43657 25.8496 8.48438 25.831 8.53445 25.8269C8.58453 25.8228 8.63471 25.8334 8.67894 25.8573L17.7799 30.7227C17.8418 30.7565 17.8879 30.8136 17.9079 30.8815L20.9209 41.3782C20.9365 41.4327 20.9694 41.4806 21.0145 41.5147C21.0596 41.5488 21.1145 41.5672 21.171 41.5671H24.9102C24.9666 41.5672 25.0216 41.5488 25.0667 41.5147C25.1118 41.4806 25.1446 41.4327 25.1603 41.3782L28.1733 30.8815C28.1933 30.8136 28.2394 30.7565 28.3013 30.7227L37.4042 25.8573C37.4484 25.834 37.4983 25.8239 37.5481 25.8283C37.5978 25.8327 37.6452 25.8514 37.6846 25.8821C37.7241 25.9128 37.7539 25.9543 37.7705 26.0016C37.7871 26.0489 37.7898 26.1 37.7784 26.1488L35.3916 36.2957C35.3812 36.3465 35.3861 36.3994 35.4057 36.4474C35.4252 36.4955 35.4586 36.5366 35.5016 36.5655C35.5445 36.5944 35.595 36.6098 35.6467 36.6097C35.6984 36.6097 35.7489 36.5941 35.7917 36.5651L45.967 28.8469C46.0199 28.8071 46.0557 28.7486 46.0672 28.6833C46.0787 28.6179 46.0651 28.5507 46.029 28.4951L40.6493 20.2883C40.6122 20.2284 40.6 20.1562 40.6153 20.0873L45.817 0.340425C45.8326 0.281673 45.8273 0.21929 45.8021 0.164019C45.7768 0.108748 45.7332 0.0640481 45.6787 0.0376177C45.6242 0.0111872 45.5623 0.00468054 45.5035 0.0192181C45.4447 0.0337556 45.3929 0.0684275 45.3568 0.117263" fill="black"/>
<path d="M65.4051 21.0657H59.8493V15.9491H55.3418V30.1169C55.3439 32.0395 56.1049 33.8828 57.4578 35.2423C58.8106 36.6018 60.6449 37.3665 62.5581 37.3687H65.4051C67.3185 37.3665 69.153 36.6019 70.5061 35.2424C71.8593 33.883 72.6207 32.0397 72.6234 30.1169V28.3075C72.6207 26.3846 71.8593 24.5414 70.5061 23.1819C69.153 21.8225 67.3185 21.0578 65.4051 21.0557V21.0657ZM68.1139 30.1028C68.1129 30.8245 67.8271 31.5162 67.3193 32.0265C66.8116 32.5368 66.1232 32.8239 65.4051 32.825H62.5581C61.84 32.8239 61.1516 32.5368 60.6438 32.0265C60.1361 31.5162 59.8503 30.8245 59.8493 30.1028V25.5953H65.4051C66.1233 25.5959 66.812 25.8828 67.3199 26.3932C67.8278 26.9036 68.1134 27.5957 68.1139 28.3175V30.1028Z" fill="black"/>
<path d="M84.7801 21.0657H82.2273C80.235 21.0678 78.3249 21.8641 76.9162 23.2798C75.5074 24.6955 74.715 26.615 74.7129 28.6171V30.1169C74.715 32.0395 75.476 33.8828 76.8288 35.2423C78.1817 36.6018 80.016 37.3665 81.9292 37.3686H84.7781C86.6914 37.3665 88.5256 36.6018 89.8785 35.2423C91.2314 33.8828 91.9923 32.0395 91.9945 30.1169V28.3074C91.9923 26.3848 91.2314 24.5415 89.8785 23.182C88.5256 21.8225 86.6914 21.0578 84.7781 21.0557L84.7801 21.0657ZM87.487 30.1028C87.486 30.8244 87.2002 31.5162 86.6924 32.0265C86.1846 32.5368 85.4962 32.8239 84.7781 32.825H81.9312C81.2161 32.8234 80.5305 32.5379 80.0238 32.0306C79.5172 31.5234 79.2306 30.8355 79.2263 30.1169V28.6171C79.2263 27.8172 79.5425 27.0502 80.1053 26.4846C80.6681 25.9191 81.4314 25.6013 82.2273 25.6013H84.7781C85.4962 25.6024 86.1846 25.8895 86.6924 26.3998C87.2002 26.9101 87.486 27.6019 87.487 28.3235V30.1028Z" fill="black"/>
<path d="M126.477 26.8337C126.475 27.5559 126.188 28.2478 125.679 28.7577C125.17 29.2676 124.481 29.5539 123.762 29.5539H120.701C119.983 29.5518 119.295 29.2636 118.788 28.7526C118.281 28.2415 117.996 27.5493 117.996 26.8277L118.006 21.0657H113.499V26.8297C113.497 28.6267 114.159 30.3605 115.356 31.6956C116.553 33.0307 118.2 33.8722 119.979 34.0573V37.5475H124.489V34.0573C126.268 33.8783 127.918 33.0427 129.119 31.7122C130.321 30.3816 130.989 28.6506 130.995 26.8538V21.0898H126.487L126.477 26.8337Z" fill="black"/>
<path d="M137.115 30.1169V28.3075C137.115 27.5857 137.401 26.8936 137.909 26.3832C138.417 25.8728 139.106 25.5858 139.824 25.5853H147.756V21.0637H139.824C137.91 21.0658 136.075 21.8308 134.722 23.1907C133.369 24.5505 132.608 26.3943 132.605 28.3175V30.1269C132.608 32.0499 133.369 33.8935 134.722 35.2531C136.075 36.6126 137.91 37.3771 139.824 37.3787H148.048V32.8391H139.824C139.106 32.838 138.417 32.5509 137.91 32.0406C137.402 31.5303 137.116 30.8385 137.115 30.1169Z" fill="black"/>
<path d="M159.784 21.0657H156.935C155.022 21.0678 153.188 21.8325 151.835 23.192C150.482 24.5515 149.721 26.3948 149.719 28.3174V30.1269C149.721 32.0495 150.482 33.8928 151.835 35.2523C153.188 36.6118 155.022 37.3765 156.935 37.3786H167V28.3315C166.998 26.4089 166.237 24.5656 164.884 23.2061C163.532 21.8466 161.697 21.0819 159.784 21.0797V21.0657ZM162.491 32.8531H156.935C156.217 32.852 155.529 32.5649 155.021 32.0546C154.513 31.5443 154.227 30.8525 154.226 30.1309V28.3215C154.227 27.5998 154.513 26.908 155.021 26.3978C155.529 25.8875 156.217 25.6004 156.935 25.5993H159.784C160.502 25.6004 161.19 25.8876 161.698 26.3979C162.205 26.9082 162.49 27.6 162.491 28.3215V32.8531Z" fill="black"/>
<path d="M106.815 21.0657H101.259C99.3458 21.0673 97.511 21.8318 96.1577 23.1914C94.8044 24.5509 94.0431 26.3945 94.041 28.3175V30.1269C94.0431 32.0499 94.8044 33.8935 96.1577 35.2531C97.511 36.6126 99.3458 37.3771 101.259 37.3787H104.106C106.019 37.3766 107.854 36.6119 109.207 35.2524C110.559 33.8929 111.32 32.0496 111.323 30.1269V15.9491H106.815V21.0657ZM106.815 30.1129C106.814 30.8345 106.528 31.5263 106.021 32.0366C105.513 32.5468 104.824 32.834 104.106 32.835H101.259C100.541 32.834 99.8528 32.5468 99.3451 32.0366C98.8373 31.5263 98.5515 30.8345 98.5505 30.1129V28.3034C98.551 27.5816 98.8366 26.8895 99.3445 26.3792C99.8524 25.8688 100.541 25.5818 101.259 25.5813H106.815V30.1169V30.1129Z" fill="black"/>
</svg>
