<?xml version="1.0" encoding="utf-8"?><svg viewBox="0 0 28 28" xmlns="http://www.w3.org/2000/svg" xmlns:xlink="http://www.w3.org/1999/xlink"><style>:root>svg{display:none}:root>svg:target{display:block}</style><svg viewBox="0 0 17 19" id="ic_cart" xmlns="http://www.w3.org/2000/svg"><path d="M.9 16.424L1.988 4.173a.524.524 0 0 1 .52-.478h2.238A3.757 3.757 0 0 1 8.5 0a3.757 3.757 0 0 1 3.753 3.695h2.238a.52.52 0 0 1 .52.478l1.089 12.25c0 .017.003.032.003.048 0 1.394-1.278 2.529-2.851 2.529H3.748C2.174 19 .896 17.865.896 16.47c0-.015 0-.03.004-.046zM8.5 1.049a2.707 2.707 0 0 0-2.705 2.646h5.409A2.707 2.707 0 0 0 8.5 1.05zM3.748 17.951h9.504c.986 0 1.787-.653 1.802-1.457l-1.04-11.746h-1.757v1.593a.522.522 0 0 1-.525.525.522.522 0 0 1-.524-.525V4.748H5.795v1.593a.522.522 0 0 1-.524.525.522.522 0 0 1-.525-.525V4.748H2.99L1.945 16.494c.015.804.82 1.457 1.803 1.457z"/></svg><svg viewBox="0 0 28 28" id="ic_facebook" xmlns="http://www.w3.org/2000/svg"><path d="M28 4.667C28 2.215 25.786 0 23.333 0H4.667C2.214 0 0 2.215 0 4.667v18.666C0 25.785 2.214 28 4.667 28H14V17.422h-3.422v-4.666H14v-1.819c0-3.135 2.355-5.96 5.25-5.96h3.772v4.667H19.25c-.413 0-.894.502-.894 1.252v1.86h4.666v4.666h-4.666V28h4.977C25.786 28 28 25.785 28 23.333V4.667z"/></svg><svg viewBox="0 0 19 17" id="ic_favorite" xmlns="http://www.w3.org/2000/svg"><path d="M9.5 16.904c-.27 0-.531-.098-.735-.276a219.006 219.006 0 0 0-2.16-1.858l-.003-.003c-1.914-1.631-3.567-3.04-4.718-4.428C.6 8.788 0 7.317 0 5.71 0 4.15.535 2.71 1.507 1.654A5.11 5.11 0 0 1 5.307 0a4.78 4.78 0 0 1 2.986 1.03c.446.346.85.768 1.207 1.26.356-.492.76-.914 1.207-1.26A4.78 4.78 0 0 1 13.692 0a5.11 5.11 0 0 1 3.8 1.654C18.466 2.71 19 4.15 19 5.71c0 1.607-.599 3.078-1.884 4.629-1.15 1.388-2.803 2.796-4.717 4.428-.654.557-1.395 1.188-2.165 1.861a1.115 1.115 0 0 1-.734.276zM5.308 1.113c-1.153 0-2.212.46-2.983 1.296-.781.848-1.212 2.02-1.212 3.301 0 1.352.502 2.56 1.628 3.919 1.089 1.314 2.708 2.693 4.582 4.29l.004.004c.655.558 1.398 1.191 2.171 1.867a258.51 258.51 0 0 1 2.179-1.87c1.874-1.598 3.493-2.977 4.582-4.291 1.126-1.359 1.628-2.567 1.628-3.919 0-1.28-.43-2.453-1.213-3.301a4.008 4.008 0 0 0-2.982-1.296c-.844 0-1.62.268-2.304.798-.61.472-1.035 1.068-1.285 1.486a.697.697 0 0 1-.603.343.697.697 0 0 1-.603-.343c-.25-.418-.675-1.014-1.285-1.486a3.691 3.691 0 0 0-2.304-.798z"/></svg><svg viewBox="0 0 16 14" id="ic_favorite2" xmlns="http://www.w3.org/2000/svg"><path d="M11.661.104c-.848 0-1.625.27-2.31.799C8.694 1.41 8.257 2.058 8 2.528c-.258-.47-.695-1.117-1.352-1.625a3.699 3.699 0 0 0-2.31-.799C1.973.104.19 2.04.19 4.605c0 2.772 2.226 4.669 5.595 7.54.572.488 1.22 1.04 1.894 1.63a.488.488 0 0 0 .643 0c.674-.59 1.323-1.142 1.895-1.63 3.369-2.871 5.595-4.768 5.595-7.54 0-2.566-1.784-4.5-4.15-4.5z"/></svg><svg viewBox="0 0 28 28" id="ic_instagram" xmlns="http://www.w3.org/2000/svg"><path d="M23.898 0H4.102A4.106 4.106 0 0 0 0 4.102v19.796A4.106 4.106 0 0 0 4.102 28h19.796A4.106 4.106 0 0 0 28 23.898V4.102A4.106 4.106 0 0 0 23.898 0zm-9.843 21.328c-4.071 0-7.383-3.312-7.383-7.383 0-4.07 3.312-7.383 7.383-7.383 4.07 0 7.383 3.312 7.383 7.383s-3.312 7.383-7.383 7.383zm8.203-13.125a2.464 2.464 0 0 1-2.461-2.46 2.464 2.464 0 0 1 2.46-2.462 2.464 2.464 0 0 1 2.462 2.461 2.464 2.464 0 0 1-2.461 2.461z"/><path d="M22.258 4.922a.82.82 0 1 0 0 1.642.82.82 0 0 0 0-1.642zM14 9.059c-2.895 0-5.25 2.217-5.25 4.94 0 2.725 2.355 4.942 5.25 4.942s5.25-2.217 5.25-4.941c0-2.724-2.355-4.941-5.25-4.941z"/></svg><svg viewBox="0 0 19 19" id="ic_search" xmlns="http://www.w3.org/2000/svg"><path d="M18.37 16.892l-4.372-4.371A7.665 7.665 0 0 0 8.072 0a7.663 7.663 0 1 0 0 15.325c1.844 0 3.532-.65 4.853-1.733l4.372 4.368a.757.757 0 1 0 1.072-1.069zM8.07 13.801A6.146 6.146 0 0 1 1.93 7.663 6.149 6.149 0 0 1 8.07 1.521a6.151 6.151 0 0 1 6.142 6.142c0 3.384-2.757 6.138-6.142 6.138z"/></svg><svg viewBox="0 0 28 28" id="ic_vkontakte" xmlns="http://www.w3.org/2000/svg"><path d="M15.51 15.431c-.45-.26-1.074-.26-1.58-.26h-1.665v3.43h1.528c.565 0 1.287.04 1.774-.303.448-.301.701-.892.701-1.456 0-.523-.311-1.149-.759-1.41zm-.629-2.929c.37-.282.565-.785.565-1.248 0-.503-.234-.986-.662-1.247-.449-.262-1.268-.201-1.794-.201h-.725v3.019h.96c.545 0 1.189.04 1.656-.323zM23.078 0H4.921A4.922 4.922 0 0 0 0 4.922v18.156A4.922 4.922 0 0 0 4.921 28h18.157A4.923 4.923 0 0 0 28 23.078V4.922A4.922 4.922 0 0 0 23.078 0zM14.76 21.156H9.04V7.35h6.25c1.81 0 3.48 1.153 3.48 3.185 0 1.57-.875 2.645-1.993 2.979v.04c1.657.342 2.84 1.242 2.84 3.414 0 2.01-1.368 4.188-4.857 4.188z"/></svg></svg>